{
.appVersion = "1247";
copyright = "Copyright (c) 2008-2019 by Jens Kutilek. All rights reserved.";
customParameters = (
{
name = openTypeOS2Selection;
value = (
);
},
{
name = openTypeOS2StrikeoutPosition;
value = 448;
},
{
name = openTypeOS2StrikeoutSize;
value = 128;
},
{
name = openTypeOS2SubscriptXOffset;
value = 0;
},
{
name = openTypeOS2SubscriptXSize;
value = 717;
},
{
name = openTypeOS2SubscriptYOffset;
value = 143;
},
{
name = openTypeOS2SubscriptYSize;
value = 666;
},
{
name = openTypeOS2SuperscriptXOffset;
value = 0;
},
{
name = openTypeOS2SuperscriptXSize;
value = 717;
},
{
name = openTypeOS2SuperscriptYOffset;
value = 488;
},
{
name = openTypeOS2SuperscriptYSize;
value = 666;
},
{
name = postscriptIsFixedPitch;
value = 1;
},
{
name = Axes;
value = (
{
Name = Weight;
Tag = wght;
},
{
Name = Width;
Tag = wdth;
},
{
Hidden = 1;
Name = Production;
Tag = PROD;
}
);
}
);
date = "2008-09-07 06:16:00 +0000";
designer = "Jens Kutilek";
designerURL = "https://www.kutilek.de/";
disablesAutomaticAlignment = 1;
familyName = Workbench;
fontMaster = (
{
ascender = 896;
capHeight = 896;
custom = Hatch;
customValue = 50;
customParameters = (
{
name = typoAscender;
value = 896;
},
{
name = typoDescender;
value = -128;
},
{
name = typoLineGap;
value = 0;
},
{
name = hheaAscender;
value = 896;
},
{
name = hheaDescender;
value = -128;
},
{
name = hheaLineGap;
value = 0;
},
{
name = winAscent;
value = 896;
},
{
name = winDescent;
value = 128;
},
{
name = underlineThickness;
value = 128;
},
{
name = underlinePosition;
value = -128;
},
{
name = "Axis Location";
value = (
{
Axis = Weight;
Location = "0";
},
{
Axis = Width;
Location = "100";
},
{
Axis = Production;
Location = "50";
}
);
}
);
descender = -128;
id = master01;
visible = 1;
xHeight = 640;
},
{
ascender = 896;
capHeight = 896;
customValue = 100;
customParameters = (
{
name = "Link Metrics With First Master";
value = 1;
},
{
name = typoAscender;
value = 896;
},
{
name = typoDescender;
value = -128;
},
{

glyphs = (
{
glyphname = A;
lastChange = "2019-07-27 12:32:26 +0000";
layers = (
{
background = {
paths = (
{
closed = 1;
nodes = (
"61 259 LINE",
"61 515 LINE",
"125 515 LINE",
"125 771 LINE",
"189 771 LINE",
"189 899 LINE",
"323 899 LINE",
"323 771 LINE",
"387 771 LINE",
"387 515 LINE",
"451 515 LINE",
"451 259 LINE",
"515 259 LINE",
"515 -3 LINE",
"381 -3 LINE",
"381 253 LINE",
"131 253 LINE",
"131 -3 LINE",
"-3 -3 LINE",
"-3 259 LINE"
);
},
{
closed = 1;
nodes = (
"317 387 LINE",
"317 509 LINE",
"195 509 LINE",
"195 387 LINE"
);
}
);
};
layerId = master01;
paths = (
{
closed = 0;
nodes = (
"-3 64 LINE",
"131 64 LINE"
);
},
{
closed = 0;
nodes = (
"381 64 LINE",
"515 64 LINE"
);
},
{
closed = 0;
nodes = (
"-3 192 LINE",
"131 192 LINE"
);
},
{
closed = 0;
nodes = (
"381 192 LINE",
"515 192 LINE"
);
},
{
closed = 0;
nodes = (
"61 320 LINE",
"451 320 LINE"
);
},
{
closed = 0;
nodes = (
"61 448 LINE",
"195 448 LINE"
);
},
{
closed = 0;
nodes = (
"317 448 LINE",
"451 448 LINE"
);
},
{
closed = 0;
nodes = (
"125 576 LINE",
"387 576 LINE"
);
},
{
closed = 0;
nodes = (
"125 704 LINE",
"387 704 LINE"
);
},
{
closed = 0;
nodes = (
"189 832 LINE",
"323 832 LINE"
);
}
);
userData = {
com.typemytype.robofont.mark = (
0.656,
1,
0.6,
1
);
};
width = 512;
},
{
layerId = "968AADD4-6AAB-4A21-B439-CFC52095EED4";
paths = (
{
closed = 1;
nodes = (
"61 259 LINE",
"61 515 LINE",
"125 515 LINE",
"125 771 LINE",
"189 771 LINE",
"189 899 LINE",
"323 899 LINE",
"323 771 LINE",
"387 771 LINE",
"387 515 LINE",
"451 515 LINE",
"451 259 LINE",
"515 259 LINE",
"515 -3 LINE",
"381 -3 LINE",
"381 253 LINE",
"131 253 LINE",
"131 -3 LINE",
"-3 -3 LINE",
"-3 259 LINE"
);
},
{
closed = 1;
nodes = (
"317 387 LINE",
"317 509 LINE",
"195 509 LINE",
"195 387 LINE"
);
}
);
userData = {
com.typemytype.robofont.mark = (
0.656,
1,
0.6,
1
);
};
width = 512;
},
{
layerId = "EF047752-ED93-49D3-A4D1-D66A6AAE90C7";
paths = (
{
closed = 1;
nodes = (
"1 54 OFFCURVE",
"-5 60 OFFCURVE",
"-5 68 OFFCURVE",
"1 74 OFFCURVE",
"7 74 QCURVE SMOOTH",
"121 74 LINE SMOOTH",
"127 74 OFFCURVE",
"133 68 OFFCURVE",
"133 60 OFFCURVE",
"127 54 OFFCURVE",
"121 54 QCURVE SMOOTH",
"7 54 LINE SMOOTH"
);
},
{
closed = 1;
nodes = (
"385 54 OFFCURVE",
"379 60 OFFCURVE",
"379 68 OFFCURVE",
"385 74 OFFCURVE",
"391 74 QCURVE SMOOTH",
"505 74 LINE SMOOTH",
"511 74 OFFCURVE",
"517 68 OFFCURVE",
"517 60 OFFCURVE",
"511 54 OFFCURVE",
"505 54 QCURVE SMOOTH",
"391 54 LINE SMOOTH"
);
},
{
closed = 1;
nodes = (
"1 182 OFFCURVE",
"-5 188 OFFCURVE",
"-5 196 OFFCURVE",
"1 202 OFFCURVE",
"7 202 QCURVE SMOOTH",
"121 202 LINE SMOOTH",
"127 202 OFFCURVE",
"133 196 OFFCURVE",
"133 188 OFFCURVE",
"127 182 OFFCURVE",
"121 182 QCURVE SMOOTH",
"7 182 LINE SMOOTH"
);
},
{
closed = 1;
nodes = (
"385 182 OFFCURVE",
"379 188 OFFCURVE",
"379 196 OFFCURVE",
"385 202 OFFCURVE",
"391 202 QCURVE SMOOTH",
"505 202 LINE SMOOTH",
"511 202 OFFCURVE",
"517 196 OFFCURVE",
"517 188 OFFCURVE",
"511 182 OFFCURVE",
"505 182 QCURVE SMOOTH",
"391 182 LINE SMOOTH"
);
},
{
closed = 1;
nodes = (
"65 310 OFFCURVE",
"59 316 OFFCURVE",
"59 324 OFFCURVE",
"65 330 OFFCURVE",
"71 330 QCURVE SMOOTH",
"441 330 LINE SMOOTH",
"447 330 OFFCURVE",
"453 324 OFFCURVE",
"453 316 OFFCURVE",
"447 310 OFFCURVE",
"441 310 QCURVE SMOOTH",
"71 310 LINE SMOOTH"
);
},
{
closed = 1;
nodes = (
"65 438 OFFCURVE",
"59 444 OFFCURVE",
"59 452 OFFCURVE",
"65 458 OFFCURVE",
"71 458 QCURVE SMOOTH",
"185 458 LINE SMOOTH",
"191 458 OFFCURVE",
"197 452 OFFCURVE",
"197 444 OFFCURVE",
"191 438 OFFCURVE",
"185 438 QCURVE SMOOTH",
"71 438 LINE SMOOTH"
);
},
{
closed = 1;
nodes = (
"321 438 OFFCURVE",
"315 444 OFFCURVE",
"315 452 OFFCURVE",
"321 458 OFFCURVE",
"327 458 QCURVE SMOOTH",
"441 458 LINE SMOOTH",
"447 458 OFFCURVE",
"453 452 OFFCURVE",
"453 444 OFFCURVE",
"447 438 OFFCURVE",
"441 438 QCURVE SMOOTH",
"327 438 LINE SMOOTH"
);
},
{
closed = 1;
nodes = (
"129 566 OFFCURVE",
"123 572 OFFCURVE",
"123 580 OFFCURVE",
"129 586 OFFCURVE",
"135 586 QCURVE SMOOTH",
"377 586 LINE SMOOTH",
"383 586 OFFCURVE",
"389 580 OFFCURVE",
"389 572 OFFCURVE",
"383 566 OFFCURVE",
"377 566 QCURVE SMOOTH",
"135 566 LINE SMOOTH"
);
},
{
closed = 1;
nodes = (
"129 694 OFFCURVE",
"123 700 OFFCURVE",
"123 708 OFFCURVE",
"129 714 OFFCURVE",
"135 714 QCURVE SMOOTH",
"377 714 LINE SMOOTH",
"383 714 OFFCURVE",
"389 708 OFFCURVE",
"389 700 OFFCURVE",
"383 694 OFFCURVE",
"377 694 QCURVE SMOOTH",
"135 694 LINE SMOOTH"
);
},
{
closed = 1;
nodes = (
"193 822 OFFCURVE",
"187 828 OFFCURVE",
"187 836 OFFCURVE",
"193 842 OFFCURVE",
"199 842 QCURVE SMOOTH",
"313 842 LINE SMOOTH",
"319 842 OFFCURVE",
"325 836 OFFCURVE",
"325 828 OFFCURVE",
"319 822 OFFCURVE",
"313 822 QCURVE SMOOTH",
"199 822 LINE SMOOTH"
);
}
);
width = 512;
},
{
layerId = "164C8123-3F0E-4C99-877D-0E85C432A9CE";
paths = (
{
closed = 1;
nodes = (
"9 -61 OFFCURVE",
"-63 13 OFFCURVE",
"-63 115 OFFCURVE",
"9 189 OFFCURVE",
"62 189 QCURVE SMOOTH",
"66 189 LINE SMOOTH",
"119 189 OFFCURVE",
"191 115 OFFCURVE",
"191 13 OFFCURVE",
"119 -61 OFFCURVE",
"66 -61 QCURVE SMOOTH",
"62 -61 LINE SMOOTH"
);
},
{
closed = 1;
nodes = (
"393 -61 OFFCURVE",
"321 13 OFFCURVE",
"321 115 OFFCURVE",
"393 189 OFFCURVE",
"446 189 QCURVE SMOOTH",
"450 189 LINE SMOOTH",
"503 189 OFFCURVE",
"575 115 OFFCURVE",
"575 13 OFFCURVE",
"503 -61 OFFCURVE",
"450 -61 QCURVE SMOOTH",
"446 -61 LINE SMOOTH"
);
},
{
closed = 1;
nodes = (
"9 67 OFFCURVE",
"-63 141 OFFCURVE",
"-63 243 OFFCURVE",
"9 317 OFFCURVE",
"62 317 QCURVE SMOOTH",
"66 317 LINE SMOOTH",
"119 317 OFFCURVE",
"191 243 OFFCURVE",
"191 141 OFFCURVE",
"119 67 OFFCURVE",
"66 67 QCURVE SMOOTH",
"62 67 LINE SMOOTH"
);
},
{
closed = 1;
nodes = (
"393 67 OFFCURVE",
"321 141 OFFCURVE",
"321 243 OFFCURVE",
"393 317 OFFCURVE",
"446 317 QCURVE SMOOTH",
"450 317 LINE SMOOTH",
"503 317 OFFCURVE",
"575 243 OFFCURVE",
"575 141 OFFCURVE",
"503 67 OFFCURVE",
"450 67 QCURVE SMOOTH",
"446 67 LINE SMOOTH"
);
},
{
closed = 1;
nodes = (
"81 195 OFFCURVE",
"1 269 OFFCURVE",
"1 371 OFFCURVE",
"81 445 OFFCURVE",
"151 445 QCURVE SMOOTH",
"361 445 LINE SMOOTH",
"431 445 OFFCURVE",
"511 371 OFFCURVE",
"511 269 OFFCURVE",
"431 195 OFFCURVE",
"361 195 QCURVE SMOOTH",
"151 195 LINE SMOOTH"
);
},
{
closed = 1;
nodes = (
"73 323 OFFCURVE",
"1 397 OFFCURVE",
"1 499 OFFCURVE",
"73 573 OFFCURVE",
"126 573 QCURVE SMOOTH",
"130 573 LINE SMOOTH",
"183 573 OFFCURVE",
"255 499 OFFCURVE",
"255 397 OFFCURVE",
"183 323 OFFCURVE",
"130 323 QCURVE SMOOTH",
"126 323 LINE SMOOTH"
);
},
{
closed = 1;
nodes = (
"329 323 OFFCURVE",
"257 397 OFFCURVE",
"257 499 OFFCURVE",
"329 573 OFFCURVE",
"382 573 QCURVE SMOOTH",
"386 573 LINE SMOOTH",
"439 573 OFFCURVE",
"511 499 OFFCURVE",
"511 397 OFFCURVE",
"439 323 OFFCURVE",
"386 323 QCURVE SMOOTH",
"382 323 LINE SMOOTH"
);
},
{
closed = 1;
nodes = (
"145 451 OFFCURVE",
"65 525 OFFCURVE",
"65 627 OFFCURVE",
"145 701 OFFCURVE",
"215 701 QCURVE SMOOTH",
"297 701 LINE SMOOTH",
"367 701 OFFCURVE",
"447 627 OFFCURVE",
"447 525 OFFCURVE",
"367 451 OFFCURVE",
"297 451 QCURVE SMOOTH",
"215 451 LINE SMOOTH"
);
},
{
closed = 1;
nodes = (
"145 579 OFFCURVE",
"65 653 OFFCURVE",
"65 755 OFFCURVE",
"145 829 OFFCURVE",
"215 829 QCURVE SMOOTH",
"297 829 LINE SMOOTH",
"367 829 OFFCURVE",
"447 755 OFFCURVE",
"447 653 OFFCURVE",
"367 579 OFFCURVE",
"297 579 QCURVE SMOOTH",
"215 579 LINE SMOOTH"
);
},
{
closed = 1;
nodes = (
"201 707 OFFCURVE",
"129 781 OFFCURVE",
"129 883 OFFCURVE",
"201 957 OFFCURVE",
"254 957 QCURVE SMOOTH",
"258 957 LINE SMOOTH",
"311 957 OFFCURVE",
"383 883 OFFCURVE",
"383 781 OFFCURVE",
"311 707 OFFCURVE",
"258 707 QCURVE SMOOTH",
"254 707 LINE SMOOTH"
);
}
);
width = 512;
},
{
layerId = "EDC3ADDC-530C-4ECE-AAC6-732B149A8D4A";
paths = (
{
closed = 1;
nodes = (
"-87 54 OFFCURVE",
"-93 60 OFFCURVE",
"-93 68 OFFCURVE",
"-87 74 OFFCURVE",
"-81 74 QCURVE SMOOTH",
"209 74 LINE SMOOTH",
"215 74 OFFCURVE",
"221 68 OFFCURVE",
"221 60 OFFCURVE",
"215 54 OFFCURVE",
"209 54 QCURVE SMOOTH",
"-81 54 LINE SMOOTH"
);
},
{
closed = 1;
nodes = (
"297 54 OFFCURVE",
"291 60 OFFCURVE",
"291 68 OFFCURVE",
"297 74 OFFCURVE",
"303 74 QCURVE SMOOTH",
"593 74 LINE SMOOTH",
"599 74 OFFCURVE",
"605 68 OFFCURVE",
"605 60 OFFCURVE",
"599 54 OFFCURVE",
"593 54 QCURVE SMOOTH",
"303 54 LINE SMOOTH"
);
},
{
closed = 1;
nodes = (
"-87 182 OFFCURVE",
"-93 188 OFFCURVE",
"-93 196 OFFCURVE",
"-87 202 OFFCURVE",
"-81 202 QCURVE SMOOTH",
"209 202 LINE SMOOTH",
"215 202 OFFCURVE",
"221 196 OFFCURVE",
"221 188 OFFCURVE",
"215 182 OFFCURVE",
"209 182 QCURVE SMOOTH",
"-81 182 LINE SMOOTH"
);
},
{
closed = 1;
nodes = (
"297 182 OFFCURVE",
"291 188 OFFCURVE",
"291 196 OFFCURVE",
"297 202 OFFCURVE",
"303 202 QCURVE SMOOTH",
"593 202 LINE SMOOTH",
"599 202 OFFCURVE",
"605 196 OFFCURVE",
"605 188 OFFCURVE",
"599 182 OFFCURVE",
"593 182 QCURVE SMOOTH",
"303 182 LINE SMOOTH"
);
},
{
closed = 1;
nodes = (
"-23 310 OFFCURVE",
"-29 316 OFFCURVE",
"-29 324 OFFCURVE",
"-23 330 OFFCURVE",
"-17 330 QCURVE SMOOTH",
"529 330 LINE SMOOTH",
"535 330 OFFCURVE",
"541 324 OFFCURVE",
"541 316 OFFCURVE",
"535 310 OFFCURVE",
"529 310 QCURVE SMOOTH",
"-17 310 LINE SMOOTH"
);
},
{
closed = 1;
nodes = (
"-23 438 OFFCURVE",
"-29 444 OFFCURVE",
"-29 452 OFFCURVE",
"-23 458 OFFCURVE",
"-17 458 QCURVE SMOOTH",
"273 458 LINE SMOOTH",
"279 458 OFFCURVE",
"285 452 OFFCURVE",
"285 444 OFFCURVE",
"279 438 OFFCURVE",
"273 438 QCURVE SMOOTH",
"-17 438 LINE SMOOTH"
);
},
{
closed = 1;
nodes = (
"233 438 OFFCURVE",
"227 444 OFFCURVE",
"227 452 OFFCURVE",
"233 458 OFFCURVE",
"239 458 QCURVE SMOOTH",
"529 458 LINE SMOOTH",
"535 458 OFFCURVE",
"541 452 OFFCURVE",
"541 444 OFFCURVE",
"535 438 OFFCURVE",
"529 438 QCURVE SMOOTH",
"239 438 LINE SMOOTH"
);
},
{
closed = 1;
nodes = (
"41 566 OFFCURVE",
"35 572 OFFCURVE",
"35 580 OFFCURVE",
"41 586 OFFCURVE",
"47 586 QCURVE SMOOTH",
"465 586 LINE SMOOTH",
"471 586 OFFCURVE",
"477 580 OFFCURVE",
"477 572 OFFCURVE",
"471 566 OFFCURVE",
"465 566 QCURVE SMOOTH",
"47 566 LINE SMOOTH"
);
},
{
closed = 1;
nodes = (
"41 694 OFFCURVE",
"35 700 OFFCURVE",
"35 708 OFFCURVE",
"41 714 OFFCURVE",
"47 714 QCURVE SMOOTH",
"465 714 LINE SMOOTH",
"471 714 OFFCURVE",
"477 708 OFFCURVE",
"477 700 OFFCURVE",
"471 694 OFFCURVE",
"465 694 QCURVE SMOOTH",
"47 694 LINE SMOOTH"
);
},
{
closed = 1;
nodes = (
"105 822 OFFCURVE",
"99 828 OFFCURVE",
"99 836 OFFCURVE",
"105 842 OFFCURVE",
"111 842 QCURVE SMOOTH",
"401 842 LINE SMOOTH",
"407 842 OFFCURVE",
"413 836 OFFCURVE",
"413 828 OFFCURVE",
"407 822 OFFCURVE",
"401 822 QCURVE SMOOTH",
"111 822 LINE SMOOTH"
);
}
);
width = 512;
},
{
layerId = "38088322-78A3-4F4F-B46E-F8355B0BCD96";
paths = (
{
closed = 1;
nodes = (
"-53 -61 OFFCURVE",
"-125 13 OFFCURVE",
"-125 115 OFFCURVE",
"-53 189 OFFCURVE",
"0 189 QCURVE SMOOTH",
"128 189 LINE SMOOTH",
"181 189 OFFCURVE",
"253 115 OFFCURVE",
"253 13 OFFCURVE",
"181 -61 OFFCURVE",
"128 -61 QCURVE SMOOTH",
"0 -61 LINE SMOOTH"
);
},
{
closed = 1;
nodes = (
"331 -61 OFFCURVE",
"259 13 OFFCURVE",
"259 115 OFFCURVE",
"331 189 OFFCURVE",
"384 189 QCURVE SMOOTH",
"512 189 LINE SMOOTH",
"565 189 OFFCURVE",
"637 115 OFFCURVE",
"637 13 OFFCURVE",
"565 -61 OFFCURVE",
"512 -61 QCURVE SMOOTH",
"384 -61 LINE SMOOTH"
);
},
{
closed = 1;
nodes = (
"-53 67 OFFCURVE",
"-125 141 OFFCURVE",
"-125 243 OFFCURVE",
"-53 317 OFFCURVE",
"0 317 QCURVE SMOOTH",
"128 317 LINE SMOOTH",
"181 317 OFFCURVE",
"253 243 OFFCURVE",
"253 141 OFFCURVE",
"181 67 OFFCURVE",
"128 67 QCURVE SMOOTH",
"0 67 LINE SMOOTH"
);
},
{
closed = 1;
nodes = (
"331 67 OFFCURVE",
"259 141 OFFCURVE",
"259 243 OFFCURVE",
"331 317 OFFCURVE",
"384 317 QCURVE SMOOTH",
"512 317 LINE SMOOTH",
"565 317 OFFCURVE",
"637 243 OFFCURVE",
"637 141 OFFCURVE",
"565 67 OFFCURVE",
"512 67 QCURVE SMOOTH",
"384 67 LINE SMOOTH"
);
},
{
closed = 1;
nodes = (
"19 195 OFFCURVE",
"-61 269 OFFCURVE",
"-61 371 OFFCURVE",
"19 445 OFFCURVE",
"89 445 QCURVE SMOOTH",
"423 445 LINE SMOOTH",
"493 445 OFFCURVE",
"573 371 OFFCURVE",
"573 269 OFFCURVE",
"493 195 OFFCURVE",
"423 195 QCURVE SMOOTH",
"89 195 LINE SMOOTH"
);
},
{
closed = 1;
nodes = (
"11 323 OFFCURVE",
"-61 397 OFFCURVE",
"-61 499 OFFCURVE",
"11 573 OFFCURVE",
"64 573 QCURVE SMOOTH",
"192 573 LINE SMOOTH",
"245 573 OFFCURVE",
"317 499 OFFCURVE",
"317 397 OFFCURVE",
"245 323 OFFCURVE",
"192 323 QCURVE SMOOTH",
"64 323 LINE SMOOTH"
);
},
{
closed = 1;
nodes = (
"267 323 OFFCURVE",
"195 397 OFFCURVE",
"195 499 OFFCURVE",
"267 573 OFFCURVE",
"320 573 QCURVE SMOOTH",
"448 573 LINE SMOOTH",
"501 573 OFFCURVE",
"573 499 OFFCURVE",
"573 397 OFFCURVE",
"501 323 OFFCURVE",
"448 323 QCURVE SMOOTH",
"320 323 LINE SMOOTH"
);
},
{
closed = 1;
nodes = (
"83 451 OFFCURVE",
"3 525 OFFCURVE",
"3 627 OFFCURVE",
"83 701 OFFCURVE",
"153 701 QCURVE SMOOTH",
"359 701 LINE SMOOTH",
"429 701 OFFCURVE",
"509 627 OFFCURVE",
"509 525 OFFCURVE",
"429 451 OFFCURVE",
"359 451 QCURVE SMOOTH",
"153 451 LINE SMOOTH"
);
},
{
closed = 1;
nodes = (
"83 579 OFFCURVE",
"3 653 OFFCURVE",
"3 755 OFFCURVE",
"83 829 OFFCURVE",
"153 829 QCURVE SMOOTH",
"359 829 LINE SMOOTH",
"429 829 OFFCURVE",
"509 755 OFFCURVE",
"509 653 OFFCURVE",
"429 579 OFFCURVE",
"359 579 QCURVE SMOOTH",
"153 579 LINE SMOOTH"
);
},
{
closed = 1;
nodes = (
"139 707 OFFCURVE",
"67 781 OFFCURVE",
"67 883 OFFCURVE",
"139 957 OFFCURVE",
"192 957 QCURVE SMOOTH",
"320 957 LINE SMOOTH",
"373 957 OFFCURVE",
"445 883 OFFCURVE",
"445 781 OFFCURVE",
"373 707 OFFCURVE",
"320 707 QCURVE SMOOTH",
"192 707 LINE SMOOTH"
);
}
);
width = 512;
}
);
unicode = 0041;
},
{
color = 6;
glyphname = Aacute;
lastChange = "2019-07-27 11:38:00 +0000";
layers = (
{
components = (
{
name = A.case;
},
{
name = acute;
transform = "{1, 0, 0, 1, 64, 0}";
}
);
layerId = master01;
width = 512;
},
{
components = (
{
name = A.case;
},
{
name = acute;
transform = "{1, 0, 0, 1, 64, 0}";
}
);
layerId = "EF047752-ED93-49D3-A4D1-D66A6AAE90C7";
width = 512;
},
{
components = (
{
name = A.case;
},
{
name = acute;
transform = "{1, 0, 0, 1, 64, 0}";
}
);
layerId = "164C8123-3F0E-4C99-877D-0E85C432A9CE";
width = 512;
},
{
components = (
{
name = A.case;
},
{
name = acute;
transform = "{1, 0, 0, 1, 64, 0}";
}
);
layerId = "EDC3ADDC-530C-4ECE-AAC6-732B149A8D4A";
width = 512;
},
{
components = (
{
name = A.case;
},
{
name = acute;
transform = "{1, 0, 0, 1, 64, 0}";
}
);
layerId = "38088322-78A3-4F4F-B46E-F8355B0BCD96";
width = 512;
},
{
background = {
paths = (
{
closed = 1;
nodes = (
"128 512 LINE",
"64 512 LINE",
"64 256 LINE",
"0 256 LINE",
"0 0 LINE",
"128 0 LINE",
"128 256 LINE",
"384 256 LINE",
"384 0 LINE",
"512 0 LINE",
"512 256 LINE",
"448 256 LINE",
"448 512 LINE",
"384 512 LINE",
"384 640 LINE",
"256 640 LINE",
"256 768 LINE",
"192 768 LINE",
"192 640 LINE",
"128 640 LINE"
);
},
{
closed = 1;
nodes = (
"256 768 LINE",
"384 768 LINE",
"384 896 LINE",
"256 896 LINE"
);
},
{
closed = 1;
nodes = (
"320 384 LINE",
"192 384 LINE",
"192 512 LINE",
"320 512 LINE"
);
}
);
};
components = (
{
name = A.case;
},
{
name = acute;
transform = "{1, 0, 0, 1, 64, 0}";
}
);
layerId = "968AADD4-6AAB-4A21-B439-CFC52095EED4";
width = 512;
}
);
unicode = 00C1;
},
{
color = 6;
glyphname = Acircumflex;
lastChange = "2019-07-27 11:38:00 +0000";
layers = (
{
components = (
{
name = A.case;
},
{
name = circumflex;
}
);
layerId = master01;
width = 512;
},
{
components = (
{
name = A.case;
},
{
name = circumflex;
}
);
layerId = "EF047752-ED93-49D3-A4D1-D66A6AAE90C7";
width = 512;
},
{
components = (
{
name = A.case;
},
{
name = circumflex;
}
);
layerId = "164C8123-3F0E-4C99-877D-0E85C432A9CE";
width = 512;
},
{
components = (
{
name = A.case;
},
{
name = circumflex;
}
);
layerId = "EDC3ADDC-530C-4ECE-AAC6-732B149A8D4A";
width = 512;
},
{
components = (
{
name = A.case;
},
{
name = circumflex;
}
);
layerId = "38088322-78A3-4F4F-B46E-F8355B0BCD96";
width = 512;
},
{
background = {
paths = (
{
closed = 1;
nodes = (
"192 768 LINE",
"128 768 LINE",
"128 512 LINE",
"64 512 LINE",
"64 256 LINE",
"0 256 LINE",
"0 0 LINE",
"128 0 LINE",
"128 256 LINE",
"384 256 LINE",
"384 0 LINE",
"512 0 LINE",
"512 256 LINE",
"448 256 LINE",
"448 512 LINE",
"384 512 LINE",
"384 768 LINE",
"320 768 LINE",
"320 896 LINE",
"192 896 LINE"
);
},
{
closed = 1;
nodes = (
"320 384 LINE",
"192 384 LINE",
"192 512 LINE",
"320 512 LINE"
);
},
{
closed = 1;
nodes = (
"192 768 LINE",
"320 768 LINE",
"320 640 LINE",
"192 640 LINE"
);
}
);
};
components = (
{
name = A.case;
},
{
name = circumflex;
}
);
layerId = "968AADD4-6AAB-4A21-B439-CFC52095EED4";
width = 512;
}
);
unicode = 00C2;
},
{
glyphname = Adieresis;
lastChange = "2019-07-27 12:32:26 +0000";
layers = (
{
background = {
paths = (
{
closed = 1;
nodes = (
"61 259 LINE",
"61 515 LINE",
"125 515 LINE",
"125 643 LINE",
"189 643 LINE",
"189 771 LINE",
"323 771 LINE",
"323 643 LINE",
"387 643 LINE",
"387 515 LINE",
"451 515 LINE",
"451 259 LINE",
"515 259 LINE",
"515 -3 LINE",
"381 -3 LINE",
"381 253 LINE",
"131 253 LINE",
"131 -3 LINE",
"-3 -3 LINE",
"-3 259 LINE"
);
},
{
closed = 1;
nodes = (
"131 899 LINE",
"131 765 LINE",
"-3 765 LINE",
"-3 899 LINE"
);
},
{
closed = 1;
nodes = (
"515 899 LINE",
"515 765 LINE",
"381 765 LINE",
"381 899 LINE"
);
},
{
closed = 1;
nodes = (
"317 387 LINE",
"317 509 LINE",
"195 509 LINE",
"195 387 LINE"
);
}
);
};
layerId = master01;
paths = (
{
closed = 0;
nodes = (
"-3 64 LINE",
"131 64 LINE"
);
},
{
closed = 0;
nodes = (
"381 64 LINE",
"515 64 LINE"
);
},
{
closed = 0;
nodes = (
"-3 192 LINE",
"131 192 LINE"
);
},
{
closed = 0;
nodes = (
"381 192 LINE",
"515 192 LINE"
);
},
{
closed = 0;
nodes = (
"61 320 LINE",
"451 320 LINE"
);
},
{
closed = 0;
nodes = (
"61 448 LINE",
"195 448 LINE"
);
},
{
closed = 0;
nodes = (
"317 448 LINE",
"451 448 LINE"
);
},
{
closed = 0;
nodes = (
"125 576 LINE",
"387 576 LINE"
);
},
{
closed = 0;
nodes = (
"189 704 LINE",
"323 704 LINE"
);
},
{
closed = 0;
nodes = (
"-3 832 LINE",
"131 832 LINE"
);
},
{
closed = 0;
nodes = (
"381 832 LINE",
"515 832 LINE"
);
}
);
userData = {
com.typemytype.robofont.mark = (
0.656,
1,
0.6,
1
);
};
width = 512;
},
{
layerId = "968AADD4-6AAB-4A21-B439-CFC52095EED4";
paths = (
{
closed = 1;
nodes = (
"61 259 LINE",
"61 515 LINE",
"125 515 LINE",
"125 643 LINE",
"189 643 LINE",
"189 771 LINE",
"323 771 LINE",
"323 643 LINE",
"387 643 LINE",
"387 515 LINE",
"451 515 LINE",
"451 259 LINE",
"515 259 LINE",
"515 -3 LINE",
"381 -3 LINE",
"381 253 LINE",
"131 253 LINE",
"131 -3 LINE",
"-3 -3 LINE",
"-3 259 LINE"
);
},
{
closed = 1;
nodes = (
"131 899 LINE",
"131 765 LINE",
"-3 765 LINE",
"-3 899 LINE"
);
},
{
closed = 1;
nodes = (
"515 899 LINE",
"515 765 LINE",
"381 765 LINE",
"381 899 LINE"
);
},
{
closed = 1;
nodes = (
"317 387 LINE",
"317 509 LINE",
"195 509 LINE",
"195 387 LINE"
);
}
);
userData = {
com.typemytype.robofont.mark = (
0.656,
1,
0.6,
1
);
};
width = 512;
},
{
layerId = "EF047752-ED93-49D3-A4D1-D66A6AAE90C7";
paths = (
{
closed = 1;
nodes = (
"1 54 OFFCURVE",
"-5 60 OFFCURVE",
"-5 68 OFFCURVE",
"1 74 OFFCURVE",
"7 74 QCURVE SMOOTH",
"121 74 LINE SMOOTH",
"127 74 OFFCURVE",
"133 68 OFFCURVE",
"133 60 OFFCURVE",
"127 54 OFFCURVE",
"121 54 QCURVE SMOOTH",
"7 54 LINE SMOOTH"
);
},
{
closed = 1;
nodes = (
"385 54 OFFCURVE",
"379 60 OFFCURVE",
"379 68 OFFCURVE",
"385 74 OFFCURVE",
"391 74 QCURVE SMOOTH",
"505 74 LINE SMOOTH",
"511 74 OFFCURVE",
"517 68 OFFCURVE",
"517 60 OFFCURVE",
"511 54 OFFCURVE",
"505 54 QCURVE SMOOTH",
"391 54 LINE SMOOTH"
);
},
{
closed = 1;
nodes = (
"1 182 OFFCURVE",
"-5 188 OFFCURVE",
"-5 196 OFFCURVE",
"1 202 OFFCURVE",
"7 202 QCURVE SMOOTH",
"121 202 LINE SMOOTH",
"127 202 OFFCURVE",
"133 196 OFFCURVE",
"133 188 OFFCURVE",
"127 182 OFFCURVE",
"121 182 QCURVE SMOOTH",
"7 182 LINE SMOOTH"
);
},
{
closed = 1;
nodes = (
"385 182 OFFCURVE",
"379 188 OFFCURVE",
"379 196 OFFCURVE",
"385 202 OFFCURVE",
"391 202 QCURVE SMOOTH",
"505 202 LINE SMOOTH",
"511 202 OFFCURVE",
"517 196 OFFCURVE",
"517 188 OFFCURVE",
"511 182 OFFCURVE",
"505 182 QCURVE SMOOTH",
"391 182 LINE SMOOTH"
);
},
{
closed = 1;
nodes = (
"65 310 OFFCURVE",
"59 316 OFFCURVE",
"59 324 OFFCURVE",
"65 330 OFFCURVE",
"71 330 QCURVE SMOOTH",
"441 330 LINE SMOOTH",
"447 330 OFFCURVE",
"453 324 OFFCURVE",
"453 316 OFFCURVE",
"447 310 OFFCURVE",
"441 310 QCURVE SMOOTH",
"71 310 LINE SMOOTH"
);
},
{
closed = 1;
nodes = (
"65 438 OFFCURVE",
"59 444 OFFCURVE",
"59 452 OFFCURVE",
"65 458 OFFCURVE",
"71 458 QCURVE SMOOTH",
"185 458 LINE SMOOTH",
"191 458 OFFCURVE",
"197 452 OFFCURVE",
"197 444 OFFCURVE",
"191 438 OFFCURVE",
"185 438 QCURVE SMOOTH",
"71 438 LINE SMOOTH"
);
},
{
closed = 1;
nodes = (
"321 438 OFFCURVE",
"315 444 OFFCURVE",
"315 452 OFFCURVE",
"321 458 OFFCURVE",
"327 458 QCURVE SMOOTH",
"441 458 LINE SMOOTH",
"447 458 OFFCURVE",
"453 452 OFFCURVE",
"453 444 OFFCURVE",
"447 438 OFFCURVE",
"441 438 QCURVE SMOOTH",
"327 438 LINE SMOOTH"
);
},
{
closed = 1;
nodes = (
"129 566 OFFCURVE",
"123 572 OFFCURVE",
"123 580 OFFCURVE",
"129 586 OFFCURVE",
"135 586 QCURVE SMOOTH",
"377 586 LINE SMOOTH",
"383 586 OFFCURVE",
"389 580 OFFCURVE",
"389 572 OFFCURVE",
"383 566 OFFCURVE",
"377 566 QCURVE SMOOTH",
"135 566 LINE SMOOTH"
);
},
{
closed = 1;
nodes = (
"193 694 OFFCURVE",
"187 700 OFFCURVE",
"187 708 OFFCURVE",
"193 714 OFFCURVE",
"199 714 QCURVE SMOOTH",
"313 714 LINE SMOOTH",
"319 714 OFFCURVE",
"325 708 OFFCURVE",
"325 700 OFFCURVE",
"319 694 OFFCURVE",
"313 694 QCURVE SMOOTH",
"199 694 LINE SMOOTH"
);
},
{
closed = 1;
nodes = (
"1 822 OFFCURVE",
"-5 828 OFFCURVE",
"-5 836 OFFCURVE",
"1 842 OFFCURVE",
"7 842 QCURVE SMOOTH",
"121 842 LINE SMOOTH",
"127 842 OFFCURVE",
"133 836 OFFCURVE",
"133 828 OFFCURVE",
"127 822 OFFCURVE",
"121 822 QCURVE SMOOTH",
"7 822 LINE SMOOTH"
);
},
{
closed = 1;
nodes = (
"385 822 OFFCURVE",
"379 828 OFFCURVE",
"379 836 OFFCURVE",
"385 842 OFFCURVE",
"391 842 QCURVE SMOOTH",
"505 842 LINE SMOOTH",
"511 842 OFFCURVE",
"517 836 OFFCURVE",
"517 828 OFFCURVE",
"511 822 OFFCURVE",
"505 822 QCURVE SMOOTH",
"391 822 LINE SMOOTH"
);
}
);
width = 512;
},
{
layerId = "164C8123-3F0E-4C99-877D-0E85C432A9CE";
paths = (
{
closed = 1;
nodes = (
"9 -61 OFFCURVE",
"-63 13 OFFCURVE",
"-63 115 OFFCURVE",
"9 189 OFFCURVE",
"62 189 QCURVE SMOOTH",
"66 189 LINE SMOOTH",
"119 189 OFFCURVE",
"191 115 OFFCURVE",
"191 13 OFFCURVE",
"119 -61 OFFCURVE",
"66 -61 QCURVE SMOOTH",
"62 -61 LINE SMOOTH"
);
},
{
closed = 1;
nodes = (
"393 -61 OFFCURVE",
"321 13 OFFCURVE",
"321 115 OFFCURVE",
"393 189 OFFCURVE",
"446 189 QCURVE SMOOTH",
"450 189 LINE SMOOTH",
"503 189 OFFCURVE",
"575 115 OFFCURVE",
"575 13 OFFCURVE",
"503 -61 OFFCURVE",
"450 -61 QCURVE SMOOTH",
"446 -61 LINE SMOOTH"
);
},
{
closed = 1;
nodes = (
"9 67 OFFCURVE",
"-63 141 OFFCURVE",
"-63 243 OFFCURVE",
"9 317 OFFCURVE",
"62 317 QCURVE SMOOTH",
"66 317 LINE SMOOTH",
"119 317 OFFCURVE",
"191 243 OFFCURVE",
"191 141 OFFCURVE",
"119 67 OFFCURVE",
"66 67 QCURVE SMOOTH",
"62 67 LINE SMOOTH"
);
},
{
closed = 1;
nodes = (
"393 67 OFFCURVE",
"321 141 OFFCURVE",
"321 243 OFFCURVE",
"393 317 OFFCURVE",
"446 317 QCURVE SMOOTH",
"450 317 LINE SMOOTH",
"503 317 OFFCURVE",
"575 243 OFFCURVE",
"575 141 OFFCURVE",
"503 67 OFFCURVE",
"450 67 QCURVE SMOOTH",
"446 67 LINE SMOOTH"
);
},
{
closed = 1;
nodes = (
"81 195 OFFCURVE",
"1 269 OFFCURVE",
"1 371 OFFCURVE",
"81 445 OFFCURVE",
"151 445 QCURVE SMOOTH",
"361 445 LINE SMOOTH",
"431 445 OFFCURVE",
"511 371 OFFCURVE",
"511 269 OFFCURVE",
"431 195 OFFCURVE",
"361 195 QCURVE SMOOTH",
"151 195 LINE SMOOTH"
);
},
{
closed = 1;
nodes = (
"73 323 OFFCURVE",
"1 397 OFFCURVE",
"1 499 OFFCURVE",
"73 573 OFFCURVE",
"126 573 QCURVE SMOOTH",
"130 573 LINE SMOOTH",
"183 573 OFFCURVE",
"255 499 OFFCURVE",
"255 397 OFFCURVE",
"183 323 OFFCURVE",
"130 323 QCURVE SMOOTH",
"126 323 LINE SMOOTH"
);
},
{
closed = 1;
nodes = (
"329 323 OFFCURVE",
"257 397 OFFCURVE",
"257 499 OFFCURVE",
"329 573 OFFCURVE",
"382 573 QCURVE SMOOTH",
"386 573 LINE SMOOTH",
"439 573 OFFCURVE",
"511 499 OFFCURVE",
"511 397 OFFCURVE",
"439 323 OFFCURVE",
"386 323 QCURVE SMOOTH",
"382 323 LINE SMOOTH"
);
},
{
closed = 1;
nodes = (
"145 451 OFFCURVE",
"65 525 OFFCURVE",
"65 627 OFFCURVE",
"145 701 OFFCURVE",
"215 701 QCURVE SMOOTH",
"297 701 LINE SMOOTH",
"367 701 OFFCURVE",
"447 627 OFFCURVE",
"447 525 OFFCURVE",
"367 451 OFFCURVE",
"297 451 QCURVE SMOOTH",
"215 451 LINE SMOOTH"
);
},
{
closed = 1;
nodes = (
"201 579 OFFCURVE",
"129 653 OFFCURVE",
"129 755 OFFCURVE",
"201 829 OFFCURVE",
"254 829 QCURVE SMOOTH",
"258 829 LINE SMOOTH",
"311 829 OFFCURVE",
"383 755 OFFCURVE",
"383 653 OFFCURVE",
"311 579 OFFCURVE",
"258 579 QCURVE SMOOTH",
"254 579 LINE SMOOTH"
);
},
{
closed = 1;
nodes = (
"9 707 OFFCURVE",
"-63 781 OFFCURVE",
"-63 883 OFFCURVE",
"9 957 OFFCURVE",
"62 957 QCURVE SMOOTH",
"66 957 LINE SMOOTH",
"119 957 OFFCURVE",
"191 883 OFFCURVE",
"191 781 OFFCURVE",
"119 707 OFFCURVE",
"66 707 QCURVE SMOOTH",
"62 707 LINE SMOOTH"
);
},
{
closed = 1;
nodes = (
"393 707 OFFCURVE",
"321 781 OFFCURVE",
"321 883 OFFCURVE",
"393 957 OFFCURVE",
"446 957 QCURVE SMOOTH",
"450 957 LINE SMOOTH",
"503 957 OFFCURVE",
"575 883 OFFCURVE",
"575 781 OFFCURVE",
"503 707 OFFCURVE",
"450 707 QCURVE SMOOTH",
"446 707 LINE SMOOTH"
);
}
);
width = 512;
},
{
layerId = "EDC3ADDC-530C-4ECE-AAC6-732B149A8D4A";
paths = (
{
closed = 1;
nodes = (
"-87 54 OFFCURVE",
"-93 60 OFFCURVE",
"-93 68 OFFCURVE",
"-87 74 OFFCURVE",
"-81 74 QCURVE SMOOTH",
"209 74 LINE SMOOTH",
"215 74 OFFCURVE",
"221 68 OFFCURVE",
"221 60 OFFCURVE",
"215 54 OFFCURVE",
"209 54 QCURVE SMOOTH",
"-81 54 LINE SMOOTH"
);
},
{
closed = 1;
nodes = (
"297 54 OFFCURVE",
"291 60 OFFCURVE",
"291 68 OFFCURVE",
"297 74 OFFCURVE",
"303 74 QCURVE SMOOTH",
"593 74 LINE SMOOTH",
"599 74 OFFCURVE",
"605 68 OFFCURVE",
"605 60 OFFCURVE",
"599 54 OFFCURVE",
"593 54 QCURVE SMOOTH",
"303 54 LINE SMOOTH"
);
},
{
closed = 1;
nodes = (
"-87 182 OFFCURVE",
"-93 188 OFFCURVE",
"-93 196 OFFCURVE",
"-87 202 OFFCURVE",
"-81 202 QCURVE SMOOTH",
"209 202 LINE SMOOTH",
"215 202 OFFCURVE",
"221 196 OFFCURVE",
"221 188 OFFCURVE",
"215 182 OFFCURVE",
"209 182 QCURVE SMOOTH",
"-81 182 LINE SMOOTH"
);
},
{
closed = 1;
nodes = (
"297 182 OFFCURVE",
"291 188 OFFCURVE",
"291 196 OFFCURVE",
"297 202 OFFCURVE",
"303 202 QCURVE SMOOTH",
"593 202 LINE SMOOTH",
"599 202 OFFCURVE",
"605 196 OFFCURVE",
"605 188 OFFCURVE",
"599 182 OFFCURVE",
"593 182 QCURVE SMOOTH",
"303 182 LINE SMOOTH"
);
},
{
closed = 1;
nodes = (
"-23 310 OFFCURVE",
"-29 316 OFFCURVE",
"-29 324 OFFCURVE",
"-23 330 OFFCURVE",
"-17 330 QCURVE SMOOTH",
"529 330 LINE SMOOTH",
"535 330 OFFCURVE",
"541 324 OFFCURVE",
"541 316 OFFCURVE",
"535 310 OFFCURVE",
"529 310 QCURVE SMOOTH",
"-17 310 LINE SMOOTH"
);
},
{
closed = 1;
nodes = (
"-23 438 OFFCURVE",
"-29 444 OFFCURVE",
"-29 452 OFFCURVE",
"-23 458 OFFCURVE",
"-17 458 QCURVE SMOOTH",
"273 458 LINE SMOOTH",
"279 458 OFFCURVE",
"285 452 OFFCURVE",
"285 444 OFFCURVE",
"279 438 OFFCURVE",
"273 438 QCURVE SMOOTH",
"-17 438 LINE SMOOTH"
);
},
{
closed = 1;
nodes = (
"233 438 OFFCURVE",
"227 444 OFFCURVE",
"227 452 OFFCURVE",
"233 458 OFFCURVE",
"239 458 QCURVE SMOOTH",
"529 458 LINE SMOOTH",
"535 458 OFFCURVE",
"541 452 OFFCURVE",
"541 444 OFFCURVE",
"535 438 OFFCURVE",
"529 438 QCURVE SMOOTH",
"239 438 LINE SMOOTH"
);
},
{
closed = 1;
nodes = (
"41 566 OFFCURVE",
"35 572 OFFCURVE",
"35 580 OFFCURVE",
"41 586 OFFCURVE",
"47 586 QCURVE SMOOTH",
"465 586 LINE SMOOTH",
"471 586 OFFCURVE",
"477 580 OFFCURVE",
"477 572 OFFCURVE",
"471 566 OFFCURVE",
"465 566 QCURVE SMOOTH",
"47 566 LINE SMOOTH"
);
},
{
closed = 1;
nodes = (
"105 694 OFFCURVE",
"99 700 OFFCURVE",
"99 708 OFFCURVE",
"105 714 OFFCURVE",
"111 714 QCURVE SMOOTH",
"401 714 LINE SMOOTH",
"407 714 OFFCURVE",
"413 708 OFFCURVE",
"413 700 OFFCURVE",
"407 694 OFFCURVE",
"401 694 QCURVE SMOOTH",
"111 694 LINE SMOOTH"
);
},
{
closed = 1;
nodes = (
"-87 822 OFFCURVE",
"-93 828 OFFCURVE",
"-93 836 OFFCURVE",
"-87 842 OFFCURVE",
"-81 842 QCURVE SMOOTH",
"209 842 LINE SMOOTH",
"215 842 OFFCURVE",
"221 836 OFFCURVE",
"221 828 OFFCURVE",
"215 822 OFFCURVE",
"209 822 QCURVE SMOOTH",
"-81 822 LINE SMOOTH"
);
},
{
closed = 1;
nodes = (
"297 822 OFFCURVE",
"291 828 OFFCURVE",
"291 836 OFFCURVE",
"297 842 OFFCURVE",
"303 842 QCURVE SMOOTH",
"593 842 LINE SMOOTH",
"599 842 OFFCURVE",
"605 836 OFFCURVE",
"605 828 OFFCURVE",
"599 822 OFFCURVE",
"593 822 QCURVE SMOOTH",
"303 822 LINE SMOOTH"
);
}
);
width = 512;
},
{
layerId = "38088322-78A3-4F4F-B46E-F8355B0BCD96";
paths = (
{
closed = 1;
nodes = (
"-53 -61 OFFCURVE",
"-125 13 OFFCURVE",
"-125 115 OFFCURVE",
"-53 189 OFFCURVE",
"0 189 QCURVE SMOOTH",
"128 189 LINE SMOOTH",
"181 189 OFFCURVE",
"253 115 OFFCURVE",
"253 13 OFFCURVE",
"181 -61 OFFCURVE",
"128 -61 QCURVE SMOOTH",
"0 -61 LINE SMOOTH"
);
},
{
closed = 1;
nodes = (
"331 -61 OFFCURVE",
"259 13 OFFCURVE",
"259 115 OFFCURVE",
"331 189 OFFCURVE",
"384 189 QCURVE SMOOTH",
"512 189 LINE SMOOTH",
"565 189 OFFCURVE",
"637 115 OFFCURVE",
"637 13 OFFCURVE",
"565 -61 OFFCURVE",
"512 -61 QCURVE SMOOTH",
"384 -61 LINE SMOOTH"
);
},
{
closed = 1;
nodes = (
"-53 67 OFFCURVE",
"-125 141 OFFCURVE",
"-125 243 OFFCURVE",
"-53 317 OFFCURVE",
"0 317 QCURVE SMOOTH",
"128 317 LINE SMOOTH",
"181 317 OFFCURVE",
"253 243 OFFCURVE",
"253 141 OFFCURVE",
"181 67 OFFCURVE",
"128 67 QCURVE SMOOTH",
"0 67 LINE SMOOTH"
);
},
{
closed = 1;
nodes = (
"331 67 OFFCURVE",
"259 141 OFFCURVE",
"259 243 OFFCURVE",
"331 317 OFFCURVE",
"384 317 QCURVE SMOOTH",
"512 317 LINE SMOOTH",
"565 317 OFFCURVE",
"637 243 OFFCURVE",
"637 141 OFFCURVE",
"565 67 OFFCURVE",
"512 67 QCURVE SMOOTH",
"384 67 LINE SMOOTH"
);
},
{
closed = 1;
nodes = (
"19 195 OFFCURVE",
"-61 269 OFFCURVE",
"-61 371 OFFCURVE",
"19 445 OFFCURVE",
"89 445 QCURVE SMOOTH",
"423 445 LINE SMOOTH",
"493 445 OFFCURVE",
"573 371 OFFCURVE",
"573 269 OFFCURVE",
"493 195 OFFCURVE",
"423 195 QCURVE SMOOTH",
"89 195 LINE SMOOTH"
);
},
{
closed = 1;
nodes = (
"11 323 OFFCURVE",
"-61 397 OFFCURVE",
"-61 499 OFFCURVE",
"11 573 OFFCURVE",
"64 573 QCURVE SMOOTH",
"192 573 LINE SMOOTH",
"245 573 OFFCURVE",
"317 499 OFFCURVE",
"317 397 OFFCURVE",
"245 323 OFFCURVE",
"192 323 QCURVE SMOOTH",
"64 323 LINE SMOOTH"
);
},
{
closed = 1;
nodes = (
"267 323 OFFCURVE",
"195 397 OFFCURVE",
"195 499 OFFCURVE",
"267 573 OFFCURVE",
"320 573 QCURVE SMOOTH",
"448 573 LINE SMOOTH",
"501 573 OFFCURVE",
"573 499 OFFCURVE",
"573 397 OFFCURVE",
"501 323 OFFCURVE",
"448 323 QCURVE SMOOTH",
"320 323 LINE SMOOTH"
);
},
{
closed = 1;
nodes = (
"83 451 OFFCURVE",
"3 525 OFFCURVE",
"3 627 OFFCURVE",
"83 701 OFFCURVE",
"153 701 QCURVE SMOOTH",
"359 701 LINE SMOOTH",
"429 701 OFFCURVE",
"509 627 OFFCURVE",
"509 525 OFFCURVE",
"429 451 OFFCURVE",
"359 451 QCURVE SMOOTH",
"153 451 LINE SMOOTH"
);
},
{
closed = 1;
nodes = (
"139 579 OFFCURVE",
"67 653 OFFCURVE",
"67 755 OFFCURVE",
"139 829 OFFCURVE",
"192 829 QCURVE SMOOTH",
"320 829 LINE SMOOTH",
"373 829 OFFCURVE",
"445 755 OFFCURVE",
"445 653 OFFCURVE",
"373 579 OFFCURVE",
"320 579 QCURVE SMOOTH",
"192 579 LINE SMOOTH"
);
},
{
closed = 1;
nodes = (
"-53 707 OFFCURVE",
"-125 781 OFFCURVE",
"-125 883 OFFCURVE",
"-53 957 OFFCURVE",
"0 957 QCURVE SMOOTH",
"128 957 LINE SMOOTH",
"181 957 OFFCURVE",
"253 883 OFFCURVE",
"253 781 OFFCURVE",
"181 707 OFFCURVE",
"128 707 QCURVE SMOOTH",
"0 707 LINE SMOOTH"
);
},
{
closed = 1;
nodes = (
"331 707 OFFCURVE",
"259 781 OFFCURVE",
"259 883 OFFCURVE",
"331 957 OFFCURVE",
"384 957 QCURVE SMOOTH",
"512 957 LINE SMOOTH",
"565 957 OFFCURVE",
"637 883 OFFCURVE",
"637 781 OFFCURVE",
"565 707 OFFCURVE",
"512 707 QCURVE SMOOTH",
"384 707 LINE SMOOTH"
);
}
);
width = 512;
}
);
unicode = 00C4;
},
{
color = 6;
glyphname = Agrave;
lastChange = "2019-07-27 11:38:00 +0000";
layers = (
{
components = (
{
name = A.case;
},
{
name = grave;
transform = "{1, 0, 0, 1, -64, 0}";
}
);
layerId = master01;
width = 512;
},
{
components = (
{
name = A.case;
},
{
name = grave;
transform = "{1, 0, 0, 1, -64, 0}";
}
);
layerId = "EF047752-ED93-49D3-A4D1-D66A6AAE90C7";
width = 512;
},
{
components = (
{
name = A.case;
},
{
name = grave;
transform = "{1, 0, 0, 1, -64, 0}";
}
);
layerId = "164C8123-3F0E-4C99-877D-0E85C432A9CE";
width = 512;
},
{
components = (
{
name = A.case;
},
{
name = grave;
transform = "{1, 0, 0, 1, -64, 0}";
}
);
layerId = "EDC3ADDC-530C-4ECE-AAC6-732B149A8D4A";
width = 512;
},
{
components = (
{
name = A.case;
},
{
name = grave;
transform = "{1, 0, 0, 1, -64, 0}";
}
);
layerId = "38088322-78A3-4F4F-B46E-F8355B0BCD96";
width = 512;
},
{
background = {
paths = (
{
closed = 1;
nodes = (
"128 768 LINE",
"256 768 LINE",
"256 640 LINE",
"128 640 LINE",
"128 512 LINE",
"64 512 LINE",
"64 256 LINE",
"0 256 LINE",
"0 0 LINE",
"128 0 LINE",
"128 256 LINE",
"384 256 LINE",
"384 0 LINE",
"512 0 LINE",
"512 256 LINE",
"448 256 LINE",
"448 512 LINE",
"384 512 LINE",
"384 640 LINE",
"320 640 LINE",
"320 768 LINE",
"256 768 LINE",
"256 896 LINE",
"128 896 LINE"
);
},
{
closed = 1;
nodes = (
"320 384 LINE",
"192 384 LINE",
"192 512 LINE",
"320 512 LINE"
);
}
);
};
components = (
{
name = A.case;
},
{
name = grave;
transform = "{1, 0, 0, 1, -64, 0}";
}
);
layerId = "968AADD4-6AAB-4A21-B439-CFC52095EED4";
width = 512;
}
);
unicode = 00C0;
},
{
glyphname = Aring;
lastChange = "2019-07-27 12:32:26 +0000";
layers = (
{
background = {
paths = (
{
closed = 1;
nodes = (
"61 259 LINE",
"61 515 LINE",
"125 515 LINE",
"125 637 LINE",
"61 637 LINE",
"61 771 LINE",
"125 771 LINE",
"125 899 LINE",
"387 899 LINE",
"387 771 LINE",
"451 771 LINE",
"451 637 LINE",
"387 637 LINE",
"387 515 LINE",
"451 515 LINE",
"451 259 LINE",
"515 259 LINE",
"515 -3 LINE",
"381 -3 LINE",
"381 253 LINE",
"131 253 LINE",
"131 -3 LINE",
"-3 -3 LINE",
"-3 259 LINE"
);
},
{
closed = 1;
nodes = (
"317 387 LINE",
"317 509 LINE",
"195 509 LINE",
"195 387 LINE"
);
},
{
closed = 1;
nodes = (
"317 643 LINE",
"317 765 LINE",
"195 765 LINE",
"195 643 LINE"
);
}
);
};
layerId = master01;
paths = (
{
closed = 0;
nodes = (
"-3 64 LINE",
"131 64 LINE"
);
},
{
closed = 0;
nodes = (
"381 64 LINE",
"515 64 LINE"
);
},
{
closed = 0;
nodes = (
"-3 192 LINE",
"131 192 LINE"
);
},
{
closed = 0;
nodes = (
"381 192 LINE",
"515 192 LINE"
);
},
{
closed = 0;
nodes = (
"61 320 LINE",
"451 320 LINE"
);
},
{
closed = 0;
nodes = (
"61 448 LINE",
"195 448 LINE"
);
},
{
closed = 0;
nodes = (
"317 448 LINE",
"451 448 LINE"
);
},
{
closed = 0;
nodes = (
"125 576 LINE",
"387 576 LINE"
);
},
{
closed = 0;
nodes = (
"61 704 LINE",
"195 704 LINE"
);
},
{
closed = 0;
nodes = (
"317 704 LINE",
"451 704 LINE"
);
},
{
closed = 0;
nodes = (
"125 832 LINE",
"387 832 LINE"
);
}
);
userData = {
com.typemytype.robofont.mark = (
0.656,
1,
0.6,
1
);
};
width = 512;
},
{
layerId = "968AADD4-6AAB-4A21-B439-CFC52095EED4";
paths = (
{
closed = 1;
nodes = (
"61 259 LINE",
"61 515 LINE",
"125 515 LINE",
"125 637 LINE",
"61 637 LINE",
"61 771 LINE",
"125 771 LINE",
"125 899 LINE",
"387 899 LINE",
"387 771 LINE",
"451 771 LINE",
"451 637 LINE",
"387 637 LINE",
"387 515 LINE",
"451 515 LINE",
"451 259 LINE",
"515 259 LINE",
"515 -3 LINE",
"381 -3 LINE",
"381 253 LINE",
"131 253 LINE",
"131 -3 LINE",
"-3 -3 LINE",
"-3 259 LINE"
);
},
{
closed = 1;
nodes = (
"317 387 LINE",
"317 509 LINE",
"195 509 LINE",
"195 387 LINE"
);
},
{
closed = 1;
nodes = (
"317 643 LINE",
"317 765 LINE",
"195 765 LINE",
"195 643 LINE"
);
}
);
userData = {
com.typemytype.robofont.mark = (
0.656,
1,
0.6,
1
);
};
width = 512;
},
{
layerId = "EF047752-ED93-49D3-A4D1-D66A6AAE90C7";
paths = (
{
closed = 1;
nodes = (
"1 54 OFFCURVE",
"-5 60 OFFCURVE",
"-5 68 OFFCURVE",
"1 74 OFFCURVE",
"7 74 QCURVE SMOOTH",
"121 74 LINE SMOOTH",
"127 74 OFFCURVE",
"133 68 OFFCURVE",
"133 60 OFFCURVE",
"127 54 OFFCURVE",
"121 54 QCURVE SMOOTH",
"7 54 LINE SMOOTH"
);
},
{
closed = 1;
nodes = (
"385 54 OFFCURVE",
"379 60 OFFCURVE",
"379 68 OFFCURVE",
"385 74 OFFCURVE",
"391 74 QCURVE SMOOTH",
"505 74 LINE SMOOTH",
"511 74 OFFCURVE",
"517 68 OFFCURVE",
"517 60 OFFCURVE",
"511 54 OFFCURVE",
"505 54 QCURVE SMOOTH",
"391 54 LINE SMOOTH"
);
},
{
closed = 1;
nodes = (
"1 182 OFFCURVE",
"-5 188 OFFCURVE",
"-5 196 OFFCURVE",
"1 202 OFFCURVE",
"7 202 QCURVE SMOOTH",
"121 202 LINE SMOOTH",
"127 202 OFFCURVE",
"133 196 OFFCURVE",
"133 188 OFFCURVE",
"127 182 OFFCURVE",
"121 182 QCURVE SMOOTH",
"7 182 LINE SMOOTH"
);
},
{
closed = 1;
nodes = (
"385 182 OFFCURVE",
"379 188 OFFCURVE",
"379 196 OFFCURVE",
"385 202 OFFCURVE",
"391 202 QCURVE SMOOTH",
"505 202 LINE SMOOTH",
"511 202 OFFCURVE",
"517 196 OFFCURVE",
"517 188 OFFCURVE",
"511 182 OFFCURVE",
"505 182 QCURVE SMOOTH",
"391 182 LINE SMOOTH"
);
},
{
closed = 1;
nodes = (
"65 310 OFFCURVE",
"59 316 OFFCURVE",
"59 324 OFFCURVE",
"65 330 OFFCURVE",
"71 330 QCURVE SMOOTH",
"441 330 LINE SMOOTH",
"447 330 OFFCURVE",
"453 324 OFFCURVE",
"453 316 OFFCURVE",
"447 310 OFFCURVE",
"441 310 QCURVE SMOOTH",
"71 310 LINE SMOOTH"
);
},
{
closed = 1;
nodes = (
"65 438 OFFCURVE",
"59 444 OFFCURVE",
"59 452 OFFCURVE",
"65 458 OFFCURVE",
"71 458 QCURVE SMOOTH",
"185 458 LINE SMOOTH",
"191 458 OFFCURVE",
"197 452 OFFCURVE",
"197 444 OFFCURVE",
"191 438 OFFCURVE",
"185 438 QCURVE SMOOTH",
"71 438 LINE SMOOTH"
);
},
{
closed = 1;
nodes = (
"321 438 OFFCURVE",
"315 444 OFFCURVE",
"315 452 OFFCURVE",
"321 458 OFFCURVE",
"327 458 QCURVE SMOOTH",
"441 458 LINE SMOOTH",
"447 458 OFFCURVE",
"453 452 OFFCURVE",
"453 444 OFFCURVE",
"447 438 OFFCURVE",
"441 438 QCURVE SMOOTH",
"327 438 LINE SMOOTH"
);
},
{
closed = 1;
nodes = (
"129 566 OFFCURVE",
"123 572 OFFCURVE",
"123 580 OFFCURVE",
"129 586 OFFCURVE",
"135 586 QCURVE SMOOTH",
"377 586 LINE SMOOTH",
"383 586 OFFCURVE",
"389 580 OFFCURVE",
"389 572 OFFCURVE",
"383 566 OFFCURVE",
"377 566 QCURVE SMOOTH",
"135 566 LINE SMOOTH"
);
},
{
closed = 1;
nodes = (
"65 694 OFFCURVE",
"59 700 OFFCURVE",
"59 708 OFFCURVE",
"65 714 OFFCURVE",
"71 714 QCURVE SMOOTH",
"185 714 LINE SMOOTH",
"191 714 OFFCURVE",
"197 708 OFFCURVE",
"197 700 OFFCURVE",
"191 694 OFFCURVE",
"185 694 QCURVE SMOOTH",
"71 694 LINE SMOOTH"
);
},
{
closed = 1;
nodes = (
"321 694 OFFCURVE",
"315 700 OFFCURVE",
"315 708 OFFCURVE",
"321 714 OFFCURVE",
"327 714 QCURVE SMOOTH",
"441 714 LINE SMOOTH",
"447 714 OFFCURVE",
"453 708 OFFCURVE",
"453 700 OFFCURVE",
"447 694 OFFCURVE",
"441 694 QCURVE SMOOTH",
"327 694 LINE SMOOTH"
);
},
{
closed = 1;
nodes = (
"129 822 OFFCURVE",
"123 828 OFFCURVE",
"123 836 OFFCURVE",
"129 842 OFFCURVE",
"135 842 QCURVE SMOOTH",
"377 842 LINE SMOOTH",
"383 842 OFFCURVE",
"389 836 OFFCURVE",
"389 828 OFFCURVE",
"383 822 OFFCURVE",
"377 822 QCURVE SMOOTH",
"135 822 LINE SMOOTH"
);
}
);
width = 512;
},
{
layerId = "164C8123-3F0E-4C99-877D-0E85C432A9CE";
paths = (
{
closed = 1;
nodes = (
"9 -61 OFFCURVE",
"-63 13 OFFCURVE",
"-63 115 OFFCURVE",
"9 189 OFFCURVE",
"62 189 QCURVE SMOOTH",
"66 189 LINE SMOOTH",
"119 189 OFFCURVE",
"191 115 OFFCURVE",
"191 13 OFFCURVE",
"119 -61 OFFCURVE",
"66 -61 QCURVE SMOOTH",
"62 -61 LINE SMOOTH"
);
},
{
closed = 1;
nodes = (
"393 -61 OFFCURVE",
"321 13 OFFCURVE",
"321 115 OFFCURVE",
"393 189 OFFCURVE",
"446 189 QCURVE SMOOTH",
"450 189 LINE SMOOTH",
"503 189 OFFCURVE",
"575 115 OFFCURVE",
"575 13 OFFCURVE",
"503 -61 OFFCURVE",
"450 -61 QCURVE SMOOTH",
"446 -61 LINE SMOOTH"
);
},
{
closed = 1;
nodes = (
"9 67 OFFCURVE",
"-63 141 OFFCURVE",
"-63 243 OFFCURVE",
"9 317 OFFCURVE",
"62 317 QCURVE SMOOTH",
"66 317 LINE SMOOTH",
"119 317 OFFCURVE",
"191 243 OFFCURVE",
"191 141 OFFCURVE",
"119 67 OFFCURVE",
"66 67 QCURVE SMOOTH",
"62 67 LINE SMOOTH"
);
},
{
closed = 1;
nodes = (
"393 67 OFFCURVE",
"321 141 OFFCURVE",
"321 243 OFFCURVE",
"393 317 OFFCURVE",
"446 317 QCURVE SMOOTH",
"450 317 LINE SMOOTH",
"503 317 OFFCURVE",
"575 243 OFFCURVE",
"575 141 OFFCURVE",
"503 67 OFFCURVE",
"450 67 QCURVE SMOOTH",
"446 67 LINE SMOOTH"
);
},
{
closed = 1;
nodes = (
"81 195 OFFCURVE",
"1 269 OFFCURVE",
"1 371 OFFCURVE",
"81 445 OFFCURVE",
"151 445 QCURVE SMOOTH",
"361 445 LINE SMOOTH",
"431 445 OFFCURVE",
"511 371 OFFCURVE",
"511 269 OFFCURVE",
"431 195 OFFCURVE",
"361 195 QCURVE SMOOTH",
"151 195 LINE SMOOTH"
);
},
{
closed = 1;
nodes = (
"73 323 OFFCURVE",
"1 397 OFFCURVE",
"1 499 OFFCURVE",
"73 573 OFFCURVE",
"126 573 QCURVE SMOOTH",
"130 573 LINE SMOOTH",
"183 573 OFFCURVE",
"255 499 OFFCURVE",
"255 397 OFFCURVE",
"183 323 OFFCURVE",
"130 323 QCURVE SMOOTH",
"126 323 LINE SMOOTH"
);
},
{
closed = 1;
nodes = (
"329 323 OFFCURVE",
"257 397 OFFCURVE",
"257 499 OFFCURVE",
"329 573 OFFCURVE",
"382 573 QCURVE SMOOTH",
"386 573 LINE SMOOTH",
"439 573 OFFCURVE",
"511 499 OFFCURVE",
"511 397 OFFCURVE",
"439 323 OFFCURVE",
"386 323 QCURVE SMOOTH",
"382 323 LINE SMOOTH"
);
},
{
closed = 1;
nodes = (
"145 451 OFFCURVE",
"65 525 OFFCURVE",
"65 627 OFFCURVE",
"145 701 OFFCURVE",
"215 701 QCURVE SMOOTH",
"297 701 LINE SMOOTH",
"367 701 OFFCURVE",
"447 627 OFFCURVE",
"447 525 OFFCURVE",
"367 451 OFFCURVE",
"297 451 QCURVE SMOOTH",
"215 451 LINE SMOOTH"
);
},
{
closed = 1;
nodes = (
"73 579 OFFCURVE",
"1 653 OFFCURVE",
"1 755 OFFCURVE",
"73 829 OFFCURVE",
"126 829 QCURVE SMOOTH",
"130 829 LINE SMOOTH",
"183 829 OFFCURVE",
"255 755 OFFCURVE",
"255 653 OFFCURVE",
"183 579 OFFCURVE",
"130 579 QCURVE SMOOTH",
"126 579 LINE SMOOTH"
);
},
{
closed = 1;
nodes = (
"329 579 OFFCURVE",
"257 653 OFFCURVE",
"257 755 OFFCURVE",
"329 829 OFFCURVE",
"382 829 QCURVE SMOOTH",
"386 829 LINE SMOOTH",
"439 829 OFFCURVE",
"511 755 OFFCURVE",
"511 653 OFFCURVE",
"439 579 OFFCURVE",
"386 579 QCURVE SMOOTH",
"382 579 LINE SMOOTH"
);
},
{
closed = 1;
nodes = (
"145 707 OFFCURVE",
"65 781 OFFCURVE",
"65 883 OFFCURVE",
"145 957 OFFCURVE",
"215 957 QCURVE SMOOTH",
"297 957 LINE SMOOTH",
"367 957 OFFCURVE",
"447 883 OFFCURVE",
"447 781 OFFCURVE",
"367 707 OFFCURVE",
"297 707 QCURVE SMOOTH",
"215 707 LINE SMOOTH"
);
}
);
width = 512;
},
{
layerId = "EDC3ADDC-530C-4ECE-AAC6-732B149A8D4A";
paths = (
{
closed = 1;
nodes = (
"-87 54 OFFCURVE",
"-93 60 OFFCURVE",
"-93 68 OFFCURVE",
"-87 74 OFFCURVE",
"-81 74 QCURVE SMOOTH",
"209 74 LINE SMOOTH",
"215 74 OFFCURVE",
"221 68 OFFCURVE",
"221 60 OFFCURVE",
"215 54 OFFCURVE",
"209 54 QCURVE SMOOTH",
"-81 54 LINE SMOOTH"
);
},
{
closed = 1;
nodes = (
"297 54 OFFCURVE",
"291 60 OFFCURVE",
"291 68 OFFCURVE",
"297 74 OFFCURVE",
"303 74 QCURVE SMOOTH",
"593 74 LINE SMOOTH",
"599 74 OFFCURVE",
"605 68 OFFCURVE",
"605 60 OFFCURVE",
"599 54 OFFCURVE",
"593 54 QCURVE SMOOTH",
"303 54 LINE SMOOTH"
);
},
{
closed = 1;
nodes = (
"-87 182 OFFCURVE",
"-93 188 OFFCURVE",
"-93 196 OFFCURVE",
"-87 202 OFFCURVE",
"-81 202 QCURVE SMOOTH",
"209 202 LINE SMOOTH",
"215 202 OFFCURVE",
"221 196 OFFCURVE",
"221 188 OFFCURVE",
"215 182 OFFCURVE",
"209 182 QCURVE SMOOTH",
"-81 182 LINE SMOOTH"
);
},
{
closed = 1;
nodes = (
"297 182 OFFCURVE",
"291 188 OFFCURVE",
"291 196 OFFCURVE",
"297 202 OFFCURVE",
"303 202 QCURVE SMOOTH",
"593 202 LINE SMOOTH",
"599 202 OFFCURVE",
"605 196 OFFCURVE",
"605 188 OFFCURVE",
"599 182 OFFCURVE",
"593 182 QCURVE SMOOTH",
"303 182 LINE SMOOTH"
);
},
{
closed = 1;
nodes = (
"-23 310 OFFCURVE",
"-29 316 OFFCURVE",
"-29 324 OFFCURVE",
"-23 330 OFFCURVE",
"-17 330 QCURVE SMOOTH",
"529 330 LINE SMOOTH",
"535 330 OFFCURVE",
"541 324 OFFCURVE",
"541 316 OFFCURVE",
"535 310 OFFCURVE",
"529 310 QCURVE SMOOTH",
"-17 310 LINE SMOOTH"
);
},
{
closed = 1;
nodes = (
"-23 438 OFFCURVE",
"-29 444 OFFCURVE",
"-29 452 OFFCURVE",
"-23 458 OFFCURVE",
"-17 458 QCURVE SMOOTH",
"273 458 LINE SMOOTH",
"279 458 OFFCURVE",
"285 452 OFFCURVE",
"285 444 OFFCURVE",
"279 438 OFFCURVE",
"273 438 QCURVE SMOOTH",
"-17 438 LINE SMOOTH"
);
},
{
closed = 1;
nodes = (
"233 438 OFFCURVE",
"227 444 OFFCURVE",
"227 452 OFFCURVE",
"233 458 OFFCURVE",
"239 458 QCURVE SMOOTH",
"529 458 LINE SMOOTH",
"535 458 OFFCURVE",
"541 452 OFFCURVE",
"541 444 OFFCURVE",
"535 438 OFFCURVE",
"529 438 QCURVE SMOOTH",
"239 438 LINE SMOOTH"
);
},
{
closed = 1;
nodes = (
"41 566 OFFCURVE",
"35 572 OFFCURVE",
"35 580 OFFCURVE",
"41 586 OFFCURVE",
"47 586 QCURVE SMOOTH",
"465 586 LINE SMOOTH",
"471 586 OFFCURVE",
"477 580 OFFCURVE",
"477 572 OFFCURVE",
"471 566 OFFCURVE",
"465 566 QCURVE SMOOTH",
"47 566 LINE SMOOTH"
);
},
{
closed = 1;
nodes = (
"-23 694 OFFCURVE",
"-29 700 OFFCURVE",
"-29 708 OFFCURVE",
"-23 714 OFFCURVE",
"-17 714 QCURVE SMOOTH",
"273 714 LINE SMOOTH",
"279 714 OFFCURVE",
"285 708 OFFCURVE",
"285 700 OFFCURVE",
"279 694 OFFCURVE",
"273 694 QCURVE SMOOTH",
"-17 694 LINE SMOOTH"
);
},
{
closed = 1;
nodes = (
"233 694 OFFCURVE",
"227 700 OFFCURVE",
"227 708 OFFCURVE",
"233 714 OFFCURVE",
"239 714 QCURVE SMOOTH",
"529 714 LINE SMOOTH",
"535 714 OFFCURVE",
"541 708 OFFCURVE",
"541 700 OFFCURVE",
"535 694 OFFCURVE",
"529 694 QCURVE SMOOTH",
"239 694 LINE SMOOTH"
);
},
{
closed = 1;
nodes = (
"41 822 OFFCURVE",
"35 828 OFFCURVE",
"35 836 OFFCURVE",
"41 842 OFFCURVE",
"47 842 QCURVE SMOOTH",
"465 842 LINE SMOOTH",
"471 842 OFFCURVE",
"477 836 OFFCURVE",
"477 828 OFFCURVE",
"471 822 OFFCURVE",
"465 822 QCURVE SMOOTH",
"47 822 LINE SMOOTH"
);
}
);
width = 512;
},
{
layerId = "38088322-78A3-4F4F-B46E-F8355B0BCD96";
paths = (
{
closed = 1;
nodes = (
"-53 -61 OFFCURVE",
"-125 13 OFFCURVE",
"-125 115 OFFCURVE",
"-53 189 OFFCURVE",
"0 189 QCURVE SMOOTH",
"128 189 LINE SMOOTH",
"181 189 OFFCURVE",
"253 115 OFFCURVE",
"253 13 OFFCURVE",
"181 -61 OFFCURVE",
"128 -61 QCURVE SMOOTH",
"0 -61 LINE SMOOTH"
);
},
{
closed = 1;
nodes = (
"331 -61 OFFCURVE",
"259 13 OFFCURVE",
"259 115 OFFCURVE",
"331 189 OFFCURVE",
"384 189 QCURVE SMOOTH",
"512 189 LINE SMOOTH",
"565 189 OFFCURVE",
"637 115 OFFCURVE",
"637 13 OFFCURVE",
"565 -61 OFFCURVE",
"512 -61 QCURVE SMOOTH",
"384 -61 LINE SMOOTH"
);
},
{
closed = 1;
nodes = (
"-53 67 OFFCURVE",
"-125 141 OFFCURVE",
"-125 243 OFFCURVE",
"-53 317 OFFCURVE",
"0 317 QCURVE SMOOTH",
"128 317 LINE SMOOTH",
"181 317 OFFCURVE",
"253 243 OFFCURVE",
"253 141 OFFCURVE",
"181 67 OFFCURVE",
"128 67 QCURVE SMOOTH",
"0 67 LINE SMOOTH"
);
},
{
closed = 1;
nodes = (
"331 67 OFFCURVE",
"259 141 OFFCURVE",
"259 243 OFFCURVE",
"331 317 OFFCURVE",
"384 317 QCURVE SMOOTH",
"512 317 LINE SMOOTH",
"565 317 OFFCURVE",
"637 243 OFFCURVE",
"637 141 OFFCURVE",
"565 67 OFFCURVE",
"512 67 QCURVE SMOOTH",
"384 67 LINE SMOOTH"
);
},
{
closed = 1;
nodes = (
"19 195 OFFCURVE",
"-61 269 OFFCURVE",
"-61 371 OFFCURVE",
"19 445 OFFCURVE",
"89 445 QCURVE SMOOTH",
"423 445 LINE SMOOTH",
"493 445 OFFCURVE",
"573 371 OFFCURVE",
"573 269 OFFCURVE",
"493 195 OFFCURVE",
"423 195 QCURVE SMOOTH",
"89 195 LINE SMOOTH"
);
},
{
closed = 1;
nodes = (
"11 323 OFFCURVE",
"-61 397 OFFCURVE",
"-61 499 OFFCURVE",
"11 573 OFFCURVE",
"64 573 QCURVE SMOOTH",
"192 573 LINE SMOOTH",
"245 573 OFFCURVE",
"317 499 OFFCURVE",
"317 397 OFFCURVE",
"245 323 OFFCURVE",
"192 323 QCURVE SMOOTH",
"64 323 LINE SMOOTH"
);
},
{
closed = 1;
nodes = (
"267 323 OFFCURVE",
"195 397 OFFCURVE",
"195 499 OFFCURVE",
"267 573 OFFCURVE",
"320 573 QCURVE SMOOTH",
"448 573 LINE SMOOTH",
"501 573 OFFCURVE",
"573 499 OFFCURVE",
"573 397 OFFCURVE",
"501 323 OFFCURVE",
"448 323 QCURVE SMOOTH",
"320 323 LINE SMOOTH"
);
},
{
closed = 1;
nodes = (
"83 451 OFFCURVE",
"3 525 OFFCURVE",
"3 627 OFFCURVE",
"83 701 OFFCURVE",
"153 701 QCURVE SMOOTH",
"359 701 LINE SMOOTH",
"429 701 OFFCURVE",
"509 627 OFFCURVE",
"509 525 OFFCURVE",
"429 451 OFFCURVE",
"359 451 QCURVE SMOOTH",
"153 451 LINE SMOOTH"
);
},
{
closed = 1;
nodes = (
"11 579 OFFCURVE",
"-61 653 OFFCURVE",
"-61 755 OFFCURVE",
"11 829 OFFCURVE",
"64 829 QCURVE SMOOTH",
"192 829 LINE SMOOTH",
"245 829 OFFCURVE",
"317 755 OFFCURVE",
"317 653 OFFCURVE",
"245 579 OFFCURVE",
"192 579 QCURVE SMOOTH",
"64 579 LINE SMOOTH"
);
},
{
closed = 1;
nodes = (
"267 579 OFFCURVE",
"195 653 OFFCURVE",
"195 755 OFFCURVE",
"267 829 OFFCURVE",
"320 829 QCURVE SMOOTH",
"448 829 LINE SMOOTH",
"501 829 OFFCURVE",
"573 755 OFFCURVE",
"573 653 OFFCURVE",
"501 579 OFFCURVE",
"448 579 QCURVE SMOOTH",
"320 579 LINE SMOOTH"
);
},
{
closed = 1;
nodes = (
"83 707 OFFCURVE",
"3 781 OFFCURVE",
"3 883 OFFCURVE",
"83 957 OFFCURVE",
"153 957 QCURVE SMOOTH",
"359 957 LINE SMOOTH",
"429 957 OFFCURVE",
"509 883 OFFCURVE",
"509 781 OFFCURVE",
"429 707 OFFCURVE",
"359 707 QCURVE SMOOTH",
"153 707 LINE SMOOTH"
);
}
);
width = 512;
}
);
unicode = 00C5;
},
{
color = 6;
glyphname = Atilde;
lastChange = "2019-07-27 11:38:00 +0000";
layers = (
{
components = (
{
name = A.case;
},
{
name = tilde;
}
);
layerId = master01;
width = 512;
},
{
components = (
{
name = A.case;
},
{
name = tilde;
}
);
layerId = "EF047752-ED93-49D3-A4D1-D66A6AAE90C7";
width = 512;
},
{
components = (
{
name = A.case;
},
{
name = tilde;
}
);
layerId = "164C8123-3F0E-4C99-877D-0E85C432A9CE";
width = 512;
},
{
components = (
{
name = A.case;
},
{
name = tilde;
}
);
layerId = "EDC3ADDC-530C-4ECE-AAC6-732B149A8D4A";
width = 512;
},
{
components = (
{
name = A.case;
},
{
name = tilde;
}
);
layerId = "38088322-78A3-4F4F-B46E-F8355B0BCD96";
width = 512;
},
{
background = {
paths = (
{
closed = 1;
nodes = (
"64 768 LINE",
"256 768 LINE",
"256 640 LINE",
"128 640 LINE",
"128 512 LINE",
"64 512 LINE",
"64 256 LINE",
"0 256 LINE",
"0 0 LINE",
"128 0 LINE",
"128 256 LINE",
"384 256 LINE",
"384 0 LINE",
"512 0 LINE",
"512 256 LINE",
"448 256 LINE",
"448 512 LINE",
"384 512 LINE",
"384 640 LINE",
"448 640 LINE",
"448 768 LINE",
"256 768 LINE",
"256 896 LINE",
"64 896 LINE"
);
},
{
closed = 1;
nodes = (
"320 384 LINE",
"192 384 LINE",
"192 512 LINE",
"320 512 LINE"
);
},
{
closed = 1;
nodes = (
"448 768 LINE",
"512 768 LINE",
"512 896 LINE",
"448 896 LINE"
);
},
{
closed = 1;
nodes = (
"0 640 LINE",
"64 640 LINE",
"64 768 LINE",
"0 768 LINE"
);
}
);
};
components = (
{
name = A.case;
},
{
name = tilde;
}
);
layerId = "968AADD4-6AAB-4A21-B439-CFC52095EED4";
width = 512;
}
);
unicode = 00C3;
},
{
glyphname = AE;
lastChange = "2019-07-27 12:32:26 +0000";
layers = (
{
background = {
paths = (
{
closed = 1;
nodes = (
"-3 -3 LINE",
"-3 259 LINE",
"61 259 LINE",
"61 515 LINE",
"125 515 LINE",
"125 771 LINE",
"189 771 LINE",
"189 899 LINE",
"515 899 LINE",
"515 765 LINE",
"387 765 LINE",
"387 515 LINE",
"515 515 LINE",
"515 381 LINE",
"387 381 LINE",
"387 131 LINE",
"515 131 LINE",
"515 -3 LINE",
"253 -3 LINE",
"253 253 LINE",
"131 253 LINE",
"131 -3 LINE"
);
},
{
closed = 1;
nodes = (
"195 509 LINE",
"195 387 LINE",
"253 387 LINE",
"253 509 LINE"
);
}
);
};
layerId = master01;
paths = (
{
closed = 0;
nodes = (
"-3 64 LINE",
"131 64 LINE"
);
},
{
closed = 0;
nodes = (
"253 64 LINE",
"515 64 LINE"
);
},
{
closed = 0;
nodes = (
"-3 192 LINE",
"131 192 LINE"
);
},
{
closed = 0;
nodes = (
"253 192 LINE",
"387 192 LINE"
);
},
{
closed = 0;
nodes = (
"61 320 LINE",
"387 320 LINE"
);
},
{
closed = 0;
nodes = (
"61 448 LINE",
"195 448 LINE"
);
},
{
closed = 0;
nodes = (
"253 448 LINE",
"515 448 LINE"
);
},
{
closed = 0;
nodes = (
"125 576 LINE",
"387 576 LINE"
);
},
{
closed = 0;
nodes = (
"125 704 LINE",
"387 704 LINE"
);
},
{
closed = 0;
nodes = (
"189 832 LINE",
"515 832 LINE"
);
}
);
userData = {
com.typemytype.robofont.mark = (
0.656,
1,
0.6,
1
);
};
width = 512;
},
{
layerId = "968AADD4-6AAB-4A21-B439-CFC52095EED4";
paths = (
{
closed = 1;
nodes = (
"-3 -3 LINE",
"-3 259 LINE",
"61 259 LINE",
"61 515 LINE",
"125 515 LINE",
"125 771 LINE",
"189 771 LINE",
"189 899 LINE",
"515 899 LINE",
"515 765 LINE",
"387 765 LINE",
"387 515 LINE",
"515 515 LINE",
"515 381 LINE",
"387 381 LINE",
"387 131 LINE",
"515 131 LINE",
"515 -3 LINE",
"253 -3 LINE",
"253 253 LINE",
"131 253 LINE",
"131 -3 LINE"
);
},
{
closed = 1;
nodes = (
"195 509 LINE",
"195 387 LINE",
"253 387 LINE",
"253 509 LINE"
);
}
);
userData = {
com.typemytype.robofont.mark = (
0.656,
1,
0.6,
1
);
};
width = 512;
},
{
layerId = "EF047752-ED93-49D3-A4D1-D66A6AAE90C7";
paths = (
{
closed = 1;
nodes = (
"1 54 OFFCURVE",
"-5 60 OFFCURVE",
"-5 68 OFFCURVE",
"1 74 OFFCURVE",
"7 74 QCURVE SMOOTH",
"121 74 LINE SMOOTH",
"127 74 OFFCURVE",
"133 68 OFFCURVE",
"133 60 OFFCURVE",
"127 54 OFFCURVE",
"121 54 QCURVE SMOOTH",
"7 54 LINE SMOOTH"
);
},
{
closed = 1;
nodes = (
"257 54 OFFCURVE",
"251 60 OFFCURVE",
"251 68 OFFCURVE",
"257 74 OFFCURVE",
"263 74 QCURVE SMOOTH",
"505 74 LINE SMOOTH",
"511 74 OFFCURVE",
"517 68 OFFCURVE",
"517 60 OFFCURVE",
"511 54 OFFCURVE",
"505 54 QCURVE SMOOTH",
"263 54 LINE SMOOTH"
);
},
{
closed = 1;
nodes = (
"1 182 OFFCURVE",
"-5 188 OFFCURVE",
"-5 196 OFFCURVE",
"1 202 OFFCURVE",
"7 202 QCURVE SMOOTH",
"121 202 LINE SMOOTH",
"127 202 OFFCURVE",
"133 196 OFFCURVE",
"133 188 OFFCURVE",
"127 182 OFFCURVE",
"121 182 QCURVE SMOOTH",
"7 182 LINE SMOOTH"
);
},
{
closed = 1;
nodes = (
"257 182 OFFCURVE",
"251 188 OFFCURVE",
"251 196 OFFCURVE",
"257 202 OFFCURVE",
"263 202 QCURVE SMOOTH",
"377 202 LINE SMOOTH",
"383 202 OFFCURVE",
"389 196 OFFCURVE",
"389 188 OFFCURVE",
"383 182 OFFCURVE",
"377 182 QCURVE SMOOTH",
"263 182 LINE SMOOTH"
);
},
{
closed = 1;
nodes = (
"65 310 OFFCURVE",
"59 316 OFFCURVE",
"59 324 OFFCURVE",
"65 330 OFFCURVE",
"71 330 QCURVE SMOOTH",
"377 330 LINE SMOOTH",
"383 330 OFFCURVE",
"389 324 OFFCURVE",
"389 316 OFFCURVE",
"383 310 OFFCURVE",
"377 310 QCURVE SMOOTH",
"71 310 LINE SMOOTH"
);
},
{
closed = 1;
nodes = (
"65 438 OFFCURVE",
"59 444 OFFCURVE",
"59 452 OFFCURVE",
"65 458 OFFCURVE",
"71 458 QCURVE SMOOTH",
"185 458 LINE SMOOTH",
"191 458 OFFCURVE",
"197 452 OFFCURVE",
"197 444 OFFCURVE",
"191 438 OFFCURVE",
"185 438 QCURVE SMOOTH",
"71 438 LINE SMOOTH"
);
},
{
closed = 1;
nodes = (
"257 438 OFFCURVE",
"251 444 OFFCURVE",
"251 452 OFFCURVE",
"257 458 OFFCURVE",
"263 458 QCURVE SMOOTH",
"505 458 LINE SMOOTH",
"511 458 OFFCURVE",
"517 452 OFFCURVE",
"517 444 OFFCURVE",
"511 438 OFFCURVE",
"505 438 QCURVE SMOOTH",
"263 438 LINE SMOOTH"
);
},
{
closed = 1;
nodes = (
"129 566 OFFCURVE",
"123 572 OFFCURVE",
"123 580 OFFCURVE",
"129 586 OFFCURVE",
"135 586 QCURVE SMOOTH",
"377 586 LINE SMOOTH",
"383 586 OFFCURVE",
"389 580 OFFCURVE",
"389 572 OFFCURVE",
"383 566 OFFCURVE",
"377 566 QCURVE SMOOTH",
"135 566 LINE SMOOTH"
);
},
{
closed = 1;
nodes = (
"129 694 OFFCURVE",
"123 700 OFFCURVE",
"123 708 OFFCURVE",
"129 714 OFFCURVE",
"135 714 QCURVE SMOOTH",
"377 714 LINE SMOOTH",
"383 714 OFFCURVE",
"389 708 OFFCURVE",
"389 700 OFFCURVE",
"383 694 OFFCURVE",
"377 694 QCURVE SMOOTH",
"135 694 LINE SMOOTH"
);
},
{
closed = 1;
nodes = (
"193 822 OFFCURVE",
"187 828 OFFCURVE",
"187 836 OFFCURVE",
"193 842 OFFCURVE",
"199 842 QCURVE SMOOTH",
"505 842 LINE SMOOTH",
"511 842 OFFCURVE",
"517 836 OFFCURVE",
"517 828 OFFCURVE",
"511 822 OFFCURVE",
"505 822 QCURVE SMOOTH",
"199 822 LINE SMOOTH"
);
}
);
width = 512;
},
{
layerId = "164C8123-3F0E-4C99-877D-0E85C432A9CE";
paths = (
{
closed = 1;
nodes = (
"9 -61 OFFCURVE",
"-63 13 OFFCURVE",
"-63 115 OFFCURVE",
"9 189 OFFCURVE",
"62 189 QCURVE SMOOTH",
"66 189 LINE SMOOTH",
"119 189 OFFCURVE",
"191 115 OFFCURVE",
"191 13 OFFCURVE",
"119 -61 OFFCURVE",
"66 -61 QCURVE SMOOTH",
"62 -61 LINE SMOOTH"
);
},
{
closed = 1;
nodes = (
"273 -61 OFFCURVE",
"193 13 OFFCURVE",
"193 115 OFFCURVE",
"273 189 OFFCURVE",
"343 189 QCURVE SMOOTH",
"425 189 LINE SMOOTH",
"495 189 OFFCURVE",
"575 115 OFFCURVE",
"575 13 OFFCURVE",
"495 -61 OFFCURVE",
"425 -61 QCURVE SMOOTH",
"343 -61 LINE SMOOTH"
);
},
{
closed = 1;
nodes = (
"9 67 OFFCURVE",
"-63 141 OFFCURVE",
"-63 243 OFFCURVE",
"9 317 OFFCURVE",
"62 317 QCURVE SMOOTH",
"66 317 LINE SMOOTH",
"119 317 OFFCURVE",
"191 243 OFFCURVE",
"191 141 OFFCURVE",
"119 67 OFFCURVE",
"66 67 QCURVE SMOOTH",
"62 67 LINE SMOOTH"
);
},
{
closed = 1;
nodes = (
"265 67 OFFCURVE",
"193 141 OFFCURVE",
"193 243 OFFCURVE",
"265 317 OFFCURVE",
"318 317 QCURVE SMOOTH",
"322 317 LINE SMOOTH",
"375 317 OFFCURVE",
"447 243 OFFCURVE",
"447 141 OFFCURVE",
"375 67 OFFCURVE",
"322 67 QCURVE SMOOTH",
"318 67 LINE SMOOTH"
);
},
{
closed = 1;
nodes = (
"81 195 OFFCURVE",
"1 269 OFFCURVE",
"1 371 OFFCURVE",
"81 445 OFFCURVE",
"151 445 QCURVE SMOOTH",
"297 445 LINE SMOOTH",
"367 445 OFFCURVE",
"447 371 OFFCURVE",
"447 269 OFFCURVE",
"367 195 OFFCURVE",
"297 195 QCURVE SMOOTH",
"151 195 LINE SMOOTH"
);
},
{
closed = 1;
nodes = (
"73 323 OFFCURVE",
"1 397 OFFCURVE",
"1 499 OFFCURVE",
"73 573 OFFCURVE",
"126 573 QCURVE SMOOTH",
"130 573 LINE SMOOTH",
"183 573 OFFCURVE",
"255 499 OFFCURVE",
"255 397 OFFCURVE",
"183 323 OFFCURVE",
"130 323 QCURVE SMOOTH",
"126 323 LINE SMOOTH"
);
},
{
closed = 1;
nodes = (
"273 323 OFFCURVE",
"193 397 OFFCURVE",
"193 499 OFFCURVE",
"273 573 OFFCURVE",
"343 573 QCURVE SMOOTH",
"425 573 LINE SMOOTH",
"495 573 OFFCURVE",
"575 499 OFFCURVE",
"575 397 OFFCURVE",
"495 323 OFFCURVE",
"425 323 QCURVE SMOOTH",
"343 323 LINE SMOOTH"
);
},
{
closed = 1;
nodes = (
"145 451 OFFCURVE",
"65 525 OFFCURVE",
"65 627 OFFCURVE",
"145 701 OFFCURVE",
"215 701 QCURVE SMOOTH",
"297 701 LINE SMOOTH",
"367 701 OFFCURVE",
"447 627 OFFCURVE",
"447 525 OFFCURVE",
"367 451 OFFCURVE",
"297 451 QCURVE SMOOTH",
"215 451 LINE SMOOTH"
);
},
{
closed = 1;
nodes = (
"145 579 OFFCURVE",
"65 653 OFFCURVE",
"65 755 OFFCURVE",
"145 829 OFFCURVE",
"215 829 QCURVE SMOOTH",
"297 829 LINE SMOOTH",
"367 829 OFFCURVE",
"447 755 OFFCURVE",
"447 653 OFFCURVE",
"367 579 OFFCURVE",
"297 579 QCURVE SMOOTH",
"215 579 LINE SMOOTH"
);
},
{
closed = 1;
nodes = (
"209 707 OFFCURVE",
"129 781 OFFCURVE",
"129 883 OFFCURVE",
"209 957 OFFCURVE",
"279 957 QCURVE SMOOTH",
"425 957 LINE SMOOTH",
"495 957 OFFCURVE",
"575 883 OFFCURVE",
"575 781 OFFCURVE",
"495 707 OFFCURVE",
"425 707 QCURVE SMOOTH",
"279 707 LINE SMOOTH"
);
}
);
width = 512;
},
{
layerId = "EDC3ADDC-530C-4ECE-AAC6-732B149A8D4A";
paths = (
{
closed = 1;
nodes = (
"-87 54 OFFCURVE",
"-93 60 OFFCURVE",
"-93 68 OFFCURVE",
"-87 74 OFFCURVE",
"-81 74 QCURVE SMOOTH",
"209 74 LINE SMOOTH",
"215 74 OFFCURVE",
"221 68 OFFCURVE",
"221 60 OFFCURVE",
"215 54 OFFCURVE",
"209 54 QCURVE SMOOTH",
"-81 54 LINE SMOOTH"
);
},
{
closed = 1;
nodes = (
"169 54 OFFCURVE",
"163 60 OFFCURVE",
"163 68 OFFCURVE",
"169 74 OFFCURVE",
"175 74 QCURVE SMOOTH",
"593 74 LINE SMOOTH",
"599 74 OFFCURVE",
"605 68 OFFCURVE",
"605 60 OFFCURVE",
"599 54 OFFCURVE",
"593 54 QCURVE SMOOTH",
"175 54 LINE SMOOTH"
);
},
{
closed = 1;
nodes = (
"-87 182 OFFCURVE",
"-93 188 OFFCURVE",
"-93 196 OFFCURVE",
"-87 202 OFFCURVE",
"-81 202 QCURVE SMOOTH",
"209 202 LINE SMOOTH",
"215 202 OFFCURVE",
"221 196 OFFCURVE",
"221 188 OFFCURVE",
"215 182 OFFCURVE",
"209 182 QCURVE SMOOTH",
"-81 182 LINE SMOOTH"
);
},
{
closed = 1;
nodes = (
"169 182 OFFCURVE",
"163 188 OFFCURVE",
"163 196 OFFCURVE",
"169 202 OFFCURVE",
"175 202 QCURVE SMOOTH",
"465 202 LINE SMOOTH",
"471 202 OFFCURVE",
"477 196 OFFCURVE",
"477 188 OFFCURVE",
"471 182 OFFCURVE",
"465 182 QCURVE SMOOTH",
"175 182 LINE SMOOTH"
);
},
{
closed = 1;
nodes = (
"-23 310 OFFCURVE",
"-29 316 OFFCURVE",
"-29 324 OFFCURVE",
"-23 330 OFFCURVE",
"-17 330 QCURVE SMOOTH",
"465 330 LINE SMOOTH",
"471 330 OFFCURVE",
"477 324 OFFCURVE",
"477 316 OFFCURVE",
"471 310 OFFCURVE",
"465 310 QCURVE SMOOTH",
"-17 310 LINE SMOOTH"
);
},
{
closed = 1;
nodes = (
"-23 438 OFFCURVE",
"-29 444 OFFCURVE",
"-29 452 OFFCURVE",
"-23 458 OFFCURVE",
"-17 458 QCURVE SMOOTH",
"273 458 LINE SMOOTH",
"279 458 OFFCURVE",
"285 452 OFFCURVE",
"285 444 OFFCURVE",
"279 438 OFFCURVE",
"273 438 QCURVE SMOOTH",
"-17 438 LINE SMOOTH"
);
},
{
closed = 1;
nodes = (
"169 438 OFFCURVE",
"163 444 OFFCURVE",
"163 452 OFFCURVE",
"169 458 OFFCURVE",
"175 458 QCURVE SMOOTH",
"593 458 LINE SMOOTH",
"599 458 OFFCURVE",
"605 452 OFFCURVE",
"605 444 OFFCURVE",
"599 438 OFFCURVE",
"593 438 QCURVE SMOOTH",
"175 438 LINE SMOOTH"
);
},
{
closed = 1;
nodes = (
"41 566 OFFCURVE",
"35 572 OFFCURVE",
"35 580 OFFCURVE",
"41 586 OFFCURVE",
"47 586 QCURVE SMOOTH",
"465 586 LINE SMOOTH",
"471 586 OFFCURVE",
"477 580 OFFCURVE",
"477 572 OFFCURVE",
"471 566 OFFCURVE",
"465 566 QCURVE SMOOTH",
"47 566 LINE SMOOTH"
);
},
{
closed = 1;
nodes = (
"41 694 OFFCURVE",
"35 700 OFFCURVE",
"35 708 OFFCURVE",
"41 714 OFFCURVE",
"47 714 QCURVE SMOOTH",
"465 714 LINE SMOOTH",
"471 714 OFFCURVE",
"477 708 OFFCURVE",
"477 700 OFFCURVE",
"471 694 OFFCURVE",
"465 694 QCURVE SMOOTH",
"47 694 LINE SMOOTH"
);
},
{
closed = 1;
nodes = (
"105 822 OFFCURVE",
"99 828 OFFCURVE",
"99 836 OFFCURVE",
"105 842 OFFCURVE",
"111 842 QCURVE SMOOTH",
"593 842 LINE SMOOTH",
"599 842 OFFCURVE",
"605 836 OFFCURVE",
"605 828 OFFCURVE",
"599 822 OFFCURVE",
"593 822 QCURVE SMOOTH",
"111 822 LINE SMOOTH"
);
}
);
width = 512;
},
{
layerId = "38088322-78A3-4F4F-B46E-F8355B0BCD96";
paths = (
{
closed = 1;
nodes = (
"-53 -61 OFFCURVE",
"-125 13 OFFCURVE",
"-125 115 OFFCURVE",
"-53 189 OFFCURVE",
"0 189 QCURVE SMOOTH",
"128 189 LINE SMOOTH",
"181 189 OFFCURVE",
"253 115 OFFCURVE",
"253 13 OFFCURVE",
"181 -61 OFFCURVE",
"128 -61 QCURVE SMOOTH",
"0 -61 LINE SMOOTH"
);
},
{
closed = 1;
nodes = (
"211 -61 OFFCURVE",
"131 13 OFFCURVE",
"131 115 OFFCURVE",
"211 189 OFFCURVE",
"281 189 QCURVE SMOOTH",
"487 189 LINE SMOOTH",
"557 189 OFFCURVE",
"637 115 OFFCURVE",
"637 13 OFFCURVE",
"557 -61 OFFCURVE",
"487 -61 QCURVE SMOOTH",
"281 -61 LINE SMOOTH"
);
},
{
closed = 1;
nodes = (
"-53 67 OFFCURVE",
"-125 141 OFFCURVE",
"-125 243 OFFCURVE",
"-53 317 OFFCURVE",
"0 317 QCURVE SMOOTH",
"128 317 LINE SMOOTH",
"181 317 OFFCURVE",
"253 243 OFFCURVE",
"253 141 OFFCURVE",
"181 67 OFFCURVE",
"128 67 QCURVE SMOOTH",
"0 67 LINE SMOOTH"
);
},
{
closed = 1;
nodes = (
"203 67 OFFCURVE",
"131 141 OFFCURVE",
"131 243 OFFCURVE",
"203 317 OFFCURVE",
"256 317 QCURVE SMOOTH",
"384 317 LINE SMOOTH",
"437 317 OFFCURVE",
"509 243 OFFCURVE",
"509 141 OFFCURVE",
"437 67 OFFCURVE",
"384 67 QCURVE SMOOTH",
"256 67 LINE SMOOTH"
);
},
{
closed = 1;
nodes = (
"19 195 OFFCURVE",
"-61 269 OFFCURVE",
"-61 371 OFFCURVE",
"19 445 OFFCURVE",
"89 445 QCURVE SMOOTH",
"359 445 LINE SMOOTH",
"429 445 OFFCURVE",
"509 371 OFFCURVE",
"509 269 OFFCURVE",
"429 195 OFFCURVE",
"359 195 QCURVE SMOOTH",
"89 195 LINE SMOOTH"
);
},
{
closed = 1;
nodes = (
"11 323 OFFCURVE",
"-61 397 OFFCURVE",
"-61 499 OFFCURVE",
"11 573 OFFCURVE",
"64 573 QCURVE SMOOTH",
"192 573 LINE SMOOTH",
"245 573 OFFCURVE",
"317 499 OFFCURVE",
"317 397 OFFCURVE",
"245 323 OFFCURVE",
"192 323 QCURVE SMOOTH",
"64 323 LINE SMOOTH"
);
},
{
closed = 1;
nodes = (
"211 323 OFFCURVE",
"131 397 OFFCURVE",
"131 499 OFFCURVE",
"211 573 OFFCURVE",
"281 573 QCURVE SMOOTH",
"487 573 LINE SMOOTH",
"557 573 OFFCURVE",
"637 499 OFFCURVE",
"637 397 OFFCURVE",
"557 323 OFFCURVE",
"487 323 QCURVE SMOOTH",
"281 323 LINE SMOOTH"
);
},
{
closed = 1;
nodes = (
"83 451 OFFCURVE",
"3 525 OFFCURVE",
"3 627 OFFCURVE",
"83 701 OFFCURVE",
"153 701 QCURVE SMOOTH",
"359 701 LINE SMOOTH",
"429 701 OFFCURVE",
"509 627 OFFCURVE",
"509 525 OFFCURVE",
"429 451 OFFCURVE",
"359 451 QCURVE SMOOTH",
"153 451 LINE SMOOTH"
);
},
{
closed = 1;
nodes = (
"83 579 OFFCURVE",
"3 653 OFFCURVE",
"3 755 OFFCURVE",
"83 829 OFFCURVE",
"153 829 QCURVE SMOOTH",
"359 829 LINE SMOOTH",
"429 829 OFFCURVE",
"509 755 OFFCURVE",
"509 653 OFFCURVE",
"429 579 OFFCURVE",
"359 579 QCURVE SMOOTH",
"153 579 LINE SMOOTH"
);
},
{
closed = 1;
nodes = (
"147 707 OFFCURVE",
"67 781 OFFCURVE",
"67 883 OFFCURVE",
"147 957 OFFCURVE",
"217 957 QCURVE SMOOTH",
"487 957 LINE SMOOTH",
"557 957 OFFCURVE",
"637 883 OFFCURVE",
"637 781 OFFCURVE",
"557 707 OFFCURVE",
"487 707 QCURVE SMOOTH",
"217 707 LINE SMOOTH"
);
}
);
width = 512;
}
);
unicode = 00C6;
},
{
glyphname = B;
lastChange = "2019-07-27 12:32:26 +0000";
layers = (
{
background = {
paths = (
{
closed = 1;
nodes = (
"61 131 LINE",
"61 765 LINE",
"-3 765 LINE",
"-3 899 LINE",
"387 899 LINE",
"387 771 LINE",
"451 771 LINE",
"451 509 LINE",
"387 509 LINE",
"387 387 LINE",
"451 387 LINE",
"451 125 LINE",
"387 125 LINE",
"387 -3 LINE",
"-3 -3 LINE",
"-3 131 LINE"
);
},
{
closed = 1;
nodes = (
"195 381 LINE",
"195 131 LINE",
"317 131 LINE",
"317 381 LINE"
);
},
{
closed = 1;
nodes = (
"317 515 LINE",
"317 765 LINE",
"195 765 LINE",
"195 515 LINE"
);
}
);
};
layerId = master01;
paths = (
{
closed = 0;
nodes = (
"-3 64 LINE",
"387 64 LINE"
);
},
{
closed = 0;
nodes = (
"61 192 LINE",
"195 192 LINE"
);
},
{
closed = 0;
nodes = (
"317 192 LINE",
"451 192 LINE"
);
},
{
closed = 0;
nodes = (
"61 320 LINE",
"195 320 LINE"
);
},
{
closed = 0;
nodes = (
"317 320 LINE",
"451 320 LINE"
);
},
{
closed = 0;
nodes = (
"61 448 LINE",
"387 448 LINE"
);
},
{
closed = 0;
nodes = (
"61 576 LINE",
"195 576 LINE"
);
},
{
closed = 0;
nodes = (
"317 576 LINE",
"451 576 LINE"
);
},
{
closed = 0;
nodes = (
"61 704 LINE",
"195 704 LINE"
);
},
{
closed = 0;
nodes = (
"317 704 LINE",
"451 704 LINE"
);
},
{
closed = 0;
nodes = (
"-3 832 LINE",
"387 832 LINE"
);
}
);
userData = {
com.typemytype.robofont.mark = (
0.656,
1,
0.6,
1
);
};
width = 512;
},
{
layerId = "968AADD4-6AAB-4A21-B439-CFC52095EED4";
paths = (
{
closed = 1;
nodes = (
"61 131 LINE",
"61 765 LINE",
"-3 765 LINE",
"-3 899 LINE",
"387 899 LINE",
"387 771 LINE",
"451 771 LINE",
"451 509 LINE",
"387 509 LINE",
"387 387 LINE",
"451 387 LINE",
"451 125 LINE",
"387 125 LINE",
"387 -3 LINE",
"-3 -3 LINE",
"-3 131 LINE"
);
},
{
closed = 1;
nodes = (
"195 381 LINE",
"195 131 LINE",
"317 131 LINE",
"317 381 LINE"
);
},
{
closed = 1;
nodes = (
"317 515 LINE",
"317 765 LINE",
"195 765 LINE",
"195 515 LINE"
);
}
);
userData = {
com.typemytype.robofont.mark = (
0.656,
1,
0.6,
1
);
};
width = 512;
},
{
layerId = "EF047752-ED93-49D3-A4D1-D66A6AAE90C7";
paths = (
{
closed = 1;
nodes = (
"1 54 OFFCURVE",
"-5 60 OFFCURVE",
"-5 68 OFFCURVE",
"1 74 OFFCURVE",
"7 74 QCURVE SMOOTH",
"377 74 LINE SMOOTH",
"383 74 OFFCURVE",
"389 68 OFFCURVE",
"389 60 OFFCURVE",
"383 54 OFFCURVE",
"377 54 QCURVE SMOOTH",
"7 54 LINE SMOOTH"
);
},
{
closed = 1;
nodes = (
"65 182 OFFCURVE",
"59 188 OFFCURVE",
"59 196 OFFCURVE",
"65 202 OFFCURVE",
"71 202 QCURVE SMOOTH",
"185 202 LINE SMOOTH",
"191 202 OFFCURVE",
"197 196 OFFCURVE",
"197 188 OFFCURVE",
"191 182 OFFCURVE",
"185 182 QCURVE SMOOTH",
"71 182 LINE SMOOTH"
);
},
{
closed = 1;
nodes = (
"321 182 OFFCURVE",
"315 188 OFFCURVE",
"315 196 OFFCURVE",
"321 202 OFFCURVE",
"327 202 QCURVE SMOOTH",
"441 202 LINE SMOOTH",
"447 202 OFFCURVE",
"453 196 OFFCURVE",
"453 188 OFFCURVE",
"447 182 OFFCURVE",
"441 182 QCURVE SMOOTH",
"327 182 LINE SMOOTH"
);
},
{
closed = 1;
nodes = (
"65 310 OFFCURVE",
"59 316 OFFCURVE",
"59 324 OFFCURVE",
"65 330 OFFCURVE",
"71 330 QCURVE SMOOTH",
"185 330 LINE SMOOTH",
"191 330 OFFCURVE",
"197 324 OFFCURVE",
"197 316 OFFCURVE",
"191 310 OFFCURVE",
"185 310 QCURVE SMOOTH",
"71 310 LINE SMOOTH"
);
},
{
closed = 1;
nodes = (
"321 310 OFFCURVE",
"315 316 OFFCURVE",
"315 324 OFFCURVE",
"321 330 OFFCURVE",
"327 330 QCURVE SMOOTH",
"441 330 LINE SMOOTH",
"447 330 OFFCURVE",
"453 324 OFFCURVE",
"453 316 OFFCURVE",
"447 310 OFFCURVE",
"441 310 QCURVE SMOOTH",
"327 310 LINE SMOOTH"
);
},
{
closed = 1;
nodes = (
"65 438 OFFCURVE",
"59 444 OFFCURVE",
"59 452 OFFCURVE",
"65 458 OFFCURVE",
"71 458 QCURVE SMOOTH",
"377 458 LINE SMOOTH",
"383 458 OFFCURVE",
"389 452 OFFCURVE",
"389 444 OFFCURVE",
"383 438 OFFCURVE",
"377 438 QCURVE SMOOTH",
"71 438 LINE SMOOTH"
);
},
{
closed = 1;
nodes = (
"65 566 OFFCURVE",
"59 572 OFFCURVE",
"59 580 OFFCURVE",
"65 586 OFFCURVE",
"71 586 QCURVE SMOOTH",
"185 586 LINE SMOOTH",
"191 586 OFFCURVE",
"197 580 OFFCURVE",
"197 572 OFFCURVE",
"191 566 OFFCURVE",
"185 566 QCURVE SMOOTH",
"71 566 LINE SMOOTH"
);
},
{
closed = 1;
nodes = (
"321 566 OFFCURVE",
"315 572 OFFCURVE",
"315 580 OFFCURVE",
"321 586 OFFCURVE",
"327 586 QCURVE SMOOTH",
"441 586 LINE SMOOTH",
"447 586 OFFCURVE",
"453 580 OFFCURVE",
"453 572 OFFCURVE",
"447 566 OFFCURVE",
"441 566 QCURVE SMOOTH",
"327 566 LINE SMOOTH"
);
},
{
closed = 1;
nodes = (
"65 694 OFFCURVE",
"59 700 OFFCURVE",
"59 708 OFFCURVE",
"65 714 OFFCURVE",
"71 714 QCURVE SMOOTH",
"185 714 LINE SMOOTH",
"191 714 OFFCURVE",
"197 708 OFFCURVE",
"197 700 OFFCURVE",
"191 694 OFFCURVE",
"185 694 QCURVE SMOOTH",
"71 694 LINE SMOOTH"
);
},
{
closed = 1;
nodes = (
"321 694 OFFCURVE",
"315 700 OFFCURVE",
"315 708 OFFCURVE",
"321 714 OFFCURVE",
"327 714 QCURVE SMOOTH",
"441 714 LINE SMOOTH",
"447 714 OFFCURVE",
"453 708 OFFCURVE",
"453 700 OFFCURVE",
"447 694 OFFCURVE",
"441 694 QCURVE SMOOTH",
"327 694 LINE SMOOTH"
);
},
{
closed = 1;
nodes = (
"1 822 OFFCURVE",
"-5 828 OFFCURVE",
"-5 836 OFFCURVE",
"1 842 OFFCURVE",
"7 842 QCURVE SMOOTH",
"377 842 LINE SMOOTH",
"383 842 OFFCURVE",
"389 836 OFFCURVE",
"389 828 OFFCURVE",
"383 822 OFFCURVE",
"377 822 QCURVE SMOOTH",
"7 822 LINE SMOOTH"
);
}
);
width = 512;
},
{
layerId = "164C8123-3F0E-4C99-877D-0E85C432A9CE";
paths = (
{
closed = 1;
nodes = (
"17 -61 OFFCURVE",
"-63 13 OFFCURVE",
"-63 115 OFFCURVE",
"17 189 OFFCURVE",
"87 189 QCURVE SMOOTH",
"297 189 LINE SMOOTH",
"367 189 OFFCURVE",
"447 115 OFFCURVE",
"447 13 OFFCURVE",
"367 -61 OFFCURVE",
"297 -61 QCURVE SMOOTH",
"87 -61 LINE SMOOTH"
);
},
{
closed = 1;
nodes = (
"73 67 OFFCURVE",
"1 141 OFFCURVE",
"1 243 OFFCURVE",
"73 317 OFFCURVE",
"126 317 QCURVE SMOOTH",
"130 317 LINE SMOOTH",
"183 317 OFFCURVE",
"255 243 OFFCURVE",
"255 141 OFFCURVE",
"183 67 OFFCURVE",
"130 67 QCURVE SMOOTH",
"126 67 LINE SMOOTH"
);
},
{
closed = 1;
nodes = (
"329 67 OFFCURVE",
"257 141 OFFCURVE",
"257 243 OFFCURVE",
"329 317 OFFCURVE",
"382 317 QCURVE SMOOTH",
"386 317 LINE SMOOTH",
"439 317 OFFCURVE",
"511 243 OFFCURVE",
"511 141 OFFCURVE",
"439 67 OFFCURVE",
"386 67 QCURVE SMOOTH",
"382 67 LINE SMOOTH"
);
},
{
closed = 1;
nodes = (
"73 195 OFFCURVE",
"1 269 OFFCURVE",
"1 371 OFFCURVE",
"73 445 OFFCURVE",
"126 445 QCURVE SMOOTH",
"130 445 LINE SMOOTH",
"183 445 OFFCURVE",
"255 371 OFFCURVE",
"255 269 OFFCURVE",
"183 195 OFFCURVE",
"130 195 QCURVE SMOOTH",
"126 195 LINE SMOOTH"
);
},
{
closed = 1;
nodes = (
"329 195 OFFCURVE",
"257 269 OFFCURVE",
"257 371 OFFCURVE",
"329 445 OFFCURVE",
"382 445 QCURVE SMOOTH",
"386 445 LINE SMOOTH",
"439 445 OFFCURVE",
"511 371 OFFCURVE",
"511 269 OFFCURVE",
"439 195 OFFCURVE",
"386 195 QCURVE SMOOTH",
"382 195 LINE SMOOTH"
);
},
{
closed = 1;
nodes = (
"81 323 OFFCURVE",
"1 397 OFFCURVE",
"1 499 OFFCURVE",
"81 573 OFFCURVE",
"151 573 QCURVE SMOOTH",
"297 573 LINE SMOOTH",
"367 573 OFFCURVE",
"447 499 OFFCURVE",
"447 397 OFFCURVE",
"367 323 OFFCURVE",
"297 323 QCURVE SMOOTH",
"151 323 LINE SMOOTH"
);
},
{
closed = 1;
nodes = (
"73 451 OFFCURVE",
"1 525 OFFCURVE",
"1 627 OFFCURVE",
"73 701 OFFCURVE",
"126 701 QCURVE SMOOTH",
"130 701 LINE SMOOTH",
"183 701 OFFCURVE",
"255 627 OFFCURVE",
"255 525 OFFCURVE",
"183 451 OFFCURVE",
"130 451 QCURVE SMOOTH",
"126 451 LINE SMOOTH"
);
},
{
closed = 1;
nodes = (
"329 451 OFFCURVE",
"257 525 OFFCURVE",
"257 627 OFFCURVE",
"329 701 OFFCURVE",
"382 701 QCURVE SMOOTH",
"386 701 LINE SMOOTH",
"439 701 OFFCURVE",
"511 627 OFFCURVE",
"511 525 OFFCURVE",
"439 451 OFFCURVE",
"386 451 QCURVE SMOOTH",
"382 451 LINE SMOOTH"
);
},
{
closed = 1;
nodes = (
"73 579 OFFCURVE",
"1 653 OFFCURVE",
"1 755 OFFCURVE",
"73 829 OFFCURVE",
"126 829 QCURVE SMOOTH",
"130 829 LINE SMOOTH",
"183 829 OFFCURVE",
"255 755 OFFCURVE",
"255 653 OFFCURVE",
"183 579 OFFCURVE",
"130 579 QCURVE SMOOTH",
"126 579 LINE SMOOTH"
);
},
{
closed = 1;
nodes = (
"329 579 OFFCURVE",
"257 653 OFFCURVE",
"257 755 OFFCURVE",
"329 829 OFFCURVE",
"382 829 QCURVE SMOOTH",
"386 829 LINE SMOOTH",
"439 829 OFFCURVE",
"511 755 OFFCURVE",
"511 653 OFFCURVE",
"439 579 OFFCURVE",
"386 579 QCURVE SMOOTH",
"382 579 LINE SMOOTH"
);
},
{
closed = 1;
nodes = (
"17 707 OFFCURVE",
"-63 781 OFFCURVE",
"-63 883 OFFCURVE",
"17 957 OFFCURVE",
"87 957 QCURVE SMOOTH",
"297 957 LINE SMOOTH",
"367 957 OFFCURVE",
"447 883 OFFCURVE",
"447 781 OFFCURVE",
"367 707 OFFCURVE",
"297 707 QCURVE SMOOTH",
"87 707 LINE SMOOTH"
);
}
);
width = 512;
},
{
layerId = "EDC3ADDC-530C-4ECE-AAC6-732B149A8D4A";
paths = (
{
closed = 1;
nodes = (
"-87 54 OFFCURVE",
"-93 60 OFFCURVE",
"-93 68 OFFCURVE",
"-87 74 OFFCURVE",
"-81 74 QCURVE SMOOTH",
"465 74 LINE SMOOTH",
"471 74 OFFCURVE",
"477 68 OFFCURVE",
"477 60 OFFCURVE",
"471 54 OFFCURVE",
"465 54 QCURVE SMOOTH",
"-81 54 LINE SMOOTH"
);
},
{
closed = 1;
nodes = (
"-23 182 OFFCURVE",
"-29 188 OFFCURVE",
"-29 196 OFFCURVE",
"-23 202 OFFCURVE",
"-17 202 QCURVE SMOOTH",
"273 202 LINE SMOOTH",
"279 202 OFFCURVE",
"285 196 OFFCURVE",
"285 188 OFFCURVE",
"279 182 OFFCURVE",
"273 182 QCURVE SMOOTH",
"-17 182 LINE SMOOTH"
);
},
{
closed = 1;
nodes = (
"233 182 OFFCURVE",
"227 188 OFFCURVE",
"227 196 OFFCURVE",
"233 202 OFFCURVE",
"239 202 QCURVE SMOOTH",
"529 202 LINE SMOOTH",
"535 202 OFFCURVE",
"541 196 OFFCURVE",
"541 188 OFFCURVE",
"535 182 OFFCURVE",
"529 182 QCURVE SMOOTH",
"239 182 LINE SMOOTH"
);
},
{
closed = 1;
nodes = (
"-23 310 OFFCURVE",
"-29 316 OFFCURVE",
"-29 324 OFFCURVE",
"-23 330 OFFCURVE",
"-17 330 QCURVE SMOOTH",
"273 330 LINE SMOOTH",
"279 330 OFFCURVE",
"285 324 OFFCURVE",
"285 316 OFFCURVE",
"279 310 OFFCURVE",
"273 310 QCURVE SMOOTH",
"-17 310 LINE SMOOTH"
);
},
{
closed = 1;
nodes = (
"233 310 OFFCURVE",
"227 316 OFFCURVE",
"227 324 OFFCURVE",
"233 330 OFFCURVE",
"239 330 QCURVE SMOOTH",
"529 330 LINE SMOOTH",
"535 330 OFFCURVE",
"541 324 OFFCURVE",
"541 316 OFFCURVE",
"535 310 OFFCURVE",
"529 310 QCURVE SMOOTH",
"239 310 LINE SMOOTH"
);
},
{
closed = 1;
nodes = (
"-23 438 OFFCURVE",
"-29 444 OFFCURVE",
"-29 452 OFFCURVE",
"-23 458 OFFCURVE",
"-17 458 QCURVE SMOOTH",
"465 458 LINE SMOOTH",
"471 458 OFFCURVE",
"477 452 OFFCURVE",
"477 444 OFFCURVE",
"471 438 OFFCURVE",
"465 438 QCURVE SMOOTH",
"-17 438 LINE SMOOTH"
);
},
{
closed = 1;
nodes = (
"-23 566 OFFCURVE",
"-29 572 OFFCURVE",
"-29 580 OFFCURVE",
"-23 586 OFFCURVE",
"-17 586 QCURVE SMOOTH",
"273 586 LINE SMOOTH",
"279 586 OFFCURVE",
"285 580 OFFCURVE",
"285 572 OFFCURVE",
"279 566 OFFCURVE",
"273 566 QCURVE SMOOTH",
"-17 566 LINE SMOOTH"
);
},
{
closed = 1;
nodes = (
"233 566 OFFCURVE",
"227 572 OFFCURVE",
"227 580 OFFCURVE",
"233 586 OFFCURVE",
"239 586 QCURVE SMOOTH",
"529 586 LINE SMOOTH",
"535 586 OFFCURVE",
"541 580 OFFCURVE",
"541 572 OFFCURVE",
"535 566 OFFCURVE",
"529 566 QCURVE SMOOTH",
"239 566 LINE SMOOTH"
);
},
{
closed = 1;
nodes = (
"-23 694 OFFCURVE",
"-29 700 OFFCURVE",
"-29 708 OFFCURVE",
"-23 714 OFFCURVE",
"-17 714 QCURVE SMOOTH",
"273 714 LINE SMOOTH",
"279 714 OFFCURVE",
"285 708 OFFCURVE",
"285 700 OFFCURVE",
"279 694 OFFCURVE",
"273 694 QCURVE SMOOTH",
"-17 694 LINE SMOOTH"
);
},
{
closed = 1;
nodes = (
"233 694 OFFCURVE",
"227 700 OFFCURVE",
"227 708 OFFCURVE",
"233 714 OFFCURVE",
"239 714 QCURVE SMOOTH",
"529 714 LINE SMOOTH",
"535 714 OFFCURVE",
"541 708 OFFCURVE",
"541 700 OFFCURVE",
"535 694 OFFCURVE",
"529 694 QCURVE SMOOTH",
"239 694 LINE SMOOTH"
);
},
{
closed = 1;
nodes = (
"-87 822 OFFCURVE",
"-93 828 OFFCURVE",
"-93 836 OFFCURVE",
"-87 842 OFFCURVE",
"-81 842 QCURVE SMOOTH",
"465 842 LINE SMOOTH",
"471 842 OFFCURVE",
"477 836 OFFCURVE",
"477 828 OFFCURVE",
"471 822 OFFCURVE",
"465 822 QCURVE SMOOTH",
"-81 822 LINE SMOOTH"
);
}
);
width = 512;
},
{
layerId = "38088322-78A3-4F4F-B46E-F8355B0BCD96";
paths = (
{
closed = 1;
nodes = (
"-45 -61 OFFCURVE",
"-125 13 OFFCURVE",
"-125 115 OFFCURVE",
"-45 189 OFFCURVE",
"25 189 QCURVE SMOOTH",
"359 189 LINE SMOOTH",
"429 189 OFFCURVE",
"509 115 OFFCURVE",
"509 13 OFFCURVE",
"429 -61 OFFCURVE",
"359 -61 QCURVE SMOOTH",
"25 -61 LINE SMOOTH"
);
},
{
closed = 1;
nodes = (
"11 67 OFFCURVE",
"-61 141 OFFCURVE",
"-61 243 OFFCURVE",
"11 317 OFFCURVE",
"64 317 QCURVE SMOOTH",
"192 317 LINE SMOOTH",
"245 317 OFFCURVE",
"317 243 OFFCURVE",
"317 141 OFFCURVE",
"245 67 OFFCURVE",
"192 67 QCURVE SMOOTH",
"64 67 LINE SMOOTH"
);
},
{
closed = 1;
nodes = (
"267 67 OFFCURVE",
"195 141 OFFCURVE",
"195 243 OFFCURVE",
"267 317 OFFCURVE",
"320 317 QCURVE SMOOTH",
"448 317 LINE SMOOTH",
"501 317 OFFCURVE",
"573 243 OFFCURVE",
"573 141 OFFCURVE",
"501 67 OFFCURVE",
"448 67 QCURVE SMOOTH",
"320 67 LINE SMOOTH"
);
},
{
closed = 1;
nodes = (
"11 195 OFFCURVE",
"-61 269 OFFCURVE",
"-61 371 OFFCURVE",
"11 445 OFFCURVE",
"64 445 QCURVE SMOOTH",
"192 445 LINE SMOOTH",
"245 445 OFFCURVE",
"317 371 OFFCURVE",
"317 269 OFFCURVE",
"245 195 OFFCURVE",
"192 195 QCURVE SMOOTH",
"64 195 LINE SMOOTH"
);
},
{
closed = 1;
nodes = (
"267 195 OFFCURVE",
"195 269 OFFCURVE",
"195 371 OFFCURVE",
"267 445 OFFCURVE",
"320 445 QCURVE SMOOTH",
"448 445 LINE SMOOTH",
"501 445 OFFCURVE",
"573 371 OFFCURVE",
"573 269 OFFCURVE",
"501 195 OFFCURVE",
"448 195 QCURVE SMOOTH",
"320 195 LINE SMOOTH"
);
},
{
closed = 1;
nodes = (
"19 323 OFFCURVE",
"-61 397 OFFCURVE",
"-61 499 OFFCURVE",
"19 573 OFFCURVE",
"89 573 QCURVE SMOOTH",
"359 573 LINE SMOOTH",
"429 573 OFFCURVE",
"509 499 OFFCURVE",
"509 397 OFFCURVE",
"429 323 OFFCURVE",
"359 323 QCURVE SMOOTH",
"89 323 LINE SMOOTH"
);
},
{
closed = 1;
nodes = (
"11 451 OFFCURVE",
"-61 525 OFFCURVE",
"-61 627 OFFCURVE",
"11 701 OFFCURVE",
"64 701 QCURVE SMOOTH",
"192 701 LINE SMOOTH",
"245 701 OFFCURVE",
"317 627 OFFCURVE",
"317 525 OFFCURVE",
"245 451 OFFCURVE",
"192 451 QCURVE SMOOTH",
"64 451 LINE SMOOTH"
);
},
{
closed = 1;
nodes = (
"267 451 OFFCURVE",
"195 525 OFFCURVE",
"195 627 OFFCURVE",
"267 701 OFFCURVE",
"320 701 QCURVE SMOOTH",
"448 701 LINE SMOOTH",
"501 701 OFFCURVE",
"573 627 OFFCURVE",
"573 525 OFFCURVE",
"501 451 OFFCURVE",
"448 451 QCURVE SMOOTH",
"320 451 LINE SMOOTH"
);
},
{
closed = 1;
nodes = (
"11 579 OFFCURVE",
"-61 653 OFFCURVE",
"-61 755 OFFCURVE",
"11 829 OFFCURVE",
"64 829 QCURVE SMOOTH",
"192 829 LINE SMOOTH",
"245 829 OFFCURVE",
"317 755 OFFCURVE",
"317 653 OFFCURVE",
"245 579 OFFCURVE",
"192 579 QCURVE SMOOTH",
"64 579 LINE SMOOTH"
);
},
{
closed = 1;
nodes = (
"267 579 OFFCURVE",
"195 653 OFFCURVE",
"195 755 OFFCURVE",
"267 829 OFFCURVE",
"320 829 QCURVE SMOOTH",
"448 829 LINE SMOOTH",
"501 829 OFFCURVE",
"573 755 OFFCURVE",
"573 653 OFFCURVE",
"501 579 OFFCURVE",
"448 579 QCURVE SMOOTH",
"320 579 LINE SMOOTH"
);
},
{
closed = 1;
nodes = (
"-45 707 OFFCURVE",
"-125 781 OFFCURVE",
"-125 883 OFFCURVE",
"-45 957 OFFCURVE",
"25 957 QCURVE SMOOTH",
"359 957 LINE SMOOTH",
"429 957 OFFCURVE",
"509 883 OFFCURVE",
"509 781 OFFCURVE",
"429 707 OFFCURVE",
"359 707 QCURVE SMOOTH",
"25 707 LINE SMOOTH"
);
}
);
width = 512;
}
);
unicode = 0042;
},
{
glyphname = C;
lastChange = "2019-07-27 12:32:26 +0000";
layers = (
{
background = {
paths = (
{
closed = 1;
nodes = (
"61 643 LINE",
"61 771 LINE",
"125 771 LINE",
"125 899 LINE",
"387 899 LINE",
"387 771 LINE",
"451 771 LINE",
"451 637 LINE",
"317 637 LINE",
"317 765 LINE",
"195 765 LINE",
"195 637 LINE",
"131 637 LINE",
"131 259 LINE",
"195 259 LINE",
"195 131 LINE",
"317 131 LINE",
"317 259 LINE",
"451 259 LINE",
"451 125 LINE",
"387 125 LINE",
"387 -3 LINE",
"125 -3 LINE",
"125 125 LINE",
"61 125 LINE",
"61 253 LINE",
"-3 253 LINE",
"-3 643 LINE"
);
}
);
};
layerId = master01;
paths = (
{
closed = 0;
nodes = (
"125 64 LINE",
"387 64 LINE"
);
},
{
closed = 0;
nodes = (
"61 192 LINE",
"195 192 LINE"
);
},
{
closed = 0;
nodes = (
"317 192 LINE",
"451 192 LINE"
);
},
{
closed = 0;
nodes = (
"-3 320 LINE",
"131 320 LINE"
);
},
{
closed = 0;
nodes = (
"-3 448 LINE",
"131 448 LINE"
);
},
{
closed = 0;
nodes = (
"-3 576 LINE",
"131 576 LINE"
);
},
{
closed = 0;
nodes = (
"61 704 LINE",
"195 704 LINE"
);
},
{
closed = 0;
nodes = (
"317 704 LINE",
"451 704 LINE"
);
},
{
closed = 0;
nodes = (
"125 832 LINE",
"387 832 LINE"
);
}
);
userData = {
com.typemytype.robofont.mark = (
0.656,
1,
0.6,
1
);
};
width = 512;
},
{
layerId = "968AADD4-6AAB-4A21-B439-CFC52095EED4";
paths = (
{
closed = 1;
nodes = (
"61 643 LINE",
"61 771 LINE",
"125 771 LINE",
"125 899 LINE",
"387 899 LINE",
"387 771 LINE",
"451 771 LINE",
"451 637 LINE",
"317 637 LINE",
"317 765 LINE",
"195 765 LINE",
"195 637 LINE",
"131 637 LINE",
"131 259 LINE",
"195 259 LINE",
"195 131 LINE",
"317 131 LINE",
"317 259 LINE",
"451 259 LINE",
"451 125 LINE",
"387 125 LINE",
"387 -3 LINE",
"125 -3 LINE",
"125 125 LINE",
"61 125 LINE",
"61 253 LINE",
"-3 253 LINE",
"-3 643 LINE"
);
}
);
userData = {
com.typemytype.robofont.mark = (
0.656,
1,
0.6,
1
);
};
width = 512;
},
{
layerId = "EF047752-ED93-49D3-A4D1-D66A6AAE90C7";
paths = (
{
closed = 1;
nodes = (
"129 54 OFFCURVE",
"123 60 OFFCURVE",
"123 68 OFFCURVE",
"129 74 OFFCURVE",
"135 74 QCURVE SMOOTH",
"377 74 LINE SMOOTH",
"383 74 OFFCURVE",
"389 68 OFFCURVE",
"389 60 OFFCURVE",
"383 54 OFFCURVE",
"377 54 QCURVE SMOOTH",
"135 54 LINE SMOOTH"
);
},
{
closed = 1;
nodes = (
"65 182 OFFCURVE",
"59 188 OFFCURVE",
"59 196 OFFCURVE",
"65 202 OFFCURVE",
"71 202 QCURVE SMOOTH",
"185 202 LINE SMOOTH",
"191 202 OFFCURVE",
"197 196 OFFCURVE",
"197 188 OFFCURVE",
"191 182 OFFCURVE",
"185 182 QCURVE SMOOTH",
"71 182 LINE SMOOTH"
);
},
{
closed = 1;
nodes = (
"321 182 OFFCURVE",
"315 188 OFFCURVE",
"315 196 OFFCURVE",
"321 202 OFFCURVE",
"327 202 QCURVE SMOOTH",
"441 202 LINE SMOOTH",
"447 202 OFFCURVE",
"453 196 OFFCURVE",
"453 188 OFFCURVE",
"447 182 OFFCURVE",
"441 182 QCURVE SMOOTH",
"327 182 LINE SMOOTH"
);
},
{
closed = 1;
nodes = (
"1 310 OFFCURVE",
"-5 316 OFFCURVE",
"-5 324 OFFCURVE",
"1 330 OFFCURVE",
"7 330 QCURVE SMOOTH",
"121 330 LINE SMOOTH",
"127 330 OFFCURVE",
"133 324 OFFCURVE",
"133 316 OFFCURVE",
"127 310 OFFCURVE",
"121 310 QCURVE SMOOTH",
"7 310 LINE SMOOTH"
);
},
{
closed = 1;
nodes = (
"1 438 OFFCURVE",
"-5 444 OFFCURVE",
"-5 452 OFFCURVE",
"1 458 OFFCURVE",
"7 458 QCURVE SMOOTH",
"121 458 LINE SMOOTH",
"127 458 OFFCURVE",
"133 452 OFFCURVE",
"133 444 OFFCURVE",
"127 438 OFFCURVE",
"121 438 QCURVE SMOOTH",
"7 438 LINE SMOOTH"
);
},
{
closed = 1;
nodes = (
"1 566 OFFCURVE",
"-5 572 OFFCURVE",
"-5 580 OFFCURVE",
"1 586 OFFCURVE",
"7 586 QCURVE SMOOTH",
"121 586 LINE SMOOTH",
"127 586 OFFCURVE",
"133 580 OFFCURVE",
"133 572 OFFCURVE",
"127 566 OFFCURVE",
"121 566 QCURVE SMOOTH",
"7 566 LINE SMOOTH"
);
},
{
closed = 1;
nodes = (
"65 694 OFFCURVE",
"59 700 OFFCURVE",
"59 708 OFFCURVE",
"65 714 OFFCURVE",
"71 714 QCURVE SMOOTH",
"185 714 LINE SMOOTH",
"191 714 OFFCURVE",
"197 708 OFFCURVE",
"197 700 OFFCURVE",
"191 694 OFFCURVE",
"185 694 QCURVE SMOOTH",
"71 694 LINE SMOOTH"
);
},
{
closed = 1;
nodes = (
"321 694 OFFCURVE",
"315 700 OFFCURVE",
"315 708 OFFCURVE",
"321 714 OFFCURVE",
"327 714 QCURVE SMOOTH",
"441 714 LINE SMOOTH",
"447 714 OFFCURVE",
"453 708 OFFCURVE",
"453 700 OFFCURVE",
"447 694 OFFCURVE",
"441 694 QCURVE SMOOTH",
"327 694 LINE SMOOTH"
);
},
{
closed = 1;
nodes = (
"129 822 OFFCURVE",
"123 828 OFFCURVE",
"123 836 OFFCURVE",
"129 842 OFFCURVE",
"135 842 QCURVE SMOOTH",
"377 842 LINE SMOOTH",
"383 842 OFFCURVE",
"389 836 OFFCURVE",
"389 828 OFFCURVE",
"383 822 OFFCURVE",
"377 822 QCURVE SMOOTH",
"135 822 LINE SMOOTH"
);
}
);
width = 512;
},
{
layerId = "164C8123-3F0E-4C99-877D-0E85C432A9CE";
paths = (
{
closed = 1;
nodes = (
"145 -61 OFFCURVE",
"65 13 OFFCURVE",
"65 115 OFFCURVE",
"145 189 OFFCURVE",
"215 189 QCURVE SMOOTH",
"297 189 LINE SMOOTH",
"367 189 OFFCURVE",
"447 115 OFFCURVE",
"447 13 OFFCURVE",
"367 -61 OFFCURVE",
"297 -61 QCURVE SMOOTH",
"215 -61 LINE SMOOTH"
);
},
{
closed = 1;
nodes = (
"73 67 OFFCURVE",
"1 141 OFFCURVE",
"1 243 OFFCURVE",
"73 317 OFFCURVE",
"126 317 QCURVE SMOOTH",
"130 317 LINE SMOOTH",
"183 317 OFFCURVE",
"255 243 OFFCURVE",
"255 141 OFFCURVE",
"183 67 OFFCURVE",
"130 67 QCURVE SMOOTH",
"126 67 LINE SMOOTH"
);
},
{
closed = 1;
nodes = (
"329 67 OFFCURVE",
"257 141 OFFCURVE",
"257 243 OFFCURVE",
"329 317 OFFCURVE",
"382 317 QCURVE SMOOTH",
"386 317 LINE SMOOTH",
"439 317 OFFCURVE",
"511 243 OFFCURVE",
"511 141 OFFCURVE",
"439 67 OFFCURVE",
"386 67 QCURVE SMOOTH",
"382 67 LINE SMOOTH"
);
},
{
closed = 1;
nodes = (
"9 195 OFFCURVE",
"-63 269 OFFCURVE",
"-63 371 OFFCURVE",
"9 445 OFFCURVE",
"62 445 QCURVE SMOOTH",
"66 445 LINE SMOOTH",
"119 445 OFFCURVE",
"191 371 OFFCURVE",
"191 269 OFFCURVE",
"119 195 OFFCURVE",
"66 195 QCURVE SMOOTH",
"62 195 LINE SMOOTH"
);
},
{
closed = 1;
nodes = (
"9 323 OFFCURVE",
"-63 397 OFFCURVE",
"-63 499 OFFCURVE",
"9 573 OFFCURVE",
"62 573 QCURVE SMOOTH",
"66 573 LINE SMOOTH",
"119 573 OFFCURVE",
"191 499 OFFCURVE",
"191 397 OFFCURVE",
"119 323 OFFCURVE",
"66 323 QCURVE SMOOTH",
"62 323 LINE SMOOTH"
);
},
{
closed = 1;
nodes = (
"9 451 OFFCURVE",
"-63 525 OFFCURVE",
"-63 627 OFFCURVE",
"9 701 OFFCURVE",
"62 701 QCURVE SMOOTH",
"66 701 LINE SMOOTH",
"119 701 OFFCURVE",
"191 627 OFFCURVE",
"191 525 OFFCURVE",
"119 451 OFFCURVE",
"66 451 QCURVE SMOOTH",
"62 451 LINE SMOOTH"
);
},
{
closed = 1;
nodes = (
"73 579 OFFCURVE",
"1 653 OFFCURVE",
"1 755 OFFCURVE",
"73 829 OFFCURVE",
"126 829 QCURVE SMOOTH",
"130 829 LINE SMOOTH",
"183 829 OFFCURVE",
"255 755 OFFCURVE",
"255 653 OFFCURVE",
"183 579 OFFCURVE",
"130 579 QCURVE SMOOTH",
"126 579 LINE SMOOTH"
);
},
{
closed = 1;
nodes = (
"329 579 OFFCURVE",
"257 653 OFFCURVE",
"257 755 OFFCURVE",
"329 829 OFFCURVE",
"382 829 QCURVE SMOOTH",
"386 829 LINE SMOOTH",
"439 829 OFFCURVE",
"511 755 OFFCURVE",
"511 653 OFFCURVE",
"439 579 OFFCURVE",
"386 579 QCURVE SMOOTH",
"382 579 LINE SMOOTH"
);
},
{
closed = 1;
nodes = (
"145 707 OFFCURVE",
"65 781 OFFCURVE",
"65 883 OFFCURVE",
"145 957 OFFCURVE",
"215 957 QCURVE SMOOTH",
"297 957 LINE SMOOTH",
"367 957 OFFCURVE",
"447 883 OFFCURVE",
"447 781 OFFCURVE",
"367 707 OFFCURVE",
"297 707 QCURVE SMOOTH",
"215 707 LINE SMOOTH"
);
}
);
width = 512;
},
{
layerId = "EDC3ADDC-530C-4ECE-AAC6-732B149A8D4A";
paths = (
{
closed = 1;
nodes = (
"41 54 OFFCURVE",
"35 60 OFFCURVE",
"35 68 OFFCURVE",
"41 74 OFFCURVE",
"47 74 QCURVE SMOOTH",
"465 74 LINE SMOOTH",
"471 74 OFFCURVE",
"477 68 OFFCURVE",
"477 60 OFFCURVE",
"471 54 OFFCURVE",
"465 54 QCURVE SMOOTH",
"47 54 LINE SMOOTH"
);
},
{
closed = 1;
nodes = (
"-23 182 OFFCURVE",
"-29 188 OFFCURVE",
"-29 196 OFFCURVE",
"-23 202 OFFCURVE",
"-17 202 QCURVE SMOOTH",
"273 202 LINE SMOOTH",
"279 202 OFFCURVE",
"285 196 OFFCURVE",
"285 188 OFFCURVE",
"279 182 OFFCURVE",
"273 182 QCURVE SMOOTH",
"-17 182 LINE SMOOTH"
);
},
{
closed = 1;
nodes = (
"233 182 OFFCURVE",
"227 188 OFFCURVE",
"227 196 OFFCURVE",
"233 202 OFFCURVE",
"239 202 QCURVE SMOOTH",
"529 202 LINE SMOOTH",
"535 202 OFFCURVE",
"541 196 OFFCURVE",
"541 188 OFFCURVE",
"535 182 OFFCURVE",
"529 182 QCURVE SMOOTH",
"239 182 LINE SMOOTH"
);
},
{
closed = 1;
nodes = (
"-87 310 OFFCURVE",
"-93 316 OFFCURVE",
"-93 324 OFFCURVE",
"-87 330 OFFCURVE",
"-81 330 QCURVE SMOOTH",
"209 330 LINE SMOOTH",
"215 330 OFFCURVE",
"221 324 OFFCURVE",
"221 316 OFFCURVE",
"215 310 OFFCURVE",
"209 310 QCURVE SMOOTH",
"-81 310 LINE SMOOTH"
);
},
{
closed = 1;
nodes = (
"-87 438 OFFCURVE",
"-93 444 OFFCURVE",
"-93 452 OFFCURVE",
"-87 458 OFFCURVE",
"-81 458 QCURVE SMOOTH",
"209 458 LINE SMOOTH",
"215 458 OFFCURVE",
"221 452 OFFCURVE",
"221 444 OFFCURVE",
"215 438 OFFCURVE",
"209 438 QCURVE SMOOTH",
"-81 438 LINE SMOOTH"
);
},
{
closed = 1;
nodes = (
"-87 566 OFFCURVE",
"-93 572 OFFCURVE",
"-93 580 OFFCURVE",
"-87 586 OFFCURVE",
"-81 586 QCURVE SMOOTH",
"209 586 LINE SMOOTH",
"215 586 OFFCURVE",
"221 580 OFFCURVE",
"221 572 OFFCURVE",
"215 566 OFFCURVE",
"209 566 QCURVE SMOOTH",
"-81 566 LINE SMOOTH"
);
},
{
closed = 1;
nodes = (
"-23 694 OFFCURVE",
"-29 700 OFFCURVE",
"-29 708 OFFCURVE",
"-23 714 OFFCURVE",
"-17 714 QCURVE SMOOTH",
"273 714 LINE SMOOTH",
"279 714 OFFCURVE",
"285 708 OFFCURVE",
"285 700 OFFCURVE",
"279 694 OFFCURVE",
"273 694 QCURVE SMOOTH",
"-17 694 LINE SMOOTH"
);
},
{
closed = 1;
nodes = (
"233 694 OFFCURVE",
"227 700 OFFCURVE",
"227 708 OFFCURVE",
"233 714 OFFCURVE",
"239 714 QCURVE SMOOTH",
"529 714 LINE SMOOTH",
"535 714 OFFCURVE",
"541 708 OFFCURVE",
"541 700 OFFCURVE",
"535 694 OFFCURVE",
"529 694 QCURVE SMOOTH",
"239 694 LINE SMOOTH"
);
},
{
closed = 1;
nodes = (
"41 822 OFFCURVE",
"35 828 OFFCURVE",
"35 836 OFFCURVE",
"41 842 OFFCURVE",
"47 842 QCURVE SMOOTH",
"465 842 LINE SMOOTH",
"471 842 OFFCURVE",
"477 836 OFFCURVE",
"477 828 OFFCURVE",
"471 822 OFFCURVE",
"465 822 QCURVE SMOOTH",
"47 822 LINE SMOOTH"
);
}
);
width = 512;
},
{
layerId = "38088322-78A3-4F4F-B46E-F8355B0BCD96";
paths = (
{
closed = 1;
nodes = (
"83 -61 OFFCURVE",
"3 13 OFFCURVE",
"3 115 OFFCURVE",
"83 189 OFFCURVE",
"153 189 QCURVE SMOOTH",
"359 189 LINE SMOOTH",
"429 189 OFFCURVE",
"509 115 OFFCURVE",
"509 13 OFFCURVE",
"429 -61 OFFCURVE",
"359 -61 QCURVE SMOOTH",
"153 -61 LINE SMOOTH"
);
},
{
closed = 1;
nodes = (
"11 67 OFFCURVE",
"-61 141 OFFCURVE",
"-61 243 OFFCURVE",
"11 317 OFFCURVE",
"64 317 QCURVE SMOOTH",
"192 317 LINE SMOOTH",
"245 317 OFFCURVE",
"317 243 OFFCURVE",
"317 141 OFFCURVE",
"245 67 OFFCURVE",
"192 67 QCURVE SMOOTH",
"64 67 LINE SMOOTH"
);
},
{
closed = 1;
nodes = (
"267 67 OFFCURVE",
"195 141 OFFCURVE",
"195 243 OFFCURVE",
"267 317 OFFCURVE",
"320 317 QCURVE SMOOTH",
"448 317 LINE SMOOTH",
"501 317 OFFCURVE",
"573 243 OFFCURVE",
"573 141 OFFCURVE",
"501 67 OFFCURVE",
"448 67 QCURVE SMOOTH",
"320 67 LINE SMOOTH"
);
},
{
closed = 1;
nodes = (
"-53 195 OFFCURVE",
"-125 269 OFFCURVE",
"-125 371 OFFCURVE",
"-53 445 OFFCURVE",
"0 445 QCURVE SMOOTH",
"128 445 LINE SMOOTH",
"181 445 OFFCURVE",
"253 371 OFFCURVE",
"253 269 OFFCURVE",
"181 195 OFFCURVE",
"128 195 QCURVE SMOOTH",
"0 195 LINE SMOOTH"
);
},
{
closed = 1;
nodes = (
"-53 323 OFFCURVE",
"-125 397 OFFCURVE",
"-125 499 OFFCURVE",
"-53 573 OFFCURVE",
"0 573 QCURVE SMOOTH",
"128 573 LINE SMOOTH",
"181 573 OFFCURVE",
"253 499 OFFCURVE",
"253 397 OFFCURVE",
"181 323 OFFCURVE",
"128 323 QCURVE SMOOTH",
"0 323 LINE SMOOTH"
);
},
{
closed = 1;
nodes = (
"-53 451 OFFCURVE",
"-125 525 OFFCURVE",
"-125 627 OFFCURVE",
"-53 701 OFFCURVE",
"0 701 QCURVE SMOOTH",
"128 701 LINE SMOOTH",
"181 701 OFFCURVE",
"253 627 OFFCURVE",
"253 525 OFFCURVE",
"181 451 OFFCURVE",
"128 451 QCURVE SMOOTH",
"0 451 LINE SMOOTH"
);
},
{
closed = 1;
nodes = (
"11 579 OFFCURVE",
"-61 653 OFFCURVE",
"-61 755 OFFCURVE",
"11 829 OFFCURVE",
"64 829 QCURVE SMOOTH",
"192 829 LINE SMOOTH",
"245 829 OFFCURVE",
"317 755 OFFCURVE",
"317 653 OFFCURVE",
"245 579 OFFCURVE",
"192 579 QCURVE SMOOTH",
"64 579 LINE SMOOTH"
);
},
{
closed = 1;
nodes = (
"267 579 OFFCURVE",
"195 653 OFFCURVE",
"195 755 OFFCURVE",
"267 829 OFFCURVE",
"320 829 QCURVE SMOOTH",
"448 829 LINE SMOOTH",
"501 829 OFFCURVE",
"573 755 OFFCURVE",
"573 653 OFFCURVE",
"501 579 OFFCURVE",
"448 579 QCURVE SMOOTH",
"320 579 LINE SMOOTH"
);
},
{
closed = 1;
nodes = (
"83 707 OFFCURVE",
"3 781 OFFCURVE",
"3 883 OFFCURVE",
"83 957 OFFCURVE",
"153 957 QCURVE SMOOTH",
"359 957 LINE SMOOTH",
"429 957 OFFCURVE",
"509 883 OFFCURVE",
"509 781 OFFCURVE",
"429 707 OFFCURVE",
"359 707 QCURVE SMOOTH",
"153 707 LINE SMOOTH"
);
}
);
width = 512;
}
);
unicode = 0043;
},
{
glyphname = Ccedilla;
lastChange = "2019-07-27 12:32:26 +0000";
layers = (
{
background = {
paths = (
{
closed = 1;
nodes = (
"61 643 LINE",
"61 771 LINE",
"125 771 LINE",
"125 899 LINE",
"387 899 LINE",
"387 771 LINE",
"451 771 LINE",
"451 637 LINE",
"317 637 LINE",
"317 765 LINE",
"195 765 LINE",
"195 637 LINE",
"131 637 LINE",
"131 387 LINE",
"195 387 LINE",
"195 259 LINE",
"317 259 LINE",
"317 387 LINE",
"451 387 LINE",
"451 253 LINE",
"387 253 LINE",
"387 125 LINE",
"323 125 LINE",
"323 -3 LINE",
"259 -3 LINE",
"259 -131 LINE",
"125 -131 LINE",
"125 3 LINE",
"253 3 LINE",
"253 125 LINE",
"125 125 LINE",
"125 253 LINE",
"61 253 LINE",
"61 381 LINE",
"-3 381 LINE",
"-3 643 LINE"
);
}
);
};
layerId = master01;
paths = (
{
closed = 0;
nodes = (
"125 -64 LINE",
"259 -64 LINE"
);
},
{
closed = 0;
nodes = (
"253 64 LINE",
"323 64 LINE"
);
},
{
closed = 0;
nodes = (
"125 192 LINE",
"387 192 LINE"
);
},
{
closed = 0;
nodes = (
"61 320 LINE",
"195 320 LINE"
);
},
{
closed = 0;
nodes = (
"317 320 LINE",
"451 320 LINE"
);
},
{
closed = 0;
nodes = (
"-3 448 LINE",
"131 448 LINE"
);
},
{
closed = 0;
nodes = (
"-3 576 LINE",
"131 576 LINE"
);
},
{
closed = 0;
nodes = (
"61 704 LINE",
"195 704 LINE"
);
},
{
closed = 0;
nodes = (
"317 704 LINE",
"451 704 LINE"
);
},
{
closed = 0;
nodes = (
"125 832 LINE",
"387 832 LINE"
);
}
);
userData = {
com.typemytype.robofont.mark = (
0.656,
1,
0.6,
1
);
};
width = 512;
},
{
layerId = "968AADD4-6AAB-4A21-B439-CFC52095EED4";
paths = (
{
closed = 1;
nodes = (
"61 643 LINE",
"61 771 LINE",
"125 771 LINE",
"125 899 LINE",
"387 899 LINE",
"387 771 LINE",
"451 771 LINE",
"451 637 LINE",
"317 637 LINE",
"317 765 LINE",
"195 765 LINE",
"195 637 LINE",
"131 637 LINE",
"131 387 LINE",
"195 387 LINE",
"195 259 LINE",
"317 259 LINE",
"317 387 LINE",
"451 387 LINE",
"451 253 LINE",
"387 253 LINE",
"387 125 LINE",
"323 125 LINE",
"323 -3 LINE",
"259 -3 LINE",
"259 -131 LINE",
"125 -131 LINE",
"125 3 LINE",
"253 3 LINE",
"253 125 LINE",
"125 125 LINE",
"125 253 LINE",
"61 253 LINE",
"61 381 LINE",
"-3 381 LINE",
"-3 643 LINE"
);
}
);
userData = {
com.typemytype.robofont.mark = (
0.656,
1,
0.6,
1
);
};
width = 512;
},
{
layerId = "EF047752-ED93-49D3-A4D1-D66A6AAE90C7";
paths = (
{
closed = 1;
nodes = (
"129 -74 OFFCURVE",
"123 -68 OFFCURVE",
"123 -60 OFFCURVE",
"129 -54 OFFCURVE",
"135 -54 QCURVE SMOOTH",
"249 -54 LINE SMOOTH",
"255 -54 OFFCURVE",
"261 -60 OFFCURVE",
"261 -68 OFFCURVE",
"255 -74 OFFCURVE",
"249 -74 QCURVE SMOOTH",
"135 -74 LINE SMOOTH"
);
},
{
closed = 1;
nodes = (
"257 54 OFFCURVE",
"251 60 OFFCURVE",
"251 68 OFFCURVE",
"257 74 OFFCURVE",
"263 74 QCURVE SMOOTH",
"313 74 LINE SMOOTH",
"319 74 OFFCURVE",
"325 68 OFFCURVE",
"325 60 OFFCURVE",
"319 54 OFFCURVE",
"313 54 QCURVE SMOOTH",
"263 54 LINE SMOOTH"
);
},
{
closed = 1;
nodes = (
"129 182 OFFCURVE",
"123 188 OFFCURVE",
"123 196 OFFCURVE",
"129 202 OFFCURVE",
"135 202 QCURVE SMOOTH",
"377 202 LINE SMOOTH",
"383 202 OFFCURVE",
"389 196 OFFCURVE",
"389 188 OFFCURVE",
"383 182 OFFCURVE",
"377 182 QCURVE SMOOTH",
"135 182 LINE SMOOTH"
);
},
{
closed = 1;
nodes = (
"65 310 OFFCURVE",
"59 316 OFFCURVE",
"59 324 OFFCURVE",
"65 330 OFFCURVE",
"71 330 QCURVE SMOOTH",
"185 330 LINE SMOOTH",
"191 330 OFFCURVE",
"197 324 OFFCURVE",
"197 316 OFFCURVE",
"191 310 OFFCURVE",
"185 310 QCURVE SMOOTH",
"71 310 LINE SMOOTH"
);
},
{
closed = 1;
nodes = (
"321 310 OFFCURVE",
"315 316 OFFCURVE",
"315 324 OFFCURVE",
"321 330 OFFCURVE",
"327 330 QCURVE SMOOTH",
"441 330 LINE SMOOTH",
"447 330 OFFCURVE",
"453 324 OFFCURVE",
"453 316 OFFCURVE",
"447 310 OFFCURVE",
"441 310 QCURVE SMOOTH",
"327 310 LINE SMOOTH"
);
},
{
closed = 1;
nodes = (
"1 438 OFFCURVE",
"-5 444 OFFCURVE",
"-5 452 OFFCURVE",
"1 458 OFFCURVE",
"7 458 QCURVE SMOOTH",
"121 458 LINE SMOOTH",
"127 458 OFFCURVE",
"133 452 OFFCURVE",
"133 444 OFFCURVE",
"127 438 OFFCURVE",
"121 438 QCURVE SMOOTH",
"7 438 LINE SMOOTH"
);
},
{
closed = 1;
nodes = (
"1 566 OFFCURVE",
"-5 572 OFFCURVE",
"-5 580 OFFCURVE",
"1 586 OFFCURVE",
"7 586 QCURVE SMOOTH",
"121 586 LINE SMOOTH",
"127 586 OFFCURVE",
"133 580 OFFCURVE",
"133 572 OFFCURVE",
"127 566 OFFCURVE",
"121 566 QCURVE SMOOTH",
"7 566 LINE SMOOTH"
);
},
{
closed = 1;
nodes = (
"65 694 OFFCURVE",
"59 700 OFFCURVE",
"59 708 OFFCURVE",
"65 714 OFFCURVE",
"71 714 QCURVE SMOOTH",
"185 714 LINE SMOOTH",
"191 714 OFFCURVE",
"197 708 OFFCURVE",
"197 700 OFFCURVE",
"191 694 OFFCURVE",
"185 694 QCURVE SMOOTH",
"71 694 LINE SMOOTH"
);
},
{
closed = 1;
nodes = (
"321 694 OFFCURVE",
"315 700 OFFCURVE",
"315 708 OFFCURVE",
"321 714 OFFCURVE",
"327 714 QCURVE SMOOTH",
"441 714 LINE SMOOTH",
"447 714 OFFCURVE",
"453 708 OFFCURVE",
"453 700 OFFCURVE",
"447 694 OFFCURVE",
"441 694 QCURVE SMOOTH",
"327 694 LINE SMOOTH"
);
},
{
closed = 1;
nodes = (
"129 822 OFFCURVE",
"123 828 OFFCURVE",
"123 836 OFFCURVE",
"129 842 OFFCURVE",
"135 842 QCURVE SMOOTH",
"377 842 LINE SMOOTH",
"383 842 OFFCURVE",
"389 836 OFFCURVE",
"389 828 OFFCURVE",
"383 822 OFFCURVE",
"377 822 QCURVE SMOOTH",
"135 822 LINE SMOOTH"
);
}
);
width = 512;
},
{
background = {
paths = (
{
closed = 1;
nodes = (
"137 -189 OFFCURVE",
"65 -115 OFFCURVE",
"65 -13 OFFCURVE",
"137 61 OFFCURVE",
"190 61 QCURVE SMOOTH",
"194 61 LINE SMOOTH",
"247 61 OFFCURVE",
"319 -13 OFFCURVE",
"319 -115 OFFCURVE",
"247 -189 OFFCURVE",
"194 -189 QCURVE SMOOTH",
"190 -189 LINE SMOOTH"
);
},
{
closed = 1;
nodes = (
"265 -61 OFFCURVE",
"193 13 OFFCURVE",
"193 115 OFFCURVE",
"265 189 OFFCURVE",
"318 189 QCURVE SMOOTH",
"258 189 LINE SMOOTH",
"311 189 OFFCURVE",
"383 115 OFFCURVE",
"383 13 OFFCURVE",
"311 -61 OFFCURVE",
"258 -61 QCURVE SMOOTH",
"318 -61 LINE SMOOTH"
);
},
{
closed = 1;
nodes = (
"145 67 OFFCURVE",
"65 141 OFFCURVE",
"65 243 OFFCURVE",
"145 317 OFFCURVE",
"215 317 QCURVE SMOOTH",
"297 317 LINE SMOOTH",
"367 317 OFFCURVE",
"447 243 OFFCURVE",
"447 141 OFFCURVE",
"367 67 OFFCURVE",
"297 67 QCURVE SMOOTH",
"215 67 LINE SMOOTH"
);
},
{
closed = 1;
nodes = (
"73 195 OFFCURVE",
"1 269 OFFCURVE",
"1 371 OFFCURVE",
"73 445 OFFCURVE",
"126 445 QCURVE SMOOTH",
"130 445 LINE SMOOTH",
"183 445 OFFCURVE",
"255 371 OFFCURVE",
"255 269 OFFCURVE",
"183 195 OFFCURVE",
"130 195 QCURVE SMOOTH",
"126 195 LINE SMOOTH"
);
},
{
closed = 1;
nodes = (
"329 195 OFFCURVE",
"257 269 OFFCURVE",
"257 371 OFFCURVE",
"329 445 OFFCURVE",
"382 445 QCURVE SMOOTH",
"386 445 LINE SMOOTH",
"439 445 OFFCURVE",
"511 371 OFFCURVE",
"511 269 OFFCURVE",
"439 195 OFFCURVE",
"386 195 QCURVE SMOOTH",
"382 195 LINE SMOOTH"
);
},
{
closed = 1;
nodes = (
"9 323 OFFCURVE",
"-63 397 OFFCURVE",
"-63 499 OFFCURVE",
"9 573 OFFCURVE",
"62 573 QCURVE SMOOTH",
"66 573 LINE SMOOTH",
"119 573 OFFCURVE",
"191 499 OFFCURVE",
"191 397 OFFCURVE",
"119 323 OFFCURVE",
"66 323 QCURVE SMOOTH",
"62 323 LINE SMOOTH"
);
},
{
closed = 1;
nodes = (
"9 451 OFFCURVE",
"-63 525 OFFCURVE",
"-63 627 OFFCURVE",
"9 701 OFFCURVE",
"62 701 QCURVE SMOOTH",
"66 701 LINE SMOOTH",
"119 701 OFFCURVE",
"191 627 OFFCURVE",
"191 525 OFFCURVE",
"119 451 OFFCURVE",
"66 451 QCURVE SMOOTH",
"62 451 LINE SMOOTH"
);
},
{
closed = 1;
nodes = (
"73 579 OFFCURVE",
"1 653 OFFCURVE",
"1 755 OFFCURVE",
"73 829 OFFCURVE",
"126 829 QCURVE SMOOTH",
"130 829 LINE SMOOTH",
"183 829 OFFCURVE",
"255 755 OFFCURVE",
"255 653 OFFCURVE",
"183 579 OFFCURVE",
"130 579 QCURVE SMOOTH",
"126 579 LINE SMOOTH"
);
},
{
closed = 1;
nodes = (
"329 579 OFFCURVE",
"257 653 OFFCURVE",
"257 755 OFFCURVE",
"329 829 OFFCURVE",
"382 829 QCURVE SMOOTH",
"386 829 LINE SMOOTH",
"439 829 OFFCURVE",
"511 755 OFFCURVE",
"511 653 OFFCURVE",
"439 579 OFFCURVE",
"386 579 QCURVE SMOOTH",
"382 579 LINE SMOOTH"
);
},
{
closed = 1;
nodes = (
"145 707 OFFCURVE",
"65 781 OFFCURVE",
"65 883 OFFCURVE",
"145 957 OFFCURVE",
"215 957 QCURVE SMOOTH",
"297 957 LINE SMOOTH",
"367 957 OFFCURVE",
"447 883 OFFCURVE",
"447 781 OFFCURVE",
"367 707 OFFCURVE",
"297 707 QCURVE SMOOTH",
"215 707 LINE SMOOTH"
);
}
);
};
layerId = "164C8123-3F0E-4C99-877D-0E85C432A9CE";
paths = (
{
closed = 1;
nodes = (
"137 -189 OFFCURVE",
"65 -115 OFFCURVE",
"65 -13 OFFCURVE",
"137 61 OFFCURVE",
"190 61 QCURVE SMOOTH",
"194 61 LINE SMOOTH",
"247 61 OFFCURVE",
"319 -13 OFFCURVE",
"319 -115 OFFCURVE",
"247 -189 OFFCURVE",
"194 -189 QCURVE SMOOTH",
"190 -189 LINE SMOOTH"
);
},
{
closed = 1;
nodes = (
"249 -61 OFFCURVE",
"193 13 OFFCURVE",
"193 115 OFFCURVE",
"249 189 OFFCURVE",
"286 189 QCURVE SMOOTH",
"290 189 LINE SMOOTH",
"327 189 OFFCURVE",
"383 115 OFFCURVE",
"383 13 OFFCURVE",
"327 -61 OFFCURVE",
"290 -61 QCURVE SMOOTH",
"286 -61 LINE SMOOTH"
);
},
{
closed = 1;
nodes = (
"145 67 OFFCURVE",
"65 141 OFFCURVE",
"65 243 OFFCURVE",
"145 317 OFFCURVE",
"215 317 QCURVE SMOOTH",
"297 317 LINE SMOOTH",
"367 317 OFFCURVE",
"447 243 OFFCURVE",
"447 141 OFFCURVE",
"367 67 OFFCURVE",
"297 67 QCURVE SMOOTH",
"215 67 LINE SMOOTH"
);
},
{
closed = 1;
nodes = (
"73 195 OFFCURVE",
"1 269 OFFCURVE",
"1 371 OFFCURVE",
"73 445 OFFCURVE",
"126 445 QCURVE SMOOTH",
"130 445 LINE SMOOTH",
"183 445 OFFCURVE",
"255 371 OFFCURVE",
"255 269 OFFCURVE",
"183 195 OFFCURVE",
"130 195 QCURVE SMOOTH",
"126 195 LINE SMOOTH"
);
},
{
closed = 1;
nodes = (
"329 195 OFFCURVE",
"257 269 OFFCURVE",
"257 371 OFFCURVE",
"329 445 OFFCURVE",
"382 445 QCURVE SMOOTH",
"386 445 LINE SMOOTH",
"439 445 OFFCURVE",
"511 371 OFFCURVE",
"511 269 OFFCURVE",
"439 195 OFFCURVE",
"386 195 QCURVE SMOOTH",
"382 195 LINE SMOOTH"
);
},
{
closed = 1;
nodes = (
"9 323 OFFCURVE",
"-63 397 OFFCURVE",
"-63 499 OFFCURVE",
"9 573 OFFCURVE",
"62 573 QCURVE SMOOTH",
"66 573 LINE SMOOTH",
"119 573 OFFCURVE",
"191 499 OFFCURVE",
"191 397 OFFCURVE",
"119 323 OFFCURVE",
"66 323 QCURVE SMOOTH",
"62 323 LINE SMOOTH"
);
},
{
closed = 1;
nodes = (
"9 451 OFFCURVE",
"-63 525 OFFCURVE",
"-63 627 OFFCURVE",
"9 701 OFFCURVE",
"62 701 QCURVE SMOOTH",
"66 701 LINE SMOOTH",
"119 701 OFFCURVE",
"191 627 OFFCURVE",
"191 525 OFFCURVE",
"119 451 OFFCURVE",
"66 451 QCURVE SMOOTH",
"62 451 LINE SMOOTH"
);
},
{
closed = 1;
nodes = (
"73 579 OFFCURVE",
"1 653 OFFCURVE",
"1 755 OFFCURVE",
"73 829 OFFCURVE",
"126 829 QCURVE SMOOTH",
"130 829 LINE SMOOTH",
"183 829 OFFCURVE",
"255 755 OFFCURVE",
"255 653 OFFCURVE",
"183 579 OFFCURVE",
"130 579 QCURVE SMOOTH",
"126 579 LINE SMOOTH"
);
},
{
closed = 1;
nodes = (
"329 579 OFFCURVE",
"257 653 OFFCURVE",
"257 755 OFFCURVE",
"329 829 OFFCURVE",
"382 829 QCURVE SMOOTH",
"386 829 LINE SMOOTH",
"439 829 OFFCURVE",
"511 755 OFFCURVE",
"511 653 OFFCURVE",
"439 579 OFFCURVE",
"386 579 QCURVE SMOOTH",
"382 579 LINE SMOOTH"
);
},
{
closed = 1;
nodes = (
"145 707 OFFCURVE",
"65 781 OFFCURVE",
"65 883 OFFCURVE",
"145 957 OFFCURVE",
"215 957 QCURVE SMOOTH",
"297 957 LINE SMOOTH",
"367 957 OFFCURVE",
"447 883 OFFCURVE",
"447 781 OFFCURVE",
"367 707 OFFCURVE",
"297 707 QCURVE SMOOTH",
"215 707 LINE SMOOTH"
);
}
);
width = 512;
},
{
layerId = "EDC3ADDC-530C-4ECE-AAC6-732B149A8D4A";
paths = (
{
closed = 1;
nodes = (
"41 -74 OFFCURVE",
"35 -68 OFFCURVE",
"35 -60 OFFCURVE",
"41 -54 OFFCURVE",
"47 -54 QCURVE SMOOTH",
"337 -54 LINE SMOOTH",
"343 -54 OFFCURVE",
"349 -60 OFFCURVE",
"349 -68 OFFCURVE",
"343 -74 OFFCURVE",
"337 -74 QCURVE SMOOTH",
"47 -74 LINE SMOOTH"
);
},
{
closed = 1;
nodes = (
"169 54 OFFCURVE",
"163 60 OFFCURVE",
"163 68 OFFCURVE",
"169 74 OFFCURVE",
"175 74 QCURVE SMOOTH",
"401 74 LINE SMOOTH",
"407 74 OFFCURVE",
"413 68 OFFCURVE",
"413 60 OFFCURVE",
"407 54 OFFCURVE",
"401 54 QCURVE SMOOTH",
"175 54 LINE SMOOTH"
);
},
{
closed = 1;
nodes = (
"41 182 OFFCURVE",
"35 188 OFFCURVE",
"35 196 OFFCURVE",
"41 202 OFFCURVE",
"47 202 QCURVE SMOOTH",
"465 202 LINE SMOOTH",
"471 202 OFFCURVE",
"477 196 OFFCURVE",
"477 188 OFFCURVE",
"471 182 OFFCURVE",
"465 182 QCURVE SMOOTH",
"47 182 LINE SMOOTH"
);
},
{
closed = 1;
nodes = (
"-23 310 OFFCURVE",
"-29 316 OFFCURVE",
"-29 324 OFFCURVE",
"-23 330 OFFCURVE",
"-17 330 QCURVE SMOOTH",
"273 330 LINE SMOOTH",
"279 330 OFFCURVE",
"285 324 OFFCURVE",
"285 316 OFFCURVE",
"279 310 OFFCURVE",
"273 310 QCURVE SMOOTH",
"-17 310 LINE SMOOTH"
);
},
{
closed = 1;
nodes = (
"233 310 OFFCURVE",
"227 316 OFFCURVE",
"227 324 OFFCURVE",
"233 330 OFFCURVE",
"239 330 QCURVE SMOOTH",
"529 330 LINE SMOOTH",
"535 330 OFFCURVE",
"541 324 OFFCURVE",
"541 316 OFFCURVE",
"535 310 OFFCURVE",
"529 310 QCURVE SMOOTH",
"239 310 LINE SMOOTH"
);
},
{
closed = 1;
nodes = (
"-87 438 OFFCURVE",
"-93 444 OFFCURVE",
"-93 452 OFFCURVE",
"-87 458 OFFCURVE",
"-81 458 QCURVE SMOOTH",
"209 458 LINE SMOOTH",
"215 458 OFFCURVE",
"221 452 OFFCURVE",
"221 444 OFFCURVE",
"215 438 OFFCURVE",
"209 438 QCURVE SMOOTH",
"-81 438 LINE SMOOTH"
);
},
{
closed = 1;
nodes = (
"-87 566 OFFCURVE",
"-93 572 OFFCURVE",
"-93 580 OFFCURVE",
"-87 586 OFFCURVE",
"-81 586 QCURVE SMOOTH",
"209 586 LINE SMOOTH",
"215 586 OFFCURVE",
"221 580 OFFCURVE",
"221 572 OFFCURVE",
"215 566 OFFCURVE",
"209 566 QCURVE SMOOTH",
"-81 566 LINE SMOOTH"
);
},
{
closed = 1;
nodes = (
"-23 694 OFFCURVE",
"-29 700 OFFCURVE",
"-29 708 OFFCURVE",
"-23 714 OFFCURVE",
"-17 714 QCURVE SMOOTH",
"273 714 LINE SMOOTH",
"279 714 OFFCURVE",
"285 708 OFFCURVE",
"285 700 OFFCURVE",
"279 694 OFFCURVE",
"273 694 QCURVE SMOOTH",
"-17 694 LINE SMOOTH"
);
},
{
closed = 1;
nodes = (
"233 694 OFFCURVE",
"227 700 OFFCURVE",
"227 708 OFFCURVE",
"233 714 OFFCURVE",
"239 714 QCURVE SMOOTH",
"529 714 LINE SMOOTH",
"535 714 OFFCURVE",
"541 708 OFFCURVE",
"541 700 OFFCURVE",
"535 694 OFFCURVE",
"529 694 QCURVE SMOOTH",
"239 694 LINE SMOOTH"
);
},
{
closed = 1;
nodes = (
"41 822 OFFCURVE",
"35 828 OFFCURVE",
"35 836 OFFCURVE",
"41 842 OFFCURVE",
"47 842 QCURVE SMOOTH",
"465 842 LINE SMOOTH",
"471 842 OFFCURVE",
"477 836 OFFCURVE",
"477 828 OFFCURVE",
"471 822 OFFCURVE",
"465 822 QCURVE SMOOTH",
"47 822 LINE SMOOTH"
);
}
);
width = 512;
},
{
layerId = "38088322-78A3-4F4F-B46E-F8355B0BCD96";
paths = (
{
closed = 1;
nodes = (
"75 -189 OFFCURVE",
"3 -115 OFFCURVE",
"3 -13 OFFCURVE",
"75 61 OFFCURVE",
"128 61 QCURVE SMOOTH",
"256 61 LINE SMOOTH",
"309 61 OFFCURVE",
"381 -13 OFFCURVE",
"381 -115 OFFCURVE",
"309 -189 OFFCURVE",
"256 -189 QCURVE SMOOTH",
"128 -189 LINE SMOOTH"
);
},
{
closed = 1;
nodes = (
"203 -61 OFFCURVE",
"131 13 OFFCURVE",
"131 115 OFFCURVE",
"203 189 OFFCURVE",
"256 189 QCURVE SMOOTH",
"320 189 LINE SMOOTH",
"373 189 OFFCURVE",
"445 115 OFFCURVE",
"445 13 OFFCURVE",
"373 -61 OFFCURVE",
"320 -61 QCURVE SMOOTH",
"256 -61 LINE SMOOTH"
);
},
{
closed = 1;
nodes = (
"83 67 OFFCURVE",
"3 141 OFFCURVE",
"3 243 OFFCURVE",
"83 317 OFFCURVE",
"153 317 QCURVE SMOOTH",
"359 317 LINE SMOOTH",
"429 317 OFFCURVE",
"509 243 OFFCURVE",
"509 141 OFFCURVE",
"429 67 OFFCURVE",
"359 67 QCURVE SMOOTH",
"153 67 LINE SMOOTH"
);
},
{
closed = 1;
nodes = (
"11 195 OFFCURVE",
"-61 269 OFFCURVE",
"-61 371 OFFCURVE",
"11 445 OFFCURVE",
"64 445 QCURVE SMOOTH",
"192 445 LINE SMOOTH",
"245 445 OFFCURVE",
"317 371 OFFCURVE",
"317 269 OFFCURVE",
"245 195 OFFCURVE",
"192 195 QCURVE SMOOTH",
"64 195 LINE SMOOTH"
);
},
{
closed = 1;
nodes = (
"267 195 OFFCURVE",
"195 269 OFFCURVE",
"195 371 OFFCURVE",
"267 445 OFFCURVE",
"320 445 QCURVE SMOOTH",
"448 445 LINE SMOOTH",
"501 445 OFFCURVE",
"573 371 OFFCURVE",
"573 269 OFFCURVE",
"501 195 OFFCURVE",
"448 195 QCURVE SMOOTH",
"320 195 LINE SMOOTH"
);
},
{
closed = 1;
nodes = (
"-53 323 OFFCURVE",
"-125 397 OFFCURVE",
"-125 499 OFFCURVE",
"-53 573 OFFCURVE",
"0 573 QCURVE SMOOTH",
"128 573 LINE SMOOTH",
"181 573 OFFCURVE",
"253 499 OFFCURVE",
"253 397 OFFCURVE",
"181 323 OFFCURVE",
"128 323 QCURVE SMOOTH",
"0 323 LINE SMOOTH"
);
},
{
closed = 1;
nodes = (
"-53 451 OFFCURVE",
"-125 525 OFFCURVE",
"-125 627 OFFCURVE",
"-53 701 OFFCURVE",
"0 701 QCURVE SMOOTH",
"128 701 LINE SMOOTH",
"181 701 OFFCURVE",
"253 627 OFFCURVE",
"253 525 OFFCURVE",
"181 451 OFFCURVE",
"128 451 QCURVE SMOOTH",
"0 451 LINE SMOOTH"
);
},
{
closed = 1;
nodes = (
"11 579 OFFCURVE",
"-61 653 OFFCURVE",
"-61 755 OFFCURVE",
"11 829 OFFCURVE",
"64 829 QCURVE SMOOTH",
"192 829 LINE SMOOTH",
"245 829 OFFCURVE",
"317 755 OFFCURVE",
"317 653 OFFCURVE",
"245 579 OFFCURVE",
"192 579 QCURVE SMOOTH",
"64 579 LINE SMOOTH"
);
},
{
closed = 1;
nodes = (
"267 579 OFFCURVE",
"195 653 OFFCURVE",
"195 755 OFFCURVE",
"267 829 OFFCURVE",
"320 829 QCURVE SMOOTH",
"448 829 LINE SMOOTH",
"501 829 OFFCURVE",
"573 755 OFFCURVE",
"573 653 OFFCURVE",
"501 579 OFFCURVE",
"448 579 QCURVE SMOOTH",
"320 579 LINE SMOOTH"
);
},
{
closed = 1;
nodes = (
"83 707 OFFCURVE",
"3 781 OFFCURVE",
"3 883 OFFCURVE",
"83 957 OFFCURVE",
"153 957 QCURVE SMOOTH",
"359 957 LINE SMOOTH",
"429 957 OFFCURVE",
"509 883 OFFCURVE",
"509 781 OFFCURVE",
"429 707 OFFCURVE",
"359 707 QCURVE SMOOTH",
"153 707 LINE SMOOTH"
);
}
);
width = 512;
}
);
unicode = 00C7;
},
{
glyphname = D;
lastChange = "2019-07-27 12:32:26 +0000";
layers = (
{
background = {
paths = (
{
closed = 1;
nodes = (
"61 131 LINE",
"61 765 LINE",
"-3 765 LINE",
"-3 899 LINE",
"323 899 LINE",
"323 771 LINE",
"387 771 LINE",
"387 643 LINE",
"451 643 LINE",
"451 253 LINE",
"387 253 LINE",
"387 125 LINE",
"323 125 LINE",
"323 -3 LINE",
"-3 -3 LINE",
"-3 131 LINE"
);
},
{
closed = 1;
nodes = (
"195 765 LINE",
"195 131 LINE",
"253 131 LINE",
"253 259 LINE",
"317 259 LINE",
"317 637 LINE",
"253 637 LINE",
"253 765 LINE"
);
}
);
};
layerId = master01;
paths = (
{
closed = 0;
nodes = (
"-3 64 LINE",
"323 64 LINE"
);
},
{
closed = 0;
nodes = (
"61 192 LINE",
"195 192 LINE"
);
},
{
closed = 0;
nodes = (
"253 192 LINE",
"387 192 LINE"
);
},
{
closed = 0;
nodes = (
"61 320 LINE",
"195 320 LINE"
);
},
{
closed = 0;
nodes = (
"317 320 LINE",
"451 320 LINE"
);
},
{
closed = 0;
nodes = (
"61 448 LINE",
"195 448 LINE"
);
},
{
closed = 0;
nodes = (
"317 448 LINE",
"451 448 LINE"
);
},
{
closed = 0;
nodes = (
"61 576 LINE",
"195 576 LINE"
);
},
{
closed = 0;
nodes = (
"317 576 LINE",
"451 576 LINE"
);
},
{
closed = 0;
nodes = (
"61 704 LINE",
"195 704 LINE"
);
},
{
closed = 0;
nodes = (
"253 704 LINE",
"387 704 LINE"
);
},
{
closed = 0;
nodes = (
"-3 832 LINE",
"323 832 LINE"
);
}
);
userData = {
com.typemytype.robofont.mark = (
0.656,
1,
0.6,
1
);
};
width = 512;
},
{
layerId = "968AADD4-6AAB-4A21-B439-CFC52095EED4";
paths = (
{
closed = 1;
nodes = (
"61 131 LINE",
"61 765 LINE",
"-3 765 LINE",
"-3 899 LINE",
"323 899 LINE",
"323 771 LINE",
"387 771 LINE",
"387 643 LINE",
"451 643 LINE",
"451 253 LINE",
"387 253 LINE",
"387 125 LINE",
"323 125 LINE",
"323 -3 LINE",
"-3 -3 LINE",
"-3 131 LINE"
);
},
{
closed = 1;
nodes = (
"195 765 LINE",
"195 131 LINE",
"253 131 LINE",
"253 259 LINE",
"317 259 LINE",
"317 637 LINE",
"253 637 LINE",
"253 765 LINE"
);
}
);
userData = {
com.typemytype.robofont.mark = (
0.656,
1,
0.6,
1
);
};
width = 512;
},
{
layerId = "EF047752-ED93-49D3-A4D1-D66A6AAE90C7";
paths = (
{
closed = 1;
nodes = (
"1 54 OFFCURVE",
"-5 60 OFFCURVE",
"-5 68 OFFCURVE",
"1 74 OFFCURVE",
"7 74 QCURVE SMOOTH",
"313 74 LINE SMOOTH",
"319 74 OFFCURVE",
"325 68 OFFCURVE",
"325 60 OFFCURVE",
"319 54 OFFCURVE",
"313 54 QCURVE SMOOTH",
"7 54 LINE SMOOTH"
);
},
{
closed = 1;
nodes = (
"65 182 OFFCURVE",
"59 188 OFFCURVE",
"59 196 OFFCURVE",
"65 202 OFFCURVE",
"71 202 QCURVE SMOOTH",
"185 202 LINE SMOOTH",
"191 202 OFFCURVE",
"197 196 OFFCURVE",
"197 188 OFFCURVE",
"191 182 OFFCURVE",
"185 182 QCURVE SMOOTH",
"71 182 LINE SMOOTH"
);
},
{
closed = 1;
nodes = (
"257 182 OFFCURVE",
"251 188 OFFCURVE",
"251 196 OFFCURVE",
"257 202 OFFCURVE",
"263 202 QCURVE SMOOTH",
"377 202 LINE SMOOTH",
"383 202 OFFCURVE",
"389 196 OFFCURVE",
"389 188 OFFCURVE",
"383 182 OFFCURVE",
"377 182 QCURVE SMOOTH",
"263 182 LINE SMOOTH"
);
},
{
closed = 1;
nodes = (
"65 310 OFFCURVE",
"59 316 OFFCURVE",
"59 324 OFFCURVE",
"65 330 OFFCURVE",
"71 330 QCURVE SMOOTH",
"185 330 LINE SMOOTH",
"191 330 OFFCURVE",
"197 324 OFFCURVE",
"197 316 OFFCURVE",
"191 310 OFFCURVE",
"185 310 QCURVE SMOOTH",
"71 310 LINE SMOOTH"
);
},
{
closed = 1;
nodes = (
"321 310 OFFCURVE",
"315 316 OFFCURVE",
"315 324 OFFCURVE",
"321 330 OFFCURVE",
"327 330 QCURVE SMOOTH",
"441 330 LINE SMOOTH",
"447 330 OFFCURVE",
"453 324 OFFCURVE",
"453 316 OFFCURVE",
"447 310 OFFCURVE",
"441 310 QCURVE SMOOTH",
"327 310 LINE SMOOTH"
);
},
{
closed = 1;
nodes = (
"65 438 OFFCURVE",
"59 444 OFFCURVE",
"59 452 OFFCURVE",
"65 458 OFFCURVE",
"71 458 QCURVE SMOOTH",
"185 458 LINE SMOOTH",
"191 458 OFFCURVE",
"197 452 OFFCURVE",
"197 444 OFFCURVE",
"191 438 OFFCURVE",
"185 438 QCURVE SMOOTH",
"71 438 LINE SMOOTH"
);
},
{
closed = 1;
nodes = (
"321 438 OFFCURVE",
"315 444 OFFCURVE",
"315 452 OFFCURVE",
"321 458 OFFCURVE",
"327 458 QCURVE SMOOTH",
"441 458 LINE SMOOTH",
"447 458 OFFCURVE",
"453 452 OFFCURVE",
"453 444 OFFCURVE",
"447 438 OFFCURVE",
"441 438 QCURVE SMOOTH",
"327 438 LINE SMOOTH"
);
},
{
closed = 1;
nodes = (
"65 566 OFFCURVE",
"59 572 OFFCURVE",
"59 580 OFFCURVE",
"65 586 OFFCURVE",
"71 586 QCURVE SMOOTH",
"185 586 LINE SMOOTH",
"191 586 OFFCURVE",
"197 580 OFFCURVE",
"197 572 OFFCURVE",
"191 566 OFFCURVE",
"185 566 QCURVE SMOOTH",
"71 566 LINE SMOOTH"
);
},
{
closed = 1;
nodes = (
"321 566 OFFCURVE",
"315 572 OFFCURVE",
"315 580 OFFCURVE",
"321 586 OFFCURVE",
"327 586 QCURVE SMOOTH",
"441 586 LINE SMOOTH",
"447 586 OFFCURVE",
"453 580 OFFCURVE",
"453 572 OFFCURVE",
"447 566 OFFCURVE",
"441 566 QCURVE SMOOTH",
"327 566 LINE SMOOTH"
);
},
{
closed = 1;
nodes = (
"65 694 OFFCURVE",
"59 700 OFFCURVE",
"59 708 OFFCURVE",
"65 714 OFFCURVE",
"71 714 QCURVE SMOOTH",
"185 714 LINE SMOOTH",
"191 714 OFFCURVE",
"197 708 OFFCURVE",
"197 700 OFFCURVE",
"191 694 OFFCURVE",
"185 694 QCURVE SMOOTH",
"71 694 LINE SMOOTH"
);
},
{
closed = 1;
nodes = (
"257 694 OFFCURVE",
"251 700 OFFCURVE",
"251 708 OFFCURVE",
"257 714 OFFCURVE",
"263 714 QCURVE SMOOTH",
"377 714 LINE SMOOTH",
"383 714 OFFCURVE",
"389 708 OFFCURVE",
"389 700 OFFCURVE",
"383 694 OFFCURVE",
"377 694 QCURVE SMOOTH",
"263 694 LINE SMOOTH"
);
},
{
closed = 1;
nodes = (
"1 822 OFFCURVE",
"-5 828 OFFCURVE",
"-5 836 OFFCURVE",
"1 842 OFFCURVE",
"7 842 QCURVE SMOOTH",
"313 842 LINE SMOOTH",
"319 842 OFFCURVE",
"325 836 OFFCURVE",
"325 828 OFFCURVE",
"319 822 OFFCURVE",
"313 822 QCURVE SMOOTH",
"7 822 LINE SMOOTH"
);
}
);
width = 512;
},
{
layerId = "164C8123-3F0E-4C99-877D-0E85C432A9CE";
paths = (
{
closed = 1;
nodes = (
"17 -61 OFFCURVE",
"-63 13 OFFCURVE",
"-63 115 OFFCURVE",
"17 189 OFFCURVE",
"87 189 QCURVE SMOOTH",
"233 189 LINE SMOOTH",
"303 189 OFFCURVE",
"383 115 OFFCURVE",
"383 13 OFFCURVE",
"303 -61 OFFCURVE",
"233 -61 QCURVE SMOOTH",
"87 -61 LINE SMOOTH"
);
},
{
closed = 1;
nodes = (
"73 67 OFFCURVE",
"1 141 OFFCURVE",
"1 243 OFFCURVE",
"73 317 OFFCURVE",
"126 317 QCURVE SMOOTH",
"130 317 LINE SMOOTH",
"183 317 OFFCURVE",
"255 243 OFFCURVE",
"255 141 OFFCURVE",
"183 67 OFFCURVE",
"130 67 QCURVE SMOOTH",
"126 67 LINE SMOOTH"
);
},
{
closed = 1;
nodes = (
"265 67 OFFCURVE",
"193 141 OFFCURVE",
"193 243 OFFCURVE",
"265 317 OFFCURVE",
"318 317 QCURVE SMOOTH",
"322 317 LINE SMOOTH",
"375 317 OFFCURVE",
"447 243 OFFCURVE",
"447 141 OFFCURVE",
"375 67 OFFCURVE",
"322 67 QCURVE SMOOTH",
"318 67 LINE SMOOTH"
);
},
{
closed = 1;
nodes = (
"73 195 OFFCURVE",
"1 269 OFFCURVE",
"1 371 OFFCURVE",
"73 445 OFFCURVE",
"126 445 QCURVE SMOOTH",
"130 445 LINE SMOOTH",
"183 445 OFFCURVE",
"255 371 OFFCURVE",
"255 269 OFFCURVE",
"183 195 OFFCURVE",
"130 195 QCURVE SMOOTH",
"126 195 LINE SMOOTH"
);
},
{
closed = 1;
nodes = (
"329 195 OFFCURVE",
"257 269 OFFCURVE",
"257 371 OFFCURVE",
"329 445 OFFCURVE",
"382 445 QCURVE SMOOTH",
"386 445 LINE SMOOTH",
"439 445 OFFCURVE",
"511 371 OFFCURVE",
"511 269 OFFCURVE",
"439 195 OFFCURVE",
"386 195 QCURVE SMOOTH",
"382 195 LINE SMOOTH"
);
},
{
closed = 1;
nodes = (
"73 323 OFFCURVE",
"1 397 OFFCURVE",
"1 499 OFFCURVE",
"73 573 OFFCURVE",
"126 573 QCURVE SMOOTH",
"130 573 LINE SMOOTH",
"183 573 OFFCURVE",
"255 499 OFFCURVE",
"255 397 OFFCURVE",
"183 323 OFFCURVE",
"130 323 QCURVE SMOOTH",
"126 323 LINE SMOOTH"
);
},
{
closed = 1;
nodes = (
"329 323 OFFCURVE",
"257 397 OFFCURVE",
"257 499 OFFCURVE",
"329 573 OFFCURVE",
"382 573 QCURVE SMOOTH",
"386 573 LINE SMOOTH",
"439 573 OFFCURVE",
"511 499 OFFCURVE",
"511 397 OFFCURVE",
"439 323 OFFCURVE",
"386 323 QCURVE SMOOTH",
"382 323 LINE SMOOTH"
);
},
{
closed = 1;
nodes = (
"73 451 OFFCURVE",
"1 525 OFFCURVE",
"1 627 OFFCURVE",
"73 701 OFFCURVE",
"126 701 QCURVE SMOOTH",
"130 701 LINE SMOOTH",
"183 701 OFFCURVE",
"255 627 OFFCURVE",
"255 525 OFFCURVE",
"183 451 OFFCURVE",
"130 451 QCURVE SMOOTH",
"126 451 LINE SMOOTH"
);
},
{
closed = 1;
nodes = (
"329 451 OFFCURVE",
"257 525 OFFCURVE",
"257 627 OFFCURVE",
"329 701 OFFCURVE",
"382 701 QCURVE SMOOTH",
"386 701 LINE SMOOTH",
"439 701 OFFCURVE",
"511 627 OFFCURVE",
"511 525 OFFCURVE",
"439 451 OFFCURVE",
"386 451 QCURVE SMOOTH",
"382 451 LINE SMOOTH"
);
},
{
closed = 1;
nodes = (
"73 579 OFFCURVE",
"1 653 OFFCURVE",
"1 755 OFFCURVE",
"73 829 OFFCURVE",
"126 829 QCURVE SMOOTH",
"130 829 LINE SMOOTH",
"183 829 OFFCURVE",
"255 755 OFFCURVE",
"255 653 OFFCURVE",
"183 579 OFFCURVE",
"130 579 QCURVE SMOOTH",
"126 579 LINE SMOOTH"
);
},
{
closed = 1;
nodes = (
"265 579 OFFCURVE",
"193 653 OFFCURVE",
"193 755 OFFCURVE",
"265 829 OFFCURVE",
"318 829 QCURVE SMOOTH",
"322 829 LINE SMOOTH",
"375 829 OFFCURVE",
"447 755 OFFCURVE",
"447 653 OFFCURVE",
"375 579 OFFCURVE",
"322 579 QCURVE SMOOTH",
"318 579 LINE SMOOTH"
);
},
{
closed = 1;
nodes = (
"17 707 OFFCURVE",
"-63 781 OFFCURVE",
"-63 883 OFFCURVE",
"17 957 OFFCURVE",
"87 957 QCURVE SMOOTH",
"233 957 LINE SMOOTH",
"303 957 OFFCURVE",
"383 883 OFFCURVE",
"383 781 OFFCURVE",
"303 707 OFFCURVE",
"233 707 QCURVE SMOOTH",
"87 707 LINE SMOOTH"
);
}
);
width = 512;
},
{
layerId = "EDC3ADDC-530C-4ECE-AAC6-732B149A8D4A";
paths = (
{
closed = 1;
nodes = (
"-87 54 OFFCURVE",
"-93 60 OFFCURVE",
"-93 68 OFFCURVE",
"-87 74 OFFCURVE",
"-81 74 QCURVE SMOOTH",
"401 74 LINE SMOOTH",
"407 74 OFFCURVE",
"413 68 OFFCURVE",
"413 60 OFFCURVE",
"407 54 OFFCURVE",
"401 54 QCURVE SMOOTH",
"-81 54 LINE SMOOTH"
);
},
{
closed = 1;
nodes = (
"-23 182 OFFCURVE",
"-29 188 OFFCURVE",
"-29 196 OFFCURVE",
"-23 202 OFFCURVE",
"-17 202 QCURVE SMOOTH",
"273 202 LINE SMOOTH",
"279 202 OFFCURVE",
"285 196 OFFCURVE",
"285 188 OFFCURVE",
"279 182 OFFCURVE",
"273 182 QCURVE SMOOTH",
"-17 182 LINE SMOOTH"
);
},
{
closed = 1;
nodes = (
"169 182 OFFCURVE",
"163 188 OFFCURVE",
"163 196 OFFCURVE",
"169 202 OFFCURVE",
"175 202 QCURVE SMOOTH",
"465 202 LINE SMOOTH",
"471 202 OFFCURVE",
"477 196 OFFCURVE",
"477 188 OFFCURVE",
"471 182 OFFCURVE",
"465 182 QCURVE SMOOTH",
"175 182 LINE SMOOTH"
);
},
{
closed = 1;
nodes = (
"-23 310 OFFCURVE",
"-29 316 OFFCURVE",
"-29 324 OFFCURVE",
"-23 330 OFFCURVE",
"-17 330 QCURVE SMOOTH",
"273 330 LINE SMOOTH",
"279 330 OFFCURVE",
"285 324 OFFCURVE",
"285 316 OFFCURVE",
"279 310 OFFCURVE",
"273 310 QCURVE SMOOTH",
"-17 310 LINE SMOOTH"
);
},
{
closed = 1;
nodes = (
"233 310 OFFCURVE",
"227 316 OFFCURVE",
"227 324 OFFCURVE",
"233 330 OFFCURVE",
"239 330 QCURVE SMOOTH",
"529 330 LINE SMOOTH",
"535 330 OFFCURVE",
"541 324 OFFCURVE",
"541 316 OFFCURVE",
"535 310 OFFCURVE",
"529 310 QCURVE SMOOTH",
"239 310 LINE SMOOTH"
);
},
{
closed = 1;
nodes = (
"-23 438 OFFCURVE",
"-29 444 OFFCURVE",
"-29 452 OFFCURVE",
"-23 458 OFFCURVE",
"-17 458 QCURVE SMOOTH",
"273 458 LINE SMOOTH",
"279 458 OFFCURVE",
"285 452 OFFCURVE",
"285 444 OFFCURVE",
"279 438 OFFCURVE",
"273 438 QCURVE SMOOTH",
"-17 438 LINE SMOOTH"
);
},
{
closed = 1;
nodes = (
"233 438 OFFCURVE",
"227 444 OFFCURVE",
"227 452 OFFCURVE",
"233 458 OFFCURVE",
"239 458 QCURVE SMOOTH",
"529 458 LINE SMOOTH",
"535 458 OFFCURVE",
"541 452 OFFCURVE",
"541 444 OFFCURVE",
"535 438 OFFCURVE",
"529 438 QCURVE SMOOTH",
"239 438 LINE SMOOTH"
);
},
{
closed = 1;
nodes = (
"-23 566 OFFCURVE",
"-29 572 OFFCURVE",
"-29 580 OFFCURVE",
"-23 586 OFFCURVE",
"-17 586 QCURVE SMOOTH",
"273 586 LINE SMOOTH",
"279 586 OFFCURVE",
"285 580 OFFCURVE",
"285 572 OFFCURVE",
"279 566 OFFCURVE",
"273 566 QCURVE SMOOTH",
"-17 566 LINE SMOOTH"
);
},
{
closed = 1;
nodes = (
"233 566 OFFCURVE",
"227 572 OFFCURVE",
"227 580 OFFCURVE",
"233 586 OFFCURVE",
"239 586 QCURVE SMOOTH",
"529 586 LINE SMOOTH",
"535 586 OFFCURVE",
"541 580 OFFCURVE",
"541 572 OFFCURVE",
"535 566 OFFCURVE",
"529 566 QCURVE SMOOTH",
"239 566 LINE SMOOTH"
);
},
{
closed = 1;
nodes = (
"-23 694 OFFCURVE",
"-29 700 OFFCURVE",
"-29 708 OFFCURVE",
"-23 714 OFFCURVE",
"-17 714 QCURVE SMOOTH",
"273 714 LINE SMOOTH",
"279 714 OFFCURVE",
"285 708 OFFCURVE",
"285 700 OFFCURVE",
"279 694 OFFCURVE",
"273 694 QCURVE SMOOTH",
"-17 694 LINE SMOOTH"
);
},
{
closed = 1;
nodes = (
"169 694 OFFCURVE",
"163 700 OFFCURVE",
"163 708 OFFCURVE",
"169 714 OFFCURVE",
"175 714 QCURVE SMOOTH",
"465 714 LINE SMOOTH",
"471 714 OFFCURVE",
"477 708 OFFCURVE",
"477 700 OFFCURVE",
"471 694 OFFCURVE",
"465 694 QCURVE SMOOTH",
"175 694 LINE SMOOTH"
);
},
{
closed = 1;
nodes = (
"-87 822 OFFCURVE",
"-93 828 OFFCURVE",
"-93 836 OFFCURVE",
"-87 842 OFFCURVE",
"-81 842 QCURVE SMOOTH",
"401 842 LINE SMOOTH",
"407 842 OFFCURVE",
"413 836 OFFCURVE",
"413 828 OFFCURVE",
"407 822 OFFCURVE",
"401 822 QCURVE SMOOTH",
"-81 822 LINE SMOOTH"
);
}
);
width = 512;
},
{
layerId = "38088322-78A3-4F4F-B46E-F8355B0BCD96";
paths = (
{
closed = 1;
nodes = (
"-45 -61 OFFCURVE",
"-125 13 OFFCURVE",
"-125 115 OFFCURVE",
"-45 189 OFFCURVE",
"25 189 QCURVE SMOOTH",
"295 189 LINE SMOOTH",
"365 189 OFFCURVE",
"445 115 OFFCURVE",
"445 13 OFFCURVE",
"365 -61 OFFCURVE",
"295 -61 QCURVE SMOOTH",
"25 -61 LINE SMOOTH"
);
},
{
closed = 1;
nodes = (
"11 67 OFFCURVE",
"-61 141 OFFCURVE",
"-61 243 OFFCURVE",
"11 317 OFFCURVE",
"64 317 QCURVE SMOOTH",
"192 317 LINE SMOOTH",
"245 317 OFFCURVE",
"317 243 OFFCURVE",
"317 141 OFFCURVE",
"245 67 OFFCURVE",
"192 67 QCURVE SMOOTH",
"64 67 LINE SMOOTH"
);
},
{
closed = 1;
nodes = (
"203 67 OFFCURVE",
"131 141 OFFCURVE",
"131 243 OFFCURVE",
"203 317 OFFCURVE",
"256 317 QCURVE SMOOTH",
"384 317 LINE SMOOTH",
"437 317 OFFCURVE",
"509 243 OFFCURVE",
"509 141 OFFCURVE",
"437 67 OFFCURVE",
"384 67 QCURVE SMOOTH",
"256 67 LINE SMOOTH"
);
},
{
closed = 1;
nodes = (
"11 195 OFFCURVE",
"-61 269 OFFCURVE",
"-61 371 OFFCURVE",
"11 445 OFFCURVE",
"64 445 QCURVE SMOOTH",
"192 445 LINE SMOOTH",
"245 445 OFFCURVE",
"317 371 OFFCURVE",
"317 269 OFFCURVE",
"245 195 OFFCURVE",
"192 195 QCURVE SMOOTH",
"64 195 LINE SMOOTH"
);
},
{
closed = 1;
nodes = (
"267 195 OFFCURVE",
"195 269 OFFCURVE",
"195 371 OFFCURVE",
"267 445 OFFCURVE",
"320 445 QCURVE SMOOTH",
"448 445 LINE SMOOTH",
"501 445 OFFCURVE",
"573 371 OFFCURVE",
"573 269 OFFCURVE",
"501 195 OFFCURVE",
"448 195 QCURVE SMOOTH",
"320 195 LINE SMOOTH"
);
},
{
closed = 1;
nodes = (
"11 323 OFFCURVE",
"-61 397 OFFCURVE",
"-61 499 OFFCURVE",
"11 573 OFFCURVE",
"64 573 QCURVE SMOOTH",
"192 573 LINE SMOOTH",
"245 573 OFFCURVE",
"317 499 OFFCURVE",
"317 397 OFFCURVE",
"245 323 OFFCURVE",
"192 323 QCURVE SMOOTH",
"64 323 LINE SMOOTH"
);
},
{
closed = 1;
nodes = (
"267 323 OFFCURVE",
"195 397 OFFCURVE",
"195 499 OFFCURVE",
"267 573 OFFCURVE",
"320 573 QCURVE SMOOTH",
"448 573 LINE SMOOTH",
"501 573 OFFCURVE",
"573 499 OFFCURVE",
"573 397 OFFCURVE",
"501 323 OFFCURVE",
"448 323 QCURVE SMOOTH",
"320 323 LINE SMOOTH"
);
},
{
closed = 1;
nodes = (
"11 451 OFFCURVE",
"-61 525 OFFCURVE",
"-61 627 OFFCURVE",
"11 701 OFFCURVE",
"64 701 QCURVE SMOOTH",
"192 701 LINE SMOOTH",
"245 701 OFFCURVE",
"317 627 OFFCURVE",
"317 525 OFFCURVE",
"245 451 OFFCURVE",
"192 451 QCURVE SMOOTH",
"64 451 LINE SMOOTH"
);
},
{
closed = 1;
nodes = (
"267 451 OFFCURVE",
"195 525 OFFCURVE",
"195 627 OFFCURVE",
"267 701 OFFCURVE",
"320 701 QCURVE SMOOTH",
"448 701 LINE SMOOTH",
"501 701 OFFCURVE",
"573 627 OFFCURVE",
"573 525 OFFCURVE",
"501 451 OFFCURVE",
"448 451 QCURVE SMOOTH",
"320 451 LINE SMOOTH"
);
},
{
closed = 1;
nodes = (
"11 579 OFFCURVE",
"-61 653 OFFCURVE",
"-61 755 OFFCURVE",
"11 829 OFFCURVE",
"64 829 QCURVE SMOOTH",
"192 829 LINE SMOOTH",
"245 829 OFFCURVE",
"317 755 OFFCURVE",
"317 653 OFFCURVE",
"245 579 OFFCURVE",
"192 579 QCURVE SMOOTH",
"64 579 LINE SMOOTH"
);
},
{
closed = 1;
nodes = (
"203 579 OFFCURVE",
"131 653 OFFCURVE",
"131 755 OFFCURVE",
"203 829 OFFCURVE",
"256 829 QCURVE SMOOTH",
"384 829 LINE SMOOTH",
"437 829 OFFCURVE",
"509 755 OFFCURVE",
"509 653 OFFCURVE",
"437 579 OFFCURVE",
"384 579 QCURVE SMOOTH",
"256 579 LINE SMOOTH"
);
},
{
closed = 1;
nodes = (
"-45 707 OFFCURVE",
"-125 781 OFFCURVE",
"-125 883 OFFCURVE",
"-45 957 OFFCURVE",
"25 957 QCURVE SMOOTH",
"295 957 LINE SMOOTH",
"365 957 OFFCURVE",
"445 883 OFFCURVE",
"445 781 OFFCURVE",
"365 707 OFFCURVE",
"295 707 QCURVE SMOOTH",
"25 707 LINE SMOOTH"
);
}
);
width = 512;
}
);
unicode = 0044;
},
{
glyphname = Eth;
lastChange = "2019-07-27 12:32:26 +0000";
layers = (
{
background = {
paths = (
{
closed = 1;
nodes = (
"323 899 LINE",
"323 771 LINE",
"387 771 LINE",
"387 643 LINE",
"451 643 LINE",
"451 253 LINE",
"387 253 LINE",
"387 125 LINE",
"323 125 LINE",
"323 -3 LINE",
"-3 -3 LINE",
"-3 131 LINE",
"61 131 LINE",
"61 381 LINE",
"-3 381 LINE",
"-3 515 LINE",
"61 515 LINE",
"61 765 LINE",
"-3 765 LINE",
"-3 899 LINE"
);
},
{
closed = 1;
nodes = (
"195 765 LINE",
"195 515 LINE",
"259 515 LINE",
"259 381 LINE",
"195 381 LINE",
"195 131 LINE",
"253 131 LINE",
"253 259 LINE",
"317 259 LINE",
"317 637 LINE",
"253 637 LINE",
"253 765 LINE"
);
}
);
};
layerId = master01;
paths = (
{
closed = 0;
nodes = (
"-3 64 LINE",
"323 64 LINE"
);
},
{
closed = 0;
nodes = (
"61 192 LINE",
"195 192 LINE"
);
},
{
closed = 0;
nodes = (
"253 192 LINE",
"387 192 LINE"
);
},
{
closed = 0;
nodes = (
"61 320 LINE",
"195 320 LINE"
);
},
{
closed = 0;
nodes = (
"317 320 LINE",
"451 320 LINE"
);
},
{
closed = 0;
nodes = (
"-3 448 LINE",
"259 448 LINE"
);
},
{
closed = 0;
nodes = (
"317 448 LINE",
"451 448 LINE"
);
},
{
closed = 0;
nodes = (
"61 576 LINE",
"195 576 LINE"
);
},
{
closed = 0;
nodes = (
"317 576 LINE",
"451 576 LINE"
);
},
{
closed = 0;
nodes = (
"61 704 LINE",
"195 704 LINE"
);
},
{
closed = 0;
nodes = (
"253 704 LINE",
"387 704 LINE"
);
},
{
closed = 0;
nodes = (
"-3 832 LINE",
"323 832 LINE"
);
}
);
userData = {
com.typemytype.robofont.mark = (
0.656,
1,
0.6,
1
);
};
width = 512;
},
{
layerId = "968AADD4-6AAB-4A21-B439-CFC52095EED4";
paths = (
{
closed = 1;
nodes = (
"323 899 LINE",
"323 771 LINE",
"387 771 LINE",
"387 643 LINE",
"451 643 LINE",
"451 253 LINE",
"387 253 LINE",
"387 125 LINE",
"323 125 LINE",
"323 -3 LINE",
"-3 -3 LINE",
"-3 131 LINE",
"61 131 LINE",
"61 381 LINE",
"-3 381 LINE",
"-3 515 LINE",
"61 515 LINE",
"61 765 LINE",
"-3 765 LINE",
"-3 899 LINE"
);
},
{
closed = 1;
nodes = (
"195 765 LINE",
"195 515 LINE",
"259 515 LINE",
"259 381 LINE",
"195 381 LINE",
"195 131 LINE",
"253 131 LINE",
"253 259 LINE",
"317 259 LINE",
"317 637 LINE",
"253 637 LINE",
"253 765 LINE"
);
}
);
userData = {
com.typemytype.robofont.mark = (
0.656,
1,
0.6,
1
);
};
width = 512;
},
{
layerId = "EF047752-ED93-49D3-A4D1-D66A6AAE90C7";
paths = (
{
closed = 1;
nodes = (
"1 54 OFFCURVE",
"-5 60 OFFCURVE",
"-5 68 OFFCURVE",
"1 74 OFFCURVE",
"7 74 QCURVE SMOOTH",
"313 74 LINE SMOOTH",
"319 74 OFFCURVE",
"325 68 OFFCURVE",
"325 60 OFFCURVE",
"319 54 OFFCURVE",
"313 54 QCURVE SMOOTH",
"7 54 LINE SMOOTH"
);
},
{
closed = 1;
nodes = (
"65 182 OFFCURVE",
"59 188 OFFCURVE",
"59 196 OFFCURVE",
"65 202 OFFCURVE",
"71 202 QCURVE SMOOTH",
"185 202 LINE SMOOTH",
"191 202 OFFCURVE",
"197 196 OFFCURVE",
"197 188 OFFCURVE",
"191 182 OFFCURVE",
"185 182 QCURVE SMOOTH",
"71 182 LINE SMOOTH"
);
},
{
closed = 1;
nodes = (
"257 182 OFFCURVE",
"251 188 OFFCURVE",
"251 196 OFFCURVE",
"257 202 OFFCURVE",
"263 202 QCURVE SMOOTH",
"377 202 LINE SMOOTH",
"383 202 OFFCURVE",
"389 196 OFFCURVE",
"389 188 OFFCURVE",
"383 182 OFFCURVE",
"377 182 QCURVE SMOOTH",
"263 182 LINE SMOOTH"
);
},
{
closed = 1;
nodes = (
"65 310 OFFCURVE",
"59 316 OFFCURVE",
"59 324 OFFCURVE",
"65 330 OFFCURVE",
"71 330 QCURVE SMOOTH",
"185 330 LINE SMOOTH",
"191 330 OFFCURVE",
"197 324 OFFCURVE",
"197 316 OFFCURVE",
"191 310 OFFCURVE",
"185 310 QCURVE SMOOTH",
"71 310 LINE SMOOTH"
);
},
{
closed = 1;
nodes = (
"321 310 OFFCURVE",
"315 316 OFFCURVE",
"315 324 OFFCURVE",
"321 330 OFFCURVE",
"327 330 QCURVE SMOOTH",
"441 330 LINE SMOOTH",
"447 330 OFFCURVE",
"453 324 OFFCURVE",
"453 316 OFFCURVE",
"447 310 OFFCURVE",
"441 310 QCURVE SMOOTH",
"327 310 LINE SMOOTH"
);
},
{
closed = 1;
nodes = (
"1 438 OFFCURVE",
"-5 444 OFFCURVE",
"-5 452 OFFCURVE",
"1 458 OFFCURVE",
"7 458 QCURVE SMOOTH",
"249 458 LINE SMOOTH",
"255 458 OFFCURVE",
"261 452 OFFCURVE",
"261 444 OFFCURVE",
"255 438 OFFCURVE",
"249 438 QCURVE SMOOTH",
"7 438 LINE SMOOTH"
);
},
{
closed = 1;
nodes = (
"321 438 OFFCURVE",
"315 444 OFFCURVE",
"315 452 OFFCURVE",
"321 458 OFFCURVE",
"327 458 QCURVE SMOOTH",
"441 458 LINE SMOOTH",
"447 458 OFFCURVE",
"453 452 OFFCURVE",
"453 444 OFFCURVE",
"447 438 OFFCURVE",
"441 438 QCURVE SMOOTH",
"327 438 LINE SMOOTH"
);
},
{
closed = 1;
nodes = (
"65 566 OFFCURVE",
"59 572 OFFCURVE",
"59 580 OFFCURVE",
"65 586 OFFCURVE",
"71 586 QCURVE SMOOTH",
"185 586 LINE SMOOTH",
"191 586 OFFCURVE",
"197 580 OFFCURVE",
"197 572 OFFCURVE",
"191 566 OFFCURVE",
"185 566 QCURVE SMOOTH",
"71 566 LINE SMOOTH"
);
},
{
closed = 1;
nodes = (
"321 566 OFFCURVE",
"315 572 OFFCURVE",
"315 580 OFFCURVE",
"321 586 OFFCURVE",
"327 586 QCURVE SMOOTH",
"441 586 LINE SMOOTH",
"447 586 OFFCURVE",
"453 580 OFFCURVE",
"453 572 OFFCURVE",
"447 566 OFFCURVE",
"441 566 QCURVE SMOOTH",
"327 566 LINE SMOOTH"
);
},
{
closed = 1;
nodes = (
"65 694 OFFCURVE",
"59 700 OFFCURVE",
"59 708 OFFCURVE",
"65 714 OFFCURVE",
"71 714 QCURVE SMOOTH",
"185 714 LINE SMOOTH",
"191 714 OFFCURVE",
"197 708 OFFCURVE",
"197 700 OFFCURVE",
"191 694 OFFCURVE",
"185 694 QCURVE SMOOTH",
"71 694 LINE SMOOTH"
);
},
{
closed = 1;
nodes = (
"257 694 OFFCURVE",
"251 700 OFFCURVE",
"251 708 OFFCURVE",
"257 714 OFFCURVE",
"263 714 QCURVE SMOOTH",
"377 714 LINE SMOOTH",
"383 714 OFFCURVE",
"389 708 OFFCURVE",
"389 700 OFFCURVE",
"383 694 OFFCURVE",
"377 694 QCURVE SMOOTH",
"263 694 LINE SMOOTH"
);
},
{
closed = 1;
nodes = (
"1 822 OFFCURVE",
"-5 828 OFFCURVE",
"-5 836 OFFCURVE",
"1 842 OFFCURVE",
"7 842 QCURVE SMOOTH",
"313 842 LINE SMOOTH",
"319 842 OFFCURVE",
"325 836 OFFCURVE",
"325 828 OFFCURVE",
"319 822 OFFCURVE",
"313 822 QCURVE SMOOTH",
"7 822 LINE SMOOTH"
);
}
);
width = 512;
},
{
layerId = "164C8123-3F0E-4C99-877D-0E85C432A9CE";
paths = (
{
closed = 1;
nodes = (
"17 -61 OFFCURVE",
"-63 13 OFFCURVE",
"-63 115 OFFCURVE",
"17 189 OFFCURVE",
"87 189 QCURVE SMOOTH",
"233 189 LINE SMOOTH",
"303 189 OFFCURVE",
"383 115 OFFCURVE",
"383 13 OFFCURVE",
"303 -61 OFFCURVE",
"233 -61 QCURVE SMOOTH",
"87 -61 LINE SMOOTH"
);
},
{
closed = 1;
nodes = (
"73 67 OFFCURVE",
"1 141 OFFCURVE",
"1 243 OFFCURVE",
"73 317 OFFCURVE",
"126 317 QCURVE SMOOTH",
"130 317 LINE SMOOTH",
"183 317 OFFCURVE",
"255 243 OFFCURVE",
"255 141 OFFCURVE",
"183 67 OFFCURVE",
"130 67 QCURVE SMOOTH",
"126 67 LINE SMOOTH"
);
},
{
closed = 1;
nodes = (
"265 67 OFFCURVE",
"193 141 OFFCURVE",
"193 243 OFFCURVE",
"265 317 OFFCURVE",
"318 317 QCURVE SMOOTH",
"322 317 LINE SMOOTH",
"375 317 OFFCURVE",
"447 243 OFFCURVE",
"447 141 OFFCURVE",
"375 67 OFFCURVE",
"322 67 QCURVE SMOOTH",
"318 67 LINE SMOOTH"
);
},
{
closed = 1;
nodes = (
"73 195 OFFCURVE",
"1 269 OFFCURVE",
"1 371 OFFCURVE",
"73 445 OFFCURVE",
"126 445 QCURVE SMOOTH",
"130 445 LINE SMOOTH",
"183 445 OFFCURVE",
"255 371 OFFCURVE",
"255 269 OFFCURVE",
"183 195 OFFCURVE",
"130 195 QCURVE SMOOTH",
"126 195 LINE SMOOTH"
);
},
{
closed = 1;
nodes = (
"329 195 OFFCURVE",
"257 269 OFFCURVE",
"257 371 OFFCURVE",
"329 445 OFFCURVE",
"382 445 QCURVE SMOOTH",
"386 445 LINE SMOOTH",
"439 445 OFFCURVE",
"511 371 OFFCURVE",
"511 269 OFFCURVE",
"439 195 OFFCURVE",
"386 195 QCURVE SMOOTH",
"382 195 LINE SMOOTH"
);
},
{
closed = 1;
nodes = (
"17 323 OFFCURVE",
"-63 397 OFFCURVE",
"-63 499 OFFCURVE",
"17 573 OFFCURVE",
"87 573 QCURVE SMOOTH",
"169 573 LINE SMOOTH",
"239 573 OFFCURVE",
"319 499 OFFCURVE",
"319 397 OFFCURVE",
"239 323 OFFCURVE",
"169 323 QCURVE SMOOTH",
"87 323 LINE SMOOTH"
);
},
{
closed = 1;
nodes = (
"329 323 OFFCURVE",
"257 397 OFFCURVE",
"257 499 OFFCURVE",
"329 573 OFFCURVE",
"382 573 QCURVE SMOOTH",
"386 573 LINE SMOOTH",
"439 573 OFFCURVE",
"511 499 OFFCURVE",
"511 397 OFFCURVE",
"439 323 OFFCURVE",
"386 323 QCURVE SMOOTH",
"382 323 LINE SMOOTH"
);
},
{
closed = 1;
nodes = (
"73 451 OFFCURVE",
"1 525 OFFCURVE",
"1 627 OFFCURVE",
"73 701 OFFCURVE",
"126 701 QCURVE SMOOTH",
"130 701 LINE SMOOTH",
"183 701 OFFCURVE",
"255 627 OFFCURVE",
"255 525 OFFCURVE",
"183 451 OFFCURVE",
"130 451 QCURVE SMOOTH",
"126 451 LINE SMOOTH"
);
},
{
closed = 1;
nodes = (
"329 451 OFFCURVE",
"257 525 OFFCURVE",
"257 627 OFFCURVE",
"329 701 OFFCURVE",
"382 701 QCURVE SMOOTH",
"386 701 LINE SMOOTH",
"439 701 OFFCURVE",
"511 627 OFFCURVE",
"511 525 OFFCURVE",
"439 451 OFFCURVE",
"386 451 QCURVE SMOOTH",
"382 451 LINE SMOOTH"
);
},
{
closed = 1;
nodes = (
"73 579 OFFCURVE",
"1 653 OFFCURVE",
"1 755 OFFCURVE",
"73 829 OFFCURVE",
"126 829 QCURVE SMOOTH",
"130 829 LINE SMOOTH",
"183 829 OFFCURVE",
"255 755 OFFCURVE",
"255 653 OFFCURVE",
"183 579 OFFCURVE",
"130 579 QCURVE SMOOTH",
"126 579 LINE SMOOTH"
);
},
{
closed = 1;
nodes = (
"265 579 OFFCURVE",
"193 653 OFFCURVE",
"193 755 OFFCURVE",
"265 829 OFFCURVE",
"318 829 QCURVE SMOOTH",
"322 829 LINE SMOOTH",
"375 829 OFFCURVE",
"447 755 OFFCURVE",
"447 653 OFFCURVE",
"375 579 OFFCURVE",
"322 579 QCURVE SMOOTH",
"318 579 LINE SMOOTH"
);
},
{
closed = 1;
nodes = (
"17 707 OFFCURVE",
"-63 781 OFFCURVE",
"-63 883 OFFCURVE",
"17 957 OFFCURVE",
"87 957 QCURVE SMOOTH",
"233 957 LINE SMOOTH",
"303 957 OFFCURVE",
"383 883 OFFCURVE",
"383 781 OFFCURVE",
"303 707 OFFCURVE",
"233 707 QCURVE SMOOTH",
"87 707 LINE SMOOTH"
);
}
);
width = 512;
},
{
layerId = "EDC3ADDC-530C-4ECE-AAC6-732B149A8D4A";
paths = (
{
closed = 1;
nodes = (
"-87 54 OFFCURVE",
"-93 60 OFFCURVE",
"-93 68 OFFCURVE",
"-87 74 OFFCURVE",
"-81 74 QCURVE SMOOTH",
"401 74 LINE SMOOTH",
"407 74 OFFCURVE",
"413 68 OFFCURVE",
"413 60 OFFCURVE",
"407 54 OFFCURVE",
"401 54 QCURVE SMOOTH",
"-81 54 LINE SMOOTH"
);
},
{
closed = 1;
nodes = (
"-23 182 OFFCURVE",
"-29 188 OFFCURVE",
"-29 196 OFFCURVE",
"-23 202 OFFCURVE",
"-17 202 QCURVE SMOOTH",
"273 202 LINE SMOOTH",
"279 202 OFFCURVE",
"285 196 OFFCURVE",
"285 188 OFFCURVE",
"279 182 OFFCURVE",
"273 182 QCURVE SMOOTH",
"-17 182 LINE SMOOTH"
);
},
{
closed = 1;
nodes = (
"169 182 OFFCURVE",
"163 188 OFFCURVE",
"163 196 OFFCURVE",
"169 202 OFFCURVE",
"175 202 QCURVE SMOOTH",
"465 202 LINE SMOOTH",
"471 202 OFFCURVE",
"477 196 OFFCURVE",
"477 188 OFFCURVE",
"471 182 OFFCURVE",
"465 182 QCURVE SMOOTH",
"175 182 LINE SMOOTH"
);
},
{
closed = 1;
nodes = (
"-23 310 OFFCURVE",
"-29 316 OFFCURVE",
"-29 324 OFFCURVE",
"-23 330 OFFCURVE",
"-17 330 QCURVE SMOOTH",
"273 330 LINE SMOOTH",
"279 330 OFFCURVE",
"285 324 OFFCURVE",
"285 316 OFFCURVE",
"279 310 OFFCURVE",
"273 310 QCURVE SMOOTH",
"-17 310 LINE SMOOTH"
);
},
{
closed = 1;
nodes = (
"233 310 OFFCURVE",
"227 316 OFFCURVE",
"227 324 OFFCURVE",
"233 330 OFFCURVE",
"239 330 QCURVE SMOOTH",
"529 330 LINE SMOOTH",
"535 330 OFFCURVE",
"541 324 OFFCURVE",
"541 316 OFFCURVE",
"535 310 OFFCURVE",
"529 310 QCURVE SMOOTH",
"239 310 LINE SMOOTH"
);
},
{
closed = 1;
nodes = (
"-87 438 OFFCURVE",
"-93 444 OFFCURVE",
"-93 452 OFFCURVE",
"-87 458 OFFCURVE",
"-81 458 QCURVE SMOOTH",
"337 458 LINE SMOOTH",
"343 458 OFFCURVE",
"349 452 OFFCURVE",
"349 444 OFFCURVE",
"343 438 OFFCURVE",
"337 438 QCURVE SMOOTH",
"-81 438 LINE SMOOTH"
);
},
{
closed = 1;
nodes = (
"233 438 OFFCURVE",
"227 444 OFFCURVE",
"227 452 OFFCURVE",
"233 458 OFFCURVE",
"239 458 QCURVE SMOOTH",
"529 458 LINE SMOOTH",
"535 458 OFFCURVE",
"541 452 OFFCURVE",
"541 444 OFFCURVE",
"535 438 OFFCURVE",
"529 438 QCURVE SMOOTH",
"239 438 LINE SMOOTH"
);
},
{
closed = 1;
nodes = (
"-23 566 OFFCURVE",
"-29 572 OFFCURVE",
"-29 580 OFFCURVE",
"-23 586 OFFCURVE",
"-17 586 QCURVE SMOOTH",
"273 586 LINE SMOOTH",
"279 586 OFFCURVE",
"285 580 OFFCURVE",
"285 572 OFFCURVE",
"279 566 OFFCURVE",
"273 566 QCURVE SMOOTH",
"-17 566 LINE SMOOTH"
);
},
{
closed = 1;
nodes = (
"233 566 OFFCURVE",
"227 572 OFFCURVE",
"227 580 OFFCURVE",
"233 586 OFFCURVE",
"239 586 QCURVE SMOOTH",
"529 586 LINE SMOOTH",
"535 586 OFFCURVE",
"541 580 OFFCURVE",
"541 572 OFFCURVE",
"535 566 OFFCURVE",
"529 566 QCURVE SMOOTH",
"239 566 LINE SMOOTH"
);
},
{
closed = 1;
nodes = (
"-23 694 OFFCURVE",
"-29 700 OFFCURVE",
"-29 708 OFFCURVE",
"-23 714 OFFCURVE",
"-17 714 QCURVE SMOOTH",
"273 714 LINE SMOOTH",
"279 714 OFFCURVE",
"285 708 OFFCURVE",
"285 700 OFFCURVE",
"279 694 OFFCURVE",
"273 694 QCURVE SMOOTH",
"-17 694 LINE SMOOTH"
);
},
{
closed = 1;
nodes = (
"169 694 OFFCURVE",
"163 700 OFFCURVE",
"163 708 OFFCURVE",
"169 714 OFFCURVE",
"175 714 QCURVE SMOOTH",
"465 714 LINE SMOOTH",
"471 714 OFFCURVE",
"477 708 OFFCURVE",
"477 700 OFFCURVE",
"471 694 OFFCURVE",
"465 694 QCURVE SMOOTH",
"175 694 LINE SMOOTH"
);
},
{
closed = 1;
nodes = (
"-87 822 OFFCURVE",
"-93 828 OFFCURVE",
"-93 836 OFFCURVE",
"-87 842 OFFCURVE",
"-81 842 QCURVE SMOOTH",
"401 842 LINE SMOOTH",
"407 842 OFFCURVE",
"413 836 OFFCURVE",
"413 828 OFFCURVE",
"407 822 OFFCURVE",
"401 822 QCURVE SMOOTH",
"-81 822 LINE SMOOTH"
);
}
);
width = 512;
},
{
layerId = "38088322-78A3-4F4F-B46E-F8355B0BCD96";
paths = (
{
closed = 1;
nodes = (
"-45 -61 OFFCURVE",
"-125 13 OFFCURVE",
"-125 115 OFFCURVE",
"-45 189 OFFCURVE",
"25 189 QCURVE SMOOTH",
"295 189 LINE SMOOTH",
"365 189 OFFCURVE",
"445 115 OFFCURVE",
"445 13 OFFCURVE",
"365 -61 OFFCURVE",
"295 -61 QCURVE SMOOTH",
"25 -61 LINE SMOOTH"
);
},
{
closed = 1;
nodes = (
"11 67 OFFCURVE",
"-61 141 OFFCURVE",
"-61 243 OFFCURVE",
"11 317 OFFCURVE",
"64 317 QCURVE SMOOTH",
"192 317 LINE SMOOTH",
"245 317 OFFCURVE",
"317 243 OFFCURVE",
"317 141 OFFCURVE",
"245 67 OFFCURVE",
"192 67 QCURVE SMOOTH",
"64 67 LINE SMOOTH"
);
},
{
closed = 1;
nodes = (
"203 67 OFFCURVE",
"131 141 OFFCURVE",
"131 243 OFFCURVE",
"203 317 OFFCURVE",
"256 317 QCURVE SMOOTH",
"384 317 LINE SMOOTH",
"437 317 OFFCURVE",
"509 243 OFFCURVE",
"509 141 OFFCURVE",
"437 67 OFFCURVE",
"384 67 QCURVE SMOOTH",
"256 67 LINE SMOOTH"
);
},
{
closed = 1;
nodes = (
"11 195 OFFCURVE",
"-61 269 OFFCURVE",
"-61 371 OFFCURVE",
"11 445 OFFCURVE",
"64 445 QCURVE SMOOTH",
"192 445 LINE SMOOTH",
"245 445 OFFCURVE",
"317 371 OFFCURVE",
"317 269 OFFCURVE",
"245 195 OFFCURVE",
"192 195 QCURVE SMOOTH",
"64 195 LINE SMOOTH"
);
},
{
closed = 1;
nodes = (
"267 195 OFFCURVE",
"195 269 OFFCURVE",
"195 371 OFFCURVE",
"267 445 OFFCURVE",
"320 445 QCURVE SMOOTH",
"448 445 LINE SMOOTH",
"501 445 OFFCURVE",
"573 371 OFFCURVE",
"573 269 OFFCURVE",
"501 195 OFFCURVE",
"448 195 QCURVE SMOOTH",
"320 195 LINE SMOOTH"
);
},
{
closed = 1;
nodes = (
"-45 323 OFFCURVE",
"-125 397 OFFCURVE",
"-125 499 OFFCURVE",
"-45 573 OFFCURVE",
"25 573 QCURVE SMOOTH",
"231 573 LINE SMOOTH",
"301 573 OFFCURVE",
"381 499 OFFCURVE",
"381 397 OFFCURVE",
"301 323 OFFCURVE",
"231 323 QCURVE SMOOTH",
"25 323 LINE SMOOTH"
);
},
{
closed = 1;
nodes = (
"267 323 OFFCURVE",
"195 397 OFFCURVE",
"195 499 OFFCURVE",
"267 573 OFFCURVE",
"320 573 QCURVE SMOOTH",
"448 573 LINE SMOOTH",
"501 573 OFFCURVE",
"573 499 OFFCURVE",
"573 397 OFFCURVE",
"501 323 OFFCURVE",
"448 323 QCURVE SMOOTH",
"320 323 LINE SMOOTH"
);
},
{
closed = 1;
nodes = (
"11 451 OFFCURVE",
"-61 525 OFFCURVE",
"-61 627 OFFCURVE",
"11 701 OFFCURVE",
"64 701 QCURVE SMOOTH",
"192 701 LINE SMOOTH",
"245 701 OFFCURVE",
"317 627 OFFCURVE",
"317 525 OFFCURVE",
"245 451 OFFCURVE",
"192 451 QCURVE SMOOTH",
"64 451 LINE SMOOTH"
);
},
{
closed = 1;
nodes = (
"267 451 OFFCURVE",
"195 525 OFFCURVE",
"195 627 OFFCURVE",
"267 701 OFFCURVE",
"320 701 QCURVE SMOOTH",
"448 701 LINE SMOOTH",
"501 701 OFFCURVE",
"573 627 OFFCURVE",
"573 525 OFFCURVE",
"501 451 OFFCURVE",
"448 451 QCURVE SMOOTH",
"320 451 LINE SMOOTH"
);
},
{
closed = 1;
nodes = (
"11 579 OFFCURVE",
"-61 653 OFFCURVE",
"-61 755 OFFCURVE",
"11 829 OFFCURVE",
"64 829 QCURVE SMOOTH",
"192 829 LINE SMOOTH",
"245 829 OFFCURVE",
"317 755 OFFCURVE",
"317 653 OFFCURVE",
"245 579 OFFCURVE",
"192 579 QCURVE SMOOTH",
"64 579 LINE SMOOTH"
);
},
{
closed = 1;
nodes = (
"203 579 OFFCURVE",
"131 653 OFFCURVE",
"131 755 OFFCURVE",
"203 829 OFFCURVE",
"256 829 QCURVE SMOOTH",
"384 829 LINE SMOOTH",
"437 829 OFFCURVE",
"509 755 OFFCURVE",
"509 653 OFFCURVE",
"437 579 OFFCURVE",
"384 579 QCURVE SMOOTH",
"256 579 LINE SMOOTH"
);
},
{
closed = 1;
nodes = (
"-45 707 OFFCURVE",
"-125 781 OFFCURVE",
"-125 883 OFFCURVE",
"-45 957 OFFCURVE",
"25 957 QCURVE SMOOTH",
"295 957 LINE SMOOTH",
"365 957 OFFCURVE",
"445 883 OFFCURVE",
"445 781 OFFCURVE",
"365 707 OFFCURVE",
"295 707 QCURVE SMOOTH",
"25 707 LINE SMOOTH"
);
}
);
width = 512;
}
);
unicode = 00D0;
},
{
glyphname = E;
lastChange = "2019-07-27 12:32:26 +0000";
layers = (
{
background = {
paths = (
{
closed = 1;
nodes = (
"451 899 LINE",
"451 637 LINE",
"317 637 LINE",
"317 765 LINE",
"195 765 LINE",
"195 515 LINE",
"323 515 LINE",
"323 381 LINE",
"195 381 LINE",
"195 131 LINE",
"317 131 LINE",
"317 259 LINE",
"451 259 LINE",
"451 -3 LINE",
"-3 -3 LINE",
"-3 131 LINE",
"61 131 LINE",
"61 765 LINE",
"-3 765 LINE",
"-3 899 LINE"
);
}
);
};
layerId = master01;
paths = (
{
closed = 0;
nodes = (
"-3 64 LINE",
"451 64 LINE"
);
},
{
closed = 0;
nodes = (
"61 192 LINE",
"195 192 LINE"
);
},
{
closed = 0;
nodes = (
"317 192 LINE",
"451 192 LINE"
);
},
{
closed = 0;
nodes = (
"61 320 LINE",
"195 320 LINE"
);
},
{
closed = 0;
nodes = (
"61 448 LINE",
"323 448 LINE"
);
},
{
closed = 0;
nodes = (
"61 576 LINE",
"195 576 LINE"
);
},
{
closed = 0;
nodes = (
"61 704 LINE",
"195 704 LINE"
);
},
{
closed = 0;
nodes = (
"317 704 LINE",
"451 704 LINE"
);
},
{
closed = 0;
nodes = (
"-3 832 LINE",
"451 832 LINE"
);
}
);
userData = {
com.typemytype.robofont.mark = (
0.656,
1,
0.6,
1
);
};
width = 512;
},
{
layerId = "968AADD4-6AAB-4A21-B439-CFC52095EED4";
paths = (
{
closed = 1;
nodes = (
"451 899 LINE",
"451 637 LINE",
"317 637 LINE",
"317 765 LINE",
"195 765 LINE",
"195 515 LINE",
"323 515 LINE",
"323 381 LINE",
"195 381 LINE",
"195 131 LINE",
"317 131 LINE",
"317 259 LINE",
"451 259 LINE",
"451 -3 LINE",
"-3 -3 LINE",
"-3 131 LINE",
"61 131 LINE",
"61 765 LINE",
"-3 765 LINE",
"-3 899 LINE"
);
}
);
userData = {
com.typemytype.robofont.mark = (
0.656,
1,
0.6,
1
);
};
width = 512;
},
{
layerId = "EF047752-ED93-49D3-A4D1-D66A6AAE90C7";
paths = (
{
closed = 1;
nodes = (
"1 54 OFFCURVE",
"-5 60 OFFCURVE",
"-5 68 OFFCURVE",
"1 74 OFFCURVE",
"7 74 QCURVE SMOOTH",
"441 74 LINE SMOOTH",
"447 74 OFFCURVE",
"453 68 OFFCURVE",
"453 60 OFFCURVE",
"447 54 OFFCURVE",
"441 54 QCURVE SMOOTH",
"7 54 LINE SMOOTH"
);
},
{
closed = 1;
nodes = (
"65 182 OFFCURVE",
"59 188 OFFCURVE",
"59 196 OFFCURVE",
"65 202 OFFCURVE",
"71 202 QCURVE SMOOTH",
"185 202 LINE SMOOTH",
"191 202 OFFCURVE",
"197 196 OFFCURVE",
"197 188 OFFCURVE",
"191 182 OFFCURVE",
"185 182 QCURVE SMOOTH",
"71 182 LINE SMOOTH"
);
},
{
closed = 1;
nodes = (
"321 182 OFFCURVE",
"315 188 OFFCURVE",
"315 196 OFFCURVE",
"321 202 OFFCURVE",
"327 202 QCURVE SMOOTH",
"441 202 LINE SMOOTH",
"447 202 OFFCURVE",
"453 196 OFFCURVE",
"453 188 OFFCURVE",
"447 182 OFFCURVE",
"441 182 QCURVE SMOOTH",
"327 182 LINE SMOOTH"
);
},
{
closed = 1;
nodes = (
"65 310 OFFCURVE",
"59 316 OFFCURVE",
"59 324 OFFCURVE",
"65 330 OFFCURVE",
"71 330 QCURVE SMOOTH",
"185 330 LINE SMOOTH",
"191 330 OFFCURVE",
"197 324 OFFCURVE",
"197 316 OFFCURVE",
"191 310 OFFCURVE",
"185 310 QCURVE SMOOTH",
"71 310 LINE SMOOTH"
);
},
{
closed = 1;
nodes = (
"65 438 OFFCURVE",
"59 444 OFFCURVE",
"59 452 OFFCURVE",
"65 458 OFFCURVE",
"71 458 QCURVE SMOOTH",
"313 458 LINE SMOOTH",
"319 458 OFFCURVE",
"325 452 OFFCURVE",
"325 444 OFFCURVE",
"319 438 OFFCURVE",
"313 438 QCURVE SMOOTH",
"71 438 LINE SMOOTH"
);
},
{
closed = 1;
nodes = (
"65 566 OFFCURVE",
"59 572 OFFCURVE",
"59 580 OFFCURVE",
"65 586 OFFCURVE",
"71 586 QCURVE SMOOTH",
"185 586 LINE SMOOTH",
"191 586 OFFCURVE",
"197 580 OFFCURVE",
"197 572 OFFCURVE",
"191 566 OFFCURVE",
"185 566 QCURVE SMOOTH",
"71 566 LINE SMOOTH"
);
},
{
closed = 1;
nodes = (
"65 694 OFFCURVE",
"59 700 OFFCURVE",
"59 708 OFFCURVE",
"65 714 OFFCURVE",
"71 714 QCURVE SMOOTH",
"185 714 LINE SMOOTH",
"191 714 OFFCURVE",
"197 708 OFFCURVE",
"197 700 OFFCURVE",
"191 694 OFFCURVE",
"185 694 QCURVE SMOOTH",
"71 694 LINE SMOOTH"
);
},
{
closed = 1;
nodes = (
"321 694 OFFCURVE",
"315 700 OFFCURVE",
"315 708 OFFCURVE",
"321 714 OFFCURVE",
"327 714 QCURVE SMOOTH",
"441 714 LINE SMOOTH",
"447 714 OFFCURVE",
"453 708 OFFCURVE",
"453 700 OFFCURVE",
"447 694 OFFCURVE",
"441 694 QCURVE SMOOTH",
"327 694 LINE SMOOTH"
);
},
{
closed = 1;
nodes = (
"1 822 OFFCURVE",
"-5 828 OFFCURVE",
"-5 836 OFFCURVE",
"1 842 OFFCURVE",
"7 842 QCURVE SMOOTH",
"441 842 LINE SMOOTH",
"447 842 OFFCURVE",
"453 836 OFFCURVE",
"453 828 OFFCURVE",
"447 822 OFFCURVE",
"441 822 QCURVE SMOOTH",
"7 822 LINE SMOOTH"
);
}
);
width = 512;
},
{
layerId = "164C8123-3F0E-4C99-877D-0E85C432A9CE";
paths = (
{
closed = 1;
nodes = (
"17 -61 OFFCURVE",
"-63 13 OFFCURVE",
"-63 115 OFFCURVE",
"17 189 OFFCURVE",
"87 189 QCURVE SMOOTH",
"361 189 LINE SMOOTH",
"431 189 OFFCURVE",
"511 115 OFFCURVE",
"511 13 OFFCURVE",
"431 -61 OFFCURVE",
"361 -61 QCURVE SMOOTH",
"87 -61 LINE SMOOTH"
);
},
{
closed = 1;
nodes = (
"73 67 OFFCURVE",
"1 141 OFFCURVE",
"1 243 OFFCURVE",
"73 317 OFFCURVE",
"126 317 QCURVE SMOOTH",
"130 317 LINE SMOOTH",
"183 317 OFFCURVE",
"255 243 OFFCURVE",
"255 141 OFFCURVE",
"183 67 OFFCURVE",
"130 67 QCURVE SMOOTH",
"126 67 LINE SMOOTH"
);
},
{
closed = 1;
nodes = (
"329 67 OFFCURVE",
"257 141 OFFCURVE",
"257 243 OFFCURVE",
"329 317 OFFCURVE",
"382 317 QCURVE SMOOTH",
"386 317 LINE SMOOTH",
"439 317 OFFCURVE",
"511 243 OFFCURVE",
"511 141 OFFCURVE",
"439 67 OFFCURVE",
"386 67 QCURVE SMOOTH",
"382 67 LINE SMOOTH"
);
},
{
closed = 1;
nodes = (
"73 195 OFFCURVE",
"1 269 OFFCURVE",
"1 371 OFFCURVE",
"73 445 OFFCURVE",
"126 445 QCURVE SMOOTH",
"130 445 LINE SMOOTH",
"183 445 OFFCURVE",
"255 371 OFFCURVE",
"255 269 OFFCURVE",
"183 195 OFFCURVE",
"130 195 QCURVE SMOOTH",
"126 195 LINE SMOOTH"
);
},
{
closed = 1;
nodes = (
"81 323 OFFCURVE",
"1 397 OFFCURVE",
"1 499 OFFCURVE",
"81 573 OFFCURVE",
"151 573 QCURVE SMOOTH",
"233 573 LINE SMOOTH",
"303 573 OFFCURVE",
"383 499 OFFCURVE",
"383 397 OFFCURVE",
"303 323 OFFCURVE",
"233 323 QCURVE SMOOTH",
"151 323 LINE SMOOTH"
);
},
{
closed = 1;
nodes = (
"73 451 OFFCURVE",
"1 525 OFFCURVE",
"1 627 OFFCURVE",
"73 701 OFFCURVE",
"126 701 QCURVE SMOOTH",
"130 701 LINE SMOOTH",
"183 701 OFFCURVE",
"255 627 OFFCURVE",
"255 525 OFFCURVE",
"183 451 OFFCURVE",
"130 451 QCURVE SMOOTH",
"126 451 LINE SMOOTH"
);
},
{
closed = 1;
nodes = (
"73 579 OFFCURVE",
"1 653 OFFCURVE",
"1 755 OFFCURVE",
"73 829 OFFCURVE",
"126 829 QCURVE SMOOTH",
"130 829 LINE SMOOTH",
"183 829 OFFCURVE",
"255 755 OFFCURVE",
"255 653 OFFCURVE",
"183 579 OFFCURVE",
"130 579 QCURVE SMOOTH",
"126 579 LINE SMOOTH"
);
},
{
closed = 1;
nodes = (
"329 579 OFFCURVE",
"257 653 OFFCURVE",
"257 755 OFFCURVE",
"329 829 OFFCURVE",
"382 829 QCURVE SMOOTH",
"386 829 LINE SMOOTH",
"439 829 OFFCURVE",
"511 755 OFFCURVE",
"511 653 OFFCURVE",
"439 579 OFFCURVE",
"386 579 QCURVE SMOOTH",
"382 579 LINE SMOOTH"
);
},
{
closed = 1;
nodes = (
"17 707 OFFCURVE",
"-63 781 OFFCURVE",
"-63 883 OFFCURVE",
"17 957 OFFCURVE",
"87 957 QCURVE SMOOTH",
"361 957 LINE SMOOTH",
"431 957 OFFCURVE",
"511 883 OFFCURVE",
"511 781 OFFCURVE",
"431 707 OFFCURVE",
"361 707 QCURVE SMOOTH",
"87 707 LINE SMOOTH"
);
}
);
width = 512;
},
{
layerId = "EDC3ADDC-530C-4ECE-AAC6-732B149A8D4A";
paths = (
{
closed = 1;
nodes = (
"-87 54 OFFCURVE",
"-93 60 OFFCURVE",
"-93 68 OFFCURVE",
"-87 74 OFFCURVE",
"-81 74 QCURVE SMOOTH",
"529 74 LINE SMOOTH",
"535 74 OFFCURVE",
"541 68 OFFCURVE",
"541 60 OFFCURVE",
"535 54 OFFCURVE",
"529 54 QCURVE SMOOTH",
"-81 54 LINE SMOOTH"
);
},
{
closed = 1;
nodes = (
"-23 182 OFFCURVE",
"-29 188 OFFCURVE",
"-29 196 OFFCURVE",
"-23 202 OFFCURVE",
"-17 202 QCURVE SMOOTH",
"273 202 LINE SMOOTH",
"279 202 OFFCURVE",
"285 196 OFFCURVE",
"285 188 OFFCURVE",
"279 182 OFFCURVE",
"273 182 QCURVE SMOOTH",
"-17 182 LINE SMOOTH"
);
},
{
closed = 1;
nodes = (
"233 182 OFFCURVE",
"227 188 OFFCURVE",
"227 196 OFFCURVE",
"233 202 OFFCURVE",
"239 202 QCURVE SMOOTH",
"529 202 LINE SMOOTH",
"535 202 OFFCURVE",
"541 196 OFFCURVE",
"541 188 OFFCURVE",
"535 182 OFFCURVE",
"529 182 QCURVE SMOOTH",
"239 182 LINE SMOOTH"
);
},
{
closed = 1;
nodes = (
"-23 310 OFFCURVE",
"-29 316 OFFCURVE",
"-29 324 OFFCURVE",
"-23 330 OFFCURVE",
"-17 330 QCURVE SMOOTH",
"273 330 LINE SMOOTH",
"279 330 OFFCURVE",
"285 324 OFFCURVE",
"285 316 OFFCURVE",
"279 310 OFFCURVE",
"273 310 QCURVE SMOOTH",
"-17 310 LINE SMOOTH"
);
},
{
closed = 1;
nodes = (
"-23 438 OFFCURVE",
"-29 444 OFFCURVE",
"-29 452 OFFCURVE",
"-23 458 OFFCURVE",
"-17 458 QCURVE SMOOTH",
"401 458 LINE SMOOTH",
"407 458 OFFCURVE",
"413 452 OFFCURVE",
"413 444 OFFCURVE",
"407 438 OFFCURVE",
"401 438 QCURVE SMOOTH",
"-17 438 LINE SMOOTH"
);
},
{
closed = 1;
nodes = (
"-23 566 OFFCURVE",
"-29 572 OFFCURVE",
"-29 580 OFFCURVE",
"-23 586 OFFCURVE",
"-17 586 QCURVE SMOOTH",
"273 586 LINE SMOOTH",
"279 586 OFFCURVE",
"285 580 OFFCURVE",
"285 572 OFFCURVE",
"279 566 OFFCURVE",
"273 566 QCURVE SMOOTH",
"-17 566 LINE SMOOTH"
);
},
{
closed = 1;
nodes = (
"-23 694 OFFCURVE",
"-29 700 OFFCURVE",
"-29 708 OFFCURVE",
"-23 714 OFFCURVE",
"-17 714 QCURVE SMOOTH",
"273 714 LINE SMOOTH",
"279 714 OFFCURVE",
"285 708 OFFCURVE",
"285 700 OFFCURVE",
"279 694 OFFCURVE",
"273 694 QCURVE SMOOTH",
"-17 694 LINE SMOOTH"
);
},
{
closed = 1;
nodes = (
"233 694 OFFCURVE",
"227 700 OFFCURVE",
"227 708 OFFCURVE",
"233 714 OFFCURVE",
"239 714 QCURVE SMOOTH",
"529 714 LINE SMOOTH",
"535 714 OFFCURVE",
"541 708 OFFCURVE",
"541 700 OFFCURVE",
"535 694 OFFCURVE",
"529 694 QCURVE SMOOTH",
"239 694 LINE SMOOTH"
);
},
{
closed = 1;
nodes = (
"-87 822 OFFCURVE",
"-93 828 OFFCURVE",
"-93 836 OFFCURVE",
"-87 842 OFFCURVE",
"-81 842 QCURVE SMOOTH",
"529 842 LINE SMOOTH",
"535 842 OFFCURVE",
"541 836 OFFCURVE",
"541 828 OFFCURVE",
"535 822 OFFCURVE",
"529 822 QCURVE SMOOTH",
"-81 822 LINE SMOOTH"
);
}
);
width = 512;
},
{
layerId = "38088322-78A3-4F4F-B46E-F8355B0BCD96";
paths = (
{
closed = 1;
nodes = (
"-45 -61 OFFCURVE",
"-125 13 OFFCURVE",
"-125 115 OFFCURVE",
"-45 189 OFFCURVE",
"25 189 QCURVE SMOOTH",
"423 189 LINE SMOOTH",
"493 189 OFFCURVE",
"573 115 OFFCURVE",
"573 13 OFFCURVE",
"493 -61 OFFCURVE",
"423 -61 QCURVE SMOOTH",
"25 -61 LINE SMOOTH"
);
},
{
closed = 1;
nodes = (
"11 67 OFFCURVE",
"-61 141 OFFCURVE",
"-61 243 OFFCURVE",
"11 317 OFFCURVE",
"64 317 QCURVE SMOOTH",
"192 317 LINE SMOOTH",
"245 317 OFFCURVE",
"317 243 OFFCURVE",
"317 141 OFFCURVE",
"245 67 OFFCURVE",
"192 67 QCURVE SMOOTH",
"64 67 LINE SMOOTH"
);
},
{
closed = 1;
nodes = (
"267 67 OFFCURVE",
"195 141 OFFCURVE",
"195 243 OFFCURVE",
"267 317 OFFCURVE",
"320 317 QCURVE SMOOTH",
"448 317 LINE SMOOTH",
"501 317 OFFCURVE",
"573 243 OFFCURVE",
"573 141 OFFCURVE",
"501 67 OFFCURVE",
"448 67 QCURVE SMOOTH",
"320 67 LINE SMOOTH"
);
},
{
closed = 1;
nodes = (
"11 195 OFFCURVE",
"-61 269 OFFCURVE",
"-61 371 OFFCURVE",
"11 445 OFFCURVE",
"64 445 QCURVE SMOOTH",
"192 445 LINE SMOOTH",
"245 445 OFFCURVE",
"317 371 OFFCURVE",
"317 269 OFFCURVE",
"245 195 OFFCURVE",
"192 195 QCURVE SMOOTH",
"64 195 LINE SMOOTH"
);
},
{
closed = 1;
nodes = (
"19 323 OFFCURVE",
"-61 397 OFFCURVE",
"-61 499 OFFCURVE",
"19 573 OFFCURVE",
"89 573 QCURVE SMOOTH",
"295 573 LINE SMOOTH",
"365 573 OFFCURVE",
"445 499 OFFCURVE",
"445 397 OFFCURVE",
"365 323 OFFCURVE",
"295 323 QCURVE SMOOTH",
"89 323 LINE SMOOTH"
);
},
{
closed = 1;
nodes = (
"11 451 OFFCURVE",
"-61 525 OFFCURVE",
"-61 627 OFFCURVE",
"11 701 OFFCURVE",
"64 701 QCURVE SMOOTH",
"192 701 LINE SMOOTH",
"245 701 OFFCURVE",
"317 627 OFFCURVE",
"317 525 OFFCURVE",
"245 451 OFFCURVE",
"192 451 QCURVE SMOOTH",
"64 451 LINE SMOOTH"
);
},
{
closed = 1;
nodes = (
"11 579 OFFCURVE",
"-61 653 OFFCURVE",
"-61 755 OFFCURVE",
"11 829 OFFCURVE",
"64 829 QCURVE SMOOTH",
"192 829 LINE SMOOTH",
"245 829 OFFCURVE",
"317 755 OFFCURVE",
"317 653 OFFCURVE",
"245 579 OFFCURVE",
"192 579 QCURVE SMOOTH",
"64 579 LINE SMOOTH"
);
},
{
closed = 1;
nodes = (
"267 579 OFFCURVE",
"195 653 OFFCURVE",
"195 755 OFFCURVE",
"267 829 OFFCURVE",
"320 829 QCURVE SMOOTH",
"448 829 LINE SMOOTH",
"501 829 OFFCURVE",
"573 755 OFFCURVE",
"573 653 OFFCURVE",
"501 579 OFFCURVE",
"448 579 QCURVE SMOOTH",
"320 579 LINE SMOOTH"
);
},
{
closed = 1;
nodes = (
"-45 707 OFFCURVE",
"-125 781 OFFCURVE",
"-125 883 OFFCURVE",
"-45 957 OFFCURVE",
"25 957 QCURVE SMOOTH",
"423 957 LINE SMOOTH",
"493 957 OFFCURVE",
"573 883 OFFCURVE",
"573 781 OFFCURVE",
"493 707 OFFCURVE",
"423 707 QCURVE SMOOTH",
"25 707 LINE SMOOTH"
);
}
);
width = 512;
}
);
unicode = 0045;
},
{
color = 6;
glyphname = Eacute;
lastChange = "2019-07-27 11:38:00 +0000";
layers = (
{
components = (
{
name = E.case;
},
{
name = acute;
}
);
layerId = master01;
width = 512;
},
{
components = (
{
name = E.case;
},
{
name = acute;
}
);
layerId = "EF047752-ED93-49D3-A4D1-D66A6AAE90C7";
width = 512;
},
{
components = (
{
name = E.case;
},
{
name = acute;
}
);
layerId = "164C8123-3F0E-4C99-877D-0E85C432A9CE";
width = 512;
},
{
components = (
{
name = E.case;
},
{
name = acute;
}
);
layerId = "EDC3ADDC-530C-4ECE-AAC6-732B149A8D4A";
width = 512;
},
{
components = (
{
name = E.case;
},
{
name = acute;
}
);
layerId = "38088322-78A3-4F4F-B46E-F8355B0BCD96";
width = 512;
},
{
background = {
paths = (
{
closed = 1;
nodes = (
"128 640 LINE",
"0 640 LINE",
"0 512 LINE",
"64 512 LINE",
"64 128 LINE",
"0 128 LINE",
"0 0 LINE",
"448 0 LINE",
"448 128 LINE",
"192 128 LINE",
"192 256 LINE",
"320 256 LINE",
"320 384 LINE",
"192 384 LINE",
"192 512 LINE",
"448 512 LINE",
"448 640 LINE",
"192 640 LINE",
"192 768 LINE",
"128 768 LINE"
);
},
{
closed = 1;
nodes = (
"192 768 LINE",
"320 768 LINE",
"320 896 LINE",
"192 896 LINE"
);
}
);
};
components = (
{
name = E.case;
},
{
name = acute;
}
);
layerId = "968AADD4-6AAB-4A21-B439-CFC52095EED4";
width = 512;
}
);
unicode = 00C9;
},
{
color = 6;
glyphname = Ecircumflex;
lastChange = "2019-07-27 11:38:00 +0000";
layers = (
{
components = (
{
name = E.case;
},
{
name = circumflex;
transform = "{1, 0, 0, 1, -64, 0}";
}
);
layerId = master01;
width = 512;
},
{
components = (
{
name = E.case;
},
{
name = circumflex;
transform = "{1, 0, 0, 1, -64, 0}";
}
);
layerId = "EF047752-ED93-49D3-A4D1-D66A6AAE90C7";
width = 512;
},
{
components = (
{
name = E.case;
},
{
name = circumflex;
transform = "{1, 0, 0, 1, -64, 0}";
}
);
layerId = "164C8123-3F0E-4C99-877D-0E85C432A9CE";
width = 512;
},
{
components = (
{
name = E.case;
},
{
name = circumflex;
transform = "{1, 0, 0, 1, -64, 0}";
}
);
layerId = "EDC3ADDC-530C-4ECE-AAC6-732B149A8D4A";
width = 512;
},
{
components = (
{
name = E.case;
},
{
name = circumflex;
transform = "{1, 0, 0, 1, -64, 0}";
}
);
layerId = "38088322-78A3-4F4F-B46E-F8355B0BCD96";
width = 512;
},
{
background = {
paths = (
{
closed = 1;
nodes = (
"128 768 LINE",
"64 768 LINE",
"64 640 LINE",
"0 640 LINE",
"0 512 LINE",
"64 512 LINE",
"64 128 LINE",
"0 128 LINE",
"0 0 LINE",
"448 0 LINE",
"448 128 LINE",
"192 128 LINE",
"192 256 LINE",
"320 256 LINE",
"320 384 LINE",
"192 384 LINE",
"192 512 LINE",
"448 512 LINE",
"448 640 LINE",
"320 640 LINE",
"320 768 LINE",
"256 768 LINE",
"256 896 LINE",
"128 896 LINE"
);
},
{
closed = 1;
nodes = (
"128 768 LINE",
"256 768 LINE",
"256 640 LINE",
"128 640 LINE"
);
}
);
};
components = (
{
name = E.case;
},
{
name = circumflex;
transform = "{1, 0, 0, 1, -64, 0}";
}
);
layerId = "968AADD4-6AAB-4A21-B439-CFC52095EED4";
width = 512;
}
);
unicode = 00CA;
},
{
color = 6;
glyphname = Edieresis;
lastChange = "2019-07-27 11:38:00 +0000";
layers = (
{
components = (
{
name = E.case;
},
{
name = dieresis;
}
);
layerId = master01;
width = 512;
},
{
components = (
{
name = E.case;
},
{
name = dieresis;
}
);
layerId = "EF047752-ED93-49D3-A4D1-D66A6AAE90C7";
width = 512;
},
{
components = (
{
name = E.case;
},
{
name = dieresis;
}
);
layerId = "164C8123-3F0E-4C99-877D-0E85C432A9CE";
width = 512;
},
{
components = (
{
name = E.case;
},
{
name = dieresis;
}
);
layerId = "EDC3ADDC-530C-4ECE-AAC6-732B149A8D4A";
width = 512;
},
{
components = (
{
name = E.case;
},
{
name = dieresis;
}
);
layerId = "38088322-78A3-4F4F-B46E-F8355B0BCD96";
width = 512;
},
{
background = {
paths = (
{
closed = 1;
nodes = (
"192 256 LINE",
"320 256 LINE",
"320 384 LINE",
"192 384 LINE",
"192 512 LINE",
"448 512 LINE",
"448 640 LINE",
"0 640 LINE",
"0 512 LINE",
"64 512 LINE",
"64 128 LINE",
"0 128 LINE",
"0 0 LINE",
"448 0 LINE",
"448 128 LINE",
"192 128 LINE"
);
},
{
closed = 1;
nodes = (
"64 768 LINE",
"192 768 LINE",
"192 896 LINE",
"64 896 LINE"
);
},
{
closed = 1;
nodes = (
"320 768 LINE",
"448 768 LINE",
"448 896 LINE",
"320 896 LINE"
);
}
);
};
components = (
{
name = E.case;
},
{
name = dieresis;
}
);
layerId = "968AADD4-6AAB-4A21-B439-CFC52095EED4";
width = 512;
}
);
unicode = 00CB;
},
{
color = 6;
glyphname = Egrave;
lastChange = "2019-07-27 11:38:00 +0000";
layers = (
{
components = (
{
name = E.case;
},
{
name = grave;
transform = "{1, 0, 0, 1, -128, 0}";
}
);
layerId = master01;
width = 512;
},
{
components = (
{
name = E.case;
},
{
name = grave;
transform = "{1, 0, 0, 1, -128, 0}";
}
);
layerId = "EF047752-ED93-49D3-A4D1-D66A6AAE90C7";
width = 512;
},
{
components = (
{
name = E.case;
},
{
name = grave;
transform = "{1, 0, 0, 1, -128, 0}";
}
);
layerId = "164C8123-3F0E-4C99-877D-0E85C432A9CE";
width = 512;
},
{
components = (
{
name = E.case;
},
{
name = grave;
transform = "{1, 0, 0, 1, -128, 0}";
}
);
layerId = "EDC3ADDC-530C-4ECE-AAC6-732B149A8D4A";
width = 512;
},
{
components = (
{
name = E.case;
},
{
name = grave;
transform = "{1, 0, 0, 1, -128, 0}";
}
);
layerId = "38088322-78A3-4F4F-B46E-F8355B0BCD96";
width = 512;
},
{
background = {
paths = (
{
closed = 1;
nodes = (
"192 256 LINE",
"320 256 LINE",
"320 384 LINE",
"192 384 LINE",
"192 512 LINE",
"448 512 LINE",
"448 640 LINE",
"256 640 LINE",
"256 768 LINE",
"192 768 LINE",
"192 896 LINE",
"64 896 LINE",
"64 768 LINE",
"192 768 LINE",
"192 640 LINE",
"0 640 LINE",
"0 512 LINE",
"64 512 LINE",
"64 128 LINE",
"0 128 LINE",
"0 0 LINE",
"448 0 LINE",
"448 128 LINE",
"192 128 LINE"
);
}
);
};
components = (
{
name = E.case;
},
{
name = grave;
transform = "{1, 0, 0, 1, -128, 0}";
}
);
layerId = "968AADD4-6AAB-4A21-B439-CFC52095EED4";
width = 512;
}
);
unicode = 00C8;
},
{
glyphname = F;
lastChange = "2019-07-27 12:32:26 +0000";
layers = (
{
background = {
paths = (
{
closed = 1;
nodes = (
"61 131 LINE",
"61 765 LINE",
"-3 765 LINE",
"-3 899 LINE",
"451 899 LINE",
"451 637 LINE",
"317 637 LINE",
"317 765 LINE",
"195 765 LINE",
"195 515 LINE",
"323 515 LINE",
"323 381 LINE",
"195 381 LINE",
"195 131 LINE",
"259 131 LINE",
"259 -3 LINE",
"-3 -3 LINE",
"-3 131 LINE"
);
}
);
};
layerId = master01;
paths = (
{
closed = 0;
nodes = (
"-3 64 LINE",
"259 64 LINE"
);
},
{
closed = 0;
nodes = (
"61 192 LINE",
"195 192 LINE"
);
},
{
closed = 0;
nodes = (
"61 320 LINE",
"195 320 LINE"
);
},
{
closed = 0;
nodes = (
"61 448 LINE",
"323 448 LINE"
);
},
{
closed = 0;
nodes = (
"61 576 LINE",
"195 576 LINE"
);
},
{
closed = 0;
nodes = (
"61 704 LINE",
"195 704 LINE"
);
},
{
closed = 0;
nodes = (
"317 704 LINE",
"451 704 LINE"
);
},
{
closed = 0;
nodes = (
"-3 832 LINE",
"451 832 LINE"
);
}
);
userData = {
com.typemytype.robofont.mark = (
0.656,
1,
0.6,
1
);
};
width = 512;
},
{
layerId = "968AADD4-6AAB-4A21-B439-CFC52095EED4";
paths = (
{
closed = 1;
nodes = (
"61 131 LINE",
"61 765 LINE",
"-3 765 LINE",
"-3 899 LINE",
"451 899 LINE",
"451 637 LINE",
"317 637 LINE",
"317 765 LINE",
"195 765 LINE",
"195 515 LINE",
"323 515 LINE",
"323 381 LINE",
"195 381 LINE",
"195 131 LINE",
"259 131 LINE",
"259 -3 LINE",
"-3 -3 LINE",
"-3 131 LINE"
);
}
);
userData = {
com.typemytype.robofont.mark = (
0.656,
1,
0.6,
1
);
};
width = 512;
},
{
layerId = "EF047752-ED93-49D3-A4D1-D66A6AAE90C7";
paths = (
{
closed = 1;
nodes = (
"1 54 OFFCURVE",
"-5 60 OFFCURVE",
"-5 68 OFFCURVE",
"1 74 OFFCURVE",
"7 74 QCURVE SMOOTH",
"249 74 LINE SMOOTH",
"255 74 OFFCURVE",
"261 68 OFFCURVE",
"261 60 OFFCURVE",
"255 54 OFFCURVE",
"249 54 QCURVE SMOOTH",
"7 54 LINE SMOOTH"
);
},
{
closed = 1;
nodes = (
"65 182 OFFCURVE",
"59 188 OFFCURVE",
"59 196 OFFCURVE",
"65 202 OFFCURVE",
"71 202 QCURVE SMOOTH",
"185 202 LINE SMOOTH",
"191 202 OFFCURVE",
"197 196 OFFCURVE",
"197 188 OFFCURVE",
"191 182 OFFCURVE",
"185 182 QCURVE SMOOTH",
"71 182 LINE SMOOTH"
);
},
{
closed = 1;
nodes = (
"65 310 OFFCURVE",
"59 316 OFFCURVE",
"59 324 OFFCURVE",
"65 330 OFFCURVE",
"71 330 QCURVE SMOOTH",
"185 330 LINE SMOOTH",
"191 330 OFFCURVE",
"197 324 OFFCURVE",
"197 316 OFFCURVE",
"191 310 OFFCURVE",
"185 310 QCURVE SMOOTH",
"71 310 LINE SMOOTH"
);
},
{
closed = 1;
nodes = (
"65 438 OFFCURVE",
"59 444 OFFCURVE",
"59 452 OFFCURVE",
"65 458 OFFCURVE",
"71 458 QCURVE SMOOTH",
"313 458 LINE SMOOTH",
"319 458 OFFCURVE",
"325 452 OFFCURVE",
"325 444 OFFCURVE",
"319 438 OFFCURVE",
"313 438 QCURVE SMOOTH",
"71 438 LINE SMOOTH"
);
},
{
closed = 1;
nodes = (
"65 566 OFFCURVE",
"59 572 OFFCURVE",
"59 580 OFFCURVE",
"65 586 OFFCURVE",
"71 586 QCURVE SMOOTH",
"185 586 LINE SMOOTH",
"191 586 OFFCURVE",
"197 580 OFFCURVE",
"197 572 OFFCURVE",
"191 566 OFFCURVE",
"185 566 QCURVE SMOOTH",
"71 566 LINE SMOOTH"
);
},
{
closed = 1;
nodes = (
"65 694 OFFCURVE",
"59 700 OFFCURVE",
"59 708 OFFCURVE",
"65 714 OFFCURVE",
"71 714 QCURVE SMOOTH",
"185 714 LINE SMOOTH",
"191 714 OFFCURVE",
"197 708 OFFCURVE",
"197 700 OFFCURVE",
"191 694 OFFCURVE",
"185 694 QCURVE SMOOTH",
"71 694 LINE SMOOTH"
);
},
{
closed = 1;
nodes = (
"321 694 OFFCURVE",
"315 700 OFFCURVE",
"315 708 OFFCURVE",
"321 714 OFFCURVE",
"327 714 QCURVE SMOOTH",
"441 714 LINE SMOOTH",
"447 714 OFFCURVE",
"453 708 OFFCURVE",
"453 700 OFFCURVE",
"447 694 OFFCURVE",
"441 694 QCURVE SMOOTH",
"327 694 LINE SMOOTH"
);
},
{
closed = 1;
nodes = (
"1 822 OFFCURVE",
"-5 828 OFFCURVE",
"-5 836 OFFCURVE",
"1 842 OFFCURVE",
"7 842 QCURVE SMOOTH",
"441 842 LINE SMOOTH",
"447 842 OFFCURVE",
"453 836 OFFCURVE",
"453 828 OFFCURVE",
"447 822 OFFCURVE",
"441 822 QCURVE SMOOTH",
"7 822 LINE SMOOTH"
);
}
);
width = 512;
},
{
layerId = "164C8123-3F0E-4C99-877D-0E85C432A9CE";
paths = (
{
closed = 1;
nodes = (
"17 -61 OFFCURVE",
"-63 13 OFFCURVE",
"-63 115 OFFCURVE",
"17 189 OFFCURVE",
"87 189 QCURVE SMOOTH",
"169 189 LINE SMOOTH",
"239 189 OFFCURVE",
"319 115 OFFCURVE",
"319 13 OFFCURVE",
"239 -61 OFFCURVE",
"169 -61 QCURVE SMOOTH",
"87 -61 LINE SMOOTH"
);
},
{
closed = 1;
nodes = (
"73 67 OFFCURVE",
"1 141 OFFCURVE",
"1 243 OFFCURVE",
"73 317 OFFCURVE",
"126 317 QCURVE SMOOTH",
"130 317 LINE SMOOTH",
"183 317 OFFCURVE",
"255 243 OFFCURVE",
"255 141 OFFCURVE",
"183 67 OFFCURVE",
"130 67 QCURVE SMOOTH",
"126 67 LINE SMOOTH"
);
},
{
closed = 1;
nodes = (
"73 195 OFFCURVE",
"1 269 OFFCURVE",
"1 371 OFFCURVE",
"73 445 OFFCURVE",
"126 445 QCURVE SMOOTH",
"130 445 LINE SMOOTH",
"183 445 OFFCURVE",
"255 371 OFFCURVE",
"255 269 OFFCURVE",
"183 195 OFFCURVE",
"130 195 QCURVE SMOOTH",
"126 195 LINE SMOOTH"
);
},
{
closed = 1;
nodes = (
"81 323 OFFCURVE",
"1 397 OFFCURVE",
"1 499 OFFCURVE",
"81 573 OFFCURVE",
"151 573 QCURVE SMOOTH",
"233 573 LINE SMOOTH",
"303 573 OFFCURVE",
"383 499 OFFCURVE",
"383 397 OFFCURVE",
"303 323 OFFCURVE",
"233 323 QCURVE SMOOTH",
"151 323 LINE SMOOTH"
);
},
{
closed = 1;
nodes = (
"73 451 OFFCURVE",
"1 525 OFFCURVE",
"1 627 OFFCURVE",
"73 701 OFFCURVE",
"126 701 QCURVE SMOOTH",
"130 701 LINE SMOOTH",
"183 701 OFFCURVE",
"255 627 OFFCURVE",
"255 525 OFFCURVE",
"183 451 OFFCURVE",
"130 451 QCURVE SMOOTH",
"126 451 LINE SMOOTH"
);
},
{
closed = 1;
nodes = (
"73 579 OFFCURVE",
"1 653 OFFCURVE",
"1 755 OFFCURVE",
"73 829 OFFCURVE",
"126 829 QCURVE SMOOTH",
"130 829 LINE SMOOTH",
"183 829 OFFCURVE",
"255 755 OFFCURVE",
"255 653 OFFCURVE",
"183 579 OFFCURVE",
"130 579 QCURVE SMOOTH",
"126 579 LINE SMOOTH"
);
},
{
closed = 1;
nodes = (
"329 579 OFFCURVE",
"257 653 OFFCURVE",
"257 755 OFFCURVE",
"329 829 OFFCURVE",
"382 829 QCURVE SMOOTH",
"386 829 LINE SMOOTH",
"439 829 OFFCURVE",
"511 755 OFFCURVE",
"511 653 OFFCURVE",
"439 579 OFFCURVE",
"386 579 QCURVE SMOOTH",
"382 579 LINE SMOOTH"
);
},
{
closed = 1;
nodes = (
"17 707 OFFCURVE",
"-63 781 OFFCURVE",
"-63 883 OFFCURVE",
"17 957 OFFCURVE",
"87 957 QCURVE SMOOTH",
"361 957 LINE SMOOTH",
"431 957 OFFCURVE",
"511 883 OFFCURVE",
"511 781 OFFCURVE",
"431 707 OFFCURVE",
"361 707 QCURVE SMOOTH",
"87 707 LINE SMOOTH"
);
}
);
width = 512;
},
{
layerId = "EDC3ADDC-530C-4ECE-AAC6-732B149A8D4A";
paths = (
{
closed = 1;
nodes = (
"-87 54 OFFCURVE",
"-93 60 OFFCURVE",
"-93 68 OFFCURVE",
"-87 74 OFFCURVE",
"-81 74 QCURVE SMOOTH",
"337 74 LINE SMOOTH",
"343 74 OFFCURVE",
"349 68 OFFCURVE",
"349 60 OFFCURVE",
"343 54 OFFCURVE",
"337 54 QCURVE SMOOTH",
"-81 54 LINE SMOOTH"
);
},
{
closed = 1;
nodes = (
"-23 182 OFFCURVE",
"-29 188 OFFCURVE",
"-29 196 OFFCURVE",
"-23 202 OFFCURVE",
"-17 202 QCURVE SMOOTH",
"273 202 LINE SMOOTH",
"279 202 OFFCURVE",
"285 196 OFFCURVE",
"285 188 OFFCURVE",
"279 182 OFFCURVE",
"273 182 QCURVE SMOOTH",
"-17 182 LINE SMOOTH"
);
},
{
closed = 1;
nodes = (
"-23 310 OFFCURVE",
"-29 316 OFFCURVE",
"-29 324 OFFCURVE",
"-23 330 OFFCURVE",
"-17 330 QCURVE SMOOTH",
"273 330 LINE SMOOTH",
"279 330 OFFCURVE",
"285 324 OFFCURVE",
"285 316 OFFCURVE",
"279 310 OFFCURVE",
"273 310 QCURVE SMOOTH",
"-17 310 LINE SMOOTH"
);
},
{
closed = 1;
nodes = (
"-23 438 OFFCURVE",
"-29 444 OFFCURVE",
"-29 452 OFFCURVE",
"-23 458 OFFCURVE",
"-17 458 QCURVE SMOOTH",
"401 458 LINE SMOOTH",
"407 458 OFFCURVE",
"413 452 OFFCURVE",
"413 444 OFFCURVE",
"407 438 OFFCURVE",
"401 438 QCURVE SMOOTH",
"-17 438 LINE SMOOTH"
);
},
{
closed = 1;
nodes = (
"-23 566 OFFCURVE",
"-29 572 OFFCURVE",
"-29 580 OFFCURVE",
"-23 586 OFFCURVE",
"-17 586 QCURVE SMOOTH",
"273 586 LINE SMOOTH",
"279 586 OFFCURVE",
"285 580 OFFCURVE",
"285 572 OFFCURVE",
"279 566 OFFCURVE",
"273 566 QCURVE SMOOTH",
"-17 566 LINE SMOOTH"
);
},
{
closed = 1;
nodes = (
"-23 694 OFFCURVE",
"-29 700 OFFCURVE",
"-29 708 OFFCURVE",
"-23 714 OFFCURVE",
"-17 714 QCURVE SMOOTH",
"273 714 LINE SMOOTH",
"279 714 OFFCURVE",
"285 708 OFFCURVE",
"285 700 OFFCURVE",
"279 694 OFFCURVE",
"273 694 QCURVE SMOOTH",
"-17 694 LINE SMOOTH"
);
},
{
closed = 1;
nodes = (
"233 694 OFFCURVE",
"227 700 OFFCURVE",
"227 708 OFFCURVE",
"233 714 OFFCURVE",
"239 714 QCURVE SMOOTH",
"529 714 LINE SMOOTH",
"535 714 OFFCURVE",
"541 708 OFFCURVE",
"541 700 OFFCURVE",
"535 694 OFFCURVE",
"529 694 QCURVE SMOOTH",
"239 694 LINE SMOOTH"
);
},
{
closed = 1;
nodes = (
"-87 822 OFFCURVE",
"-93 828 OFFCURVE",
"-93 836 OFFCURVE",
"-87 842 OFFCURVE",
"-81 842 QCURVE SMOOTH",
"529 842 LINE SMOOTH",
"535 842 OFFCURVE",
"541 836 OFFCURVE",
"541 828 OFFCURVE",
"535 822 OFFCURVE",
"529 822 QCURVE SMOOTH",
"-81 822 LINE SMOOTH"
);
}
);
width = 512;
},
{
layerId = "38088322-78A3-4F4F-B46E-F8355B0BCD96";
paths = (
{
closed = 1;
nodes = (
"-45 -61 OFFCURVE",
"-125 13 OFFCURVE",
"-125 115 OFFCURVE",
"-45 189 OFFCURVE",
"25 189 QCURVE SMOOTH",
"231 189 LINE SMOOTH",
"301 189 OFFCURVE",
"381 115 OFFCURVE",
"381 13 OFFCURVE",
"301 -61 OFFCURVE",
"231 -61 QCURVE SMOOTH",
"25 -61 LINE SMOOTH"
);
},
{
closed = 1;
nodes = (
"11 67 OFFCURVE",
"-61 141 OFFCURVE",
"-61 243 OFFCURVE",
"11 317 OFFCURVE",
"64 317 QCURVE SMOOTH",
"192 317 LINE SMOOTH",
"245 317 OFFCURVE",
"317 243 OFFCURVE",
"317 141 OFFCURVE",
"245 67 OFFCURVE",
"192 67 QCURVE SMOOTH",
"64 67 LINE SMOOTH"
);
},
{
closed = 1;
nodes = (
"11 195 OFFCURVE",
"-61 269 OFFCURVE",
"-61 371 OFFCURVE",
"11 445 OFFCURVE",
"64 445 QCURVE SMOOTH",
"192 445 LINE SMOOTH",
"245 445 OFFCURVE",
"317 371 OFFCURVE",
"317 269 OFFCURVE",
"245 195 OFFCURVE",
"192 195 QCURVE SMOOTH",
"64 195 LINE SMOOTH"
);
},
{
closed = 1;
nodes = (
"19 323 OFFCURVE",
"-61 397 OFFCURVE",
"-61 499 OFFCURVE",
"19 573 OFFCURVE",
"89 573 QCURVE SMOOTH",
"295 573 LINE SMOOTH",
"365 573 OFFCURVE",
"445 499 OFFCURVE",
"445 397 OFFCURVE",
"365 323 OFFCURVE",
"295 323 QCURVE SMOOTH",
"89 323 LINE SMOOTH"
);
},
{
closed = 1;
nodes = (
"11 451 OFFCURVE",
"-61 525 OFFCURVE",
"-61 627 OFFCURVE",
"11 701 OFFCURVE",
"64 701 QCURVE SMOOTH",
"192 701 LINE SMOOTH",
"245 701 OFFCURVE",
"317 627 OFFCURVE",
"317 525 OFFCURVE",
"245 451 OFFCURVE",
"192 451 QCURVE SMOOTH",
"64 451 LINE SMOOTH"
);
},
{
closed = 1;
nodes = (
"11 579 OFFCURVE",
"-61 653 OFFCURVE",
"-61 755 OFFCURVE",
"11 829 OFFCURVE",
"64 829 QCURVE SMOOTH",
"192 829 LINE SMOOTH",
"245 829 OFFCURVE",
"317 755 OFFCURVE",
"317 653 OFFCURVE",
"245 579 OFFCURVE",
"192 579 QCURVE SMOOTH",
"64 579 LINE SMOOTH"
);
},
{
closed = 1;
nodes = (
"267 579 OFFCURVE",
"195 653 OFFCURVE",
"195 755 OFFCURVE",
"267 829 OFFCURVE",
"320 829 QCURVE SMOOTH",
"448 829 LINE SMOOTH",
"501 829 OFFCURVE",
"573 755 OFFCURVE",
"573 653 OFFCURVE",
"501 579 OFFCURVE",
"448 579 QCURVE SMOOTH",
"320 579 LINE SMOOTH"
);
},
{
closed = 1;
nodes = (
"-45 707 OFFCURVE",
"-125 781 OFFCURVE",
"-125 883 OFFCURVE",
"-45 957 OFFCURVE",
"25 957 QCURVE SMOOTH",
"423 957 LINE SMOOTH",
"493 957 OFFCURVE",
"573 883 OFFCURVE",
"573 781 OFFCURVE",
"493 707 OFFCURVE",
"423 707 QCURVE SMOOTH",
"25 707 LINE SMOOTH"
);
}
);
width = 512;
}
);
unicode = 0046;
},
{
glyphname = G;
lastChange = "2019-07-27 12:32:26 +0000";
layers = (
{
background = {
paths = (
{
closed = 1;
nodes = (
"451 515 LINE",
"451 -3 LINE",
"125 -3 LINE",
"125 125 LINE",
"61 125 LINE",
"61 253 LINE",
"-3 253 LINE",
"-3 643 LINE",
"61 643 LINE",
"61 771 LINE",
"125 771 LINE",
"125 899 LINE",
"387 899 LINE",
"387 771 LINE",
"451 771 LINE",
"451 637 LINE",
"317 637 LINE",
"317 765 LINE",
"195 765 LINE",
"195 637 LINE",
"131 637 LINE",
"131 259 LINE",
"195 259 LINE",
"195 131 LINE",
"317 131 LINE",
"317 381 LINE",
"253 381 LINE",
"253 515 LINE"
);
}
);
};
layerId = master01;
paths = (
{
closed = 0;
nodes = (
"125 64 LINE",
"451 64 LINE"
);
},
{
closed = 0;
nodes = (
"61 192 LINE",
"195 192 LINE"
);
},
{
closed = 0;
nodes = (
"317 192 LINE",
"451 192 LINE"
);
},
{
closed = 0;
nodes = (
"-3 320 LINE",
"131 320 LINE"
);
},
{
closed = 0;
nodes = (
"317 320 LINE",
"451 320 LINE"
);
},
{
closed = 0;
nodes = (
"-3 448 LINE",
"131 448 LINE"
);
},
{
closed = 0;
nodes = (
"253 448 LINE",
"451 448 LINE"
);
},
{
closed = 0;
nodes = (
"-3 576 LINE",
"131 576 LINE"
);
},
{
closed = 0;
nodes = (
"61 704 LINE",
"195 704 LINE"
);
},
{
closed = 0;
nodes = (
"317 704 LINE",
"451 704 LINE"
);
},
{
closed = 0;
nodes = (
"125 832 LINE",
"387 832 LINE"
);
}
);
userData = {
com.typemytype.robofont.mark = (
0.656,
1,
0.6,
1
);
};
width = 512;
},
{
layerId = "968AADD4-6AAB-4A21-B439-CFC52095EED4";
paths = (
{
closed = 1;
nodes = (
"451 515 LINE",
"451 -3 LINE",
"125 -3 LINE",
"125 125 LINE",
"61 125 LINE",
"61 253 LINE",
"-3 253 LINE",
"-3 643 LINE",
"61 643 LINE",
"61 771 LINE",
"125 771 LINE",
"125 899 LINE",
"387 899 LINE",
"387 771 LINE",
"451 771 LINE",
"451 637 LINE",
"317 637 LINE",
"317 765 LINE",
"195 765 LINE",
"195 637 LINE",
"131 637 LINE",
"131 259 LINE",
"195 259 LINE",
"195 131 LINE",
"317 131 LINE",
"317 381 LINE",
"253 381 LINE",
"253 515 LINE"
);
}
);
userData = {
com.typemytype.robofont.mark = (
0.656,
1,
0.6,
1
);
};
width = 512;
},
{
layerId = "EF047752-ED93-49D3-A4D1-D66A6AAE90C7";
paths = (
{
closed = 1;
nodes = (
"129 54 OFFCURVE",
"123 60 OFFCURVE",
"123 68 OFFCURVE",
"129 74 OFFCURVE",
"135 74 QCURVE SMOOTH",
"441 74 LINE SMOOTH",
"447 74 OFFCURVE",
"453 68 OFFCURVE",
"453 60 OFFCURVE",
"447 54 OFFCURVE",
"441 54 QCURVE SMOOTH",
"135 54 LINE SMOOTH"
);
},
{
closed = 1;
nodes = (
"65 182 OFFCURVE",
"59 188 OFFCURVE",
"59 196 OFFCURVE",
"65 202 OFFCURVE",
"71 202 QCURVE SMOOTH",
"185 202 LINE SMOOTH",
"191 202 OFFCURVE",
"197 196 OFFCURVE",
"197 188 OFFCURVE",
"191 182 OFFCURVE",
"185 182 QCURVE SMOOTH",
"71 182 LINE SMOOTH"
);
},
{
closed = 1;
nodes = (
"321 182 OFFCURVE",
"315 188 OFFCURVE",
"315 196 OFFCURVE",
"321 202 OFFCURVE",
"327 202 QCURVE SMOOTH",
"441 202 LINE SMOOTH",
"447 202 OFFCURVE",
"453 196 OFFCURVE",
"453 188 OFFCURVE",
"447 182 OFFCURVE",
"441 182 QCURVE SMOOTH",
"327 182 LINE SMOOTH"
);
},
{
closed = 1;
nodes = (
"1 310 OFFCURVE",
"-5 316 OFFCURVE",
"-5 324 OFFCURVE",
"1 330 OFFCURVE",
"7 330 QCURVE SMOOTH",
"121 330 LINE SMOOTH",
"127 330 OFFCURVE",
"133 324 OFFCURVE",
"133 316 OFFCURVE",
"127 310 OFFCURVE",
"121 310 QCURVE SMOOTH",
"7 310 LINE SMOOTH"
);
},
{
closed = 1;
nodes = (
"321 310 OFFCURVE",
"315 316 OFFCURVE",
"315 324 OFFCURVE",
"321 330 OFFCURVE",
"327 330 QCURVE SMOOTH",
"441 330 LINE SMOOTH",
"447 330 OFFCURVE",
"453 324 OFFCURVE",
"453 316 OFFCURVE",
"447 310 OFFCURVE",
"441 310 QCURVE SMOOTH",
"327 310 LINE SMOOTH"
);
},
{
closed = 1;
nodes = (
"1 438 OFFCURVE",
"-5 444 OFFCURVE",
"-5 452 OFFCURVE",
"1 458 OFFCURVE",
"7 458 QCURVE SMOOTH",
"121 458 LINE SMOOTH",
"127 458 OFFCURVE",
"133 452 OFFCURVE",
"133 444 OFFCURVE",
"127 438 OFFCURVE",
"121 438 QCURVE SMOOTH",
"7 438 LINE SMOOTH"
);
},
{
closed = 1;
nodes = (
"257 438 OFFCURVE",
"251 444 OFFCURVE",
"251 452 OFFCURVE",
"257 458 OFFCURVE",
"263 458 QCURVE SMOOTH",
"441 458 LINE SMOOTH",
"447 458 OFFCURVE",
"453 452 OFFCURVE",
"453 444 OFFCURVE",
"447 438 OFFCURVE",
"441 438 QCURVE SMOOTH",
"263 438 LINE SMOOTH"
);
},
{
closed = 1;
nodes = (
"1 566 OFFCURVE",
"-5 572 OFFCURVE",
"-5 580 OFFCURVE",
"1 586 OFFCURVE",
"7 586 QCURVE SMOOTH",
"121 586 LINE SMOOTH",
"127 586 OFFCURVE",
"133 580 OFFCURVE",
"133 572 OFFCURVE",
"127 566 OFFCURVE",
"121 566 QCURVE SMOOTH",
"7 566 LINE SMOOTH"
);
},
{
closed = 1;
nodes = (
"65 694 OFFCURVE",
"59 700 OFFCURVE",
"59 708 OFFCURVE",
"65 714 OFFCURVE",
"71 714 QCURVE SMOOTH",
"185 714 LINE SMOOTH",
"191 714 OFFCURVE",
"197 708 OFFCURVE",
"197 700 OFFCURVE",
"191 694 OFFCURVE",
"185 694 QCURVE SMOOTH",
"71 694 LINE SMOOTH"
);
},
{
closed = 1;
nodes = (
"321 694 OFFCURVE",
"315 700 OFFCURVE",
"315 708 OFFCURVE",
"321 714 OFFCURVE",
"327 714 QCURVE SMOOTH",
"441 714 LINE SMOOTH",
"447 714 OFFCURVE",
"453 708 OFFCURVE",
"453 700 OFFCURVE",
"447 694 OFFCURVE",
"441 694 QCURVE SMOOTH",
"327 694 LINE SMOOTH"
);
},
{
closed = 1;
nodes = (
"129 822 OFFCURVE",
"123 828 OFFCURVE",
"123 836 OFFCURVE",
"129 842 OFFCURVE",
"135 842 QCURVE SMOOTH",
"377 842 LINE SMOOTH",
"383 842 OFFCURVE",
"389 836 OFFCURVE",
"389 828 OFFCURVE",
"383 822 OFFCURVE",
"377 822 QCURVE SMOOTH",
"135 822 LINE SMOOTH"
);
}
);
width = 512;
},
{
layerId = "164C8123-3F0E-4C99-877D-0E85C432A9CE";
paths = (
{
closed = 1;
nodes = (
"145 -61 OFFCURVE",
"65 13 OFFCURVE",
"65 115 OFFCURVE",
"145 189 OFFCURVE",
"215 189 QCURVE SMOOTH",
"361 189 LINE SMOOTH",
"431 189 OFFCURVE",
"511 115 OFFCURVE",
"511 13 OFFCURVE",
"431 -61 OFFCURVE",
"361 -61 QCURVE SMOOTH",
"215 -61 LINE SMOOTH"
);
},
{
closed = 1;
nodes = (
"73 67 OFFCURVE",
"1 141 OFFCURVE",
"1 243 OFFCURVE",
"73 317 OFFCURVE",
"126 317 QCURVE SMOOTH",
"130 317 LINE SMOOTH",
"183 317 OFFCURVE",
"255 243 OFFCURVE",
"255 141 OFFCURVE",
"183 67 OFFCURVE",
"130 67 QCURVE SMOOTH",
"126 67 LINE SMOOTH"
);
},
{
closed = 1;
nodes = (
"329 67 OFFCURVE",
"257 141 OFFCURVE",
"257 243 OFFCURVE",
"329 317 OFFCURVE",
"382 317 QCURVE SMOOTH",
"386 317 LINE SMOOTH",
"439 317 OFFCURVE",
"511 243 OFFCURVE",
"511 141 OFFCURVE",
"439 67 OFFCURVE",
"386 67 QCURVE SMOOTH",
"382 67 LINE SMOOTH"
);
},
{
closed = 1;
nodes = (
"9 195 OFFCURVE",
"-63 269 OFFCURVE",
"-63 371 OFFCURVE",
"9 445 OFFCURVE",
"62 445 QCURVE SMOOTH",
"66 445 LINE SMOOTH",
"119 445 OFFCURVE",
"191 371 OFFCURVE",
"191 269 OFFCURVE",
"119 195 OFFCURVE",
"66 195 QCURVE SMOOTH",
"62 195 LINE SMOOTH"
);
},
{
closed = 1;
nodes = (
"329 195 OFFCURVE",
"257 269 OFFCURVE",
"257 371 OFFCURVE",
"329 445 OFFCURVE",
"382 445 QCURVE SMOOTH",
"386 445 LINE SMOOTH",
"439 445 OFFCURVE",
"511 371 OFFCURVE",
"511 269 OFFCURVE",
"439 195 OFFCURVE",
"386 195 QCURVE SMOOTH",
"382 195 LINE SMOOTH"
);
},
{
closed = 1;
nodes = (
"9 323 OFFCURVE",
"-63 397 OFFCURVE",
"-63 499 OFFCURVE",
"9 573 OFFCURVE",
"62 573 QCURVE SMOOTH",
"66 573 LINE SMOOTH",
"119 573 OFFCURVE",
"191 499 OFFCURVE",
"191 397 OFFCURVE",
"119 323 OFFCURVE",
"66 323 QCURVE SMOOTH",
"62 323 LINE SMOOTH"
);
},
{
closed = 1;
nodes = (
"265 323 OFFCURVE",
"193 397 OFFCURVE",
"193 499 OFFCURVE",
"265 573 OFFCURVE",
"318 573 QCURVE SMOOTH",
"386 573 LINE SMOOTH",
"439 573 OFFCURVE",
"511 499 OFFCURVE",
"511 397 OFFCURVE",
"439 323 OFFCURVE",
"386 323 QCURVE SMOOTH",
"318 323 LINE SMOOTH"
);
},
{
closed = 1;
nodes = (
"9 451 OFFCURVE",
"-63 525 OFFCURVE",
"-63 627 OFFCURVE",
"9 701 OFFCURVE",
"62 701 QCURVE SMOOTH",
"66 701 LINE SMOOTH",
"119 701 OFFCURVE",
"191 627 OFFCURVE",
"191 525 OFFCURVE",
"119 451 OFFCURVE",
"66 451 QCURVE SMOOTH",
"62 451 LINE SMOOTH"
);
},
{
closed = 1;
nodes = (
"73 579 OFFCURVE",
"1 653 OFFCURVE",
"1 755 OFFCURVE",
"73 829 OFFCURVE",
"126 829 QCURVE SMOOTH",
"130 829 LINE SMOOTH",
"183 829 OFFCURVE",
"255 755 OFFCURVE",
"255 653 OFFCURVE",
"183 579 OFFCURVE",
"130 579 QCURVE SMOOTH",
"126 579 LINE SMOOTH"
);
},
{
closed = 1;
nodes = (
"329 579 OFFCURVE",
"257 653 OFFCURVE",
"257 755 OFFCURVE",
"329 829 OFFCURVE",
"382 829 QCURVE SMOOTH",
"386 829 LINE SMOOTH",
"439 829 OFFCURVE",
"511 755 OFFCURVE",
"511 653 OFFCURVE",
"439 579 OFFCURVE",
"386 579 QCURVE SMOOTH",
"382 579 LINE SMOOTH"
);
},
{
closed = 1;
nodes = (
"145 707 OFFCURVE",
"65 781 OFFCURVE",
"65 883 OFFCURVE",
"145 957 OFFCURVE",
"215 957 QCURVE SMOOTH",
"297 957 LINE SMOOTH",
"367 957 OFFCURVE",
"447 883 OFFCURVE",
"447 781 OFFCURVE",
"367 707 OFFCURVE",
"297 707 QCURVE SMOOTH",
"215 707 LINE SMOOTH"
);
}
);
width = 512;
},
{
layerId = "EDC3ADDC-530C-4ECE-AAC6-732B149A8D4A";
paths = (
{
closed = 1;
nodes = (
"41 54 OFFCURVE",
"35 60 OFFCURVE",
"35 68 OFFCURVE",
"41 74 OFFCURVE",
"47 74 QCURVE SMOOTH",
"529 74 LINE SMOOTH",
"535 74 OFFCURVE",
"541 68 OFFCURVE",
"541 60 OFFCURVE",
"535 54 OFFCURVE",
"529 54 QCURVE SMOOTH",
"47 54 LINE SMOOTH"
);
},
{
closed = 1;
nodes = (
"-23 182 OFFCURVE",
"-29 188 OFFCURVE",
"-29 196 OFFCURVE",
"-23 202 OFFCURVE",
"-17 202 QCURVE SMOOTH",
"273 202 LINE SMOOTH",
"279 202 OFFCURVE",
"285 196 OFFCURVE",
"285 188 OFFCURVE",
"279 182 OFFCURVE",
"273 182 QCURVE SMOOTH",
"-17 182 LINE SMOOTH"
);
},
{
closed = 1;
nodes = (
"233 182 OFFCURVE",
"227 188 OFFCURVE",
"227 196 OFFCURVE",
"233 202 OFFCURVE",
"239 202 QCURVE SMOOTH",
"529 202 LINE SMOOTH",
"535 202 OFFCURVE",
"541 196 OFFCURVE",
"541 188 OFFCURVE",
"535 182 OFFCURVE",
"529 182 QCURVE SMOOTH",
"239 182 LINE SMOOTH"
);
},
{
closed = 1;
nodes = (
"-87 310 OFFCURVE",
"-93 316 OFFCURVE",
"-93 324 OFFCURVE",
"-87 330 OFFCURVE",
"-81 330 QCURVE SMOOTH",
"209 330 LINE SMOOTH",
"215 330 OFFCURVE",
"221 324 OFFCURVE",
"221 316 OFFCURVE",
"215 310 OFFCURVE",
"209 310 QCURVE SMOOTH",
"-81 310 LINE SMOOTH"
);
},
{
closed = 1;
nodes = (
"233 310 OFFCURVE",
"227 316 OFFCURVE",
"227 324 OFFCURVE",
"233 330 OFFCURVE",
"239 330 QCURVE SMOOTH",
"529 330 LINE SMOOTH",
"535 330 OFFCURVE",
"541 324 OFFCURVE",
"541 316 OFFCURVE",
"535 310 OFFCURVE",
"529 310 QCURVE SMOOTH",
"239 310 LINE SMOOTH"
);
},
{
closed = 1;
nodes = (
"-87 438 OFFCURVE",
"-93 444 OFFCURVE",
"-93 452 OFFCURVE",
"-87 458 OFFCURVE",
"-81 458 QCURVE SMOOTH",
"209 458 LINE SMOOTH",
"215 458 OFFCURVE",
"221 452 OFFCURVE",
"221 444 OFFCURVE",
"215 438 OFFCURVE",
"209 438 QCURVE SMOOTH",
"-81 438 LINE SMOOTH"
);
},
{
closed = 1;
nodes = (
"169 438 OFFCURVE",
"163 444 OFFCURVE",
"163 452 OFFCURVE",
"169 458 OFFCURVE",
"175 458 QCURVE SMOOTH",
"529 458 LINE SMOOTH",
"535 458 OFFCURVE",
"541 452 OFFCURVE",
"541 444 OFFCURVE",
"535 438 OFFCURVE",
"529 438 QCURVE SMOOTH",
"175 438 LINE SMOOTH"
);
},
{
closed = 1;
nodes = (
"-87 566 OFFCURVE",
"-93 572 OFFCURVE",
"-93 580 OFFCURVE",
"-87 586 OFFCURVE",
"-81 586 QCURVE SMOOTH",
"209 586 LINE SMOOTH",
"215 586 OFFCURVE",
"221 580 OFFCURVE",
"221 572 OFFCURVE",
"215 566 OFFCURVE",
"209 566 QCURVE SMOOTH",
"-81 566 LINE SMOOTH"
);
},
{
closed = 1;
nodes = (
"-23 694 OFFCURVE",
"-29 700 OFFCURVE",
"-29 708 OFFCURVE",
"-23 714 OFFCURVE",
"-17 714 QCURVE SMOOTH",
"273 714 LINE SMOOTH",
"279 714 OFFCURVE",
"285 708 OFFCURVE",
"285 700 OFFCURVE",
"279 694 OFFCURVE",
"273 694 QCURVE SMOOTH",
"-17 694 LINE SMOOTH"
);
},
{
closed = 1;
nodes = (
"233 694 OFFCURVE",
"227 700 OFFCURVE",
"227 708 OFFCURVE",
"233 714 OFFCURVE",
"239 714 QCURVE SMOOTH",
"529 714 LINE SMOOTH",
"535 714 OFFCURVE",
"541 708 OFFCURVE",
"541 700 OFFCURVE",
"535 694 OFFCURVE",
"529 694 QCURVE SMOOTH",
"239 694 LINE SMOOTH"
);
},
{
closed = 1;
nodes = (
"41 822 OFFCURVE",
"35 828 OFFCURVE",
"35 836 OFFCURVE",
"41 842 OFFCURVE",
"47 842 QCURVE SMOOTH",
"465 842 LINE SMOOTH",
"471 842 OFFCURVE",
"477 836 OFFCURVE",
"477 828 OFFCURVE",
"471 822 OFFCURVE",
"465 822 QCURVE SMOOTH",
"47 822 LINE SMOOTH"
);
}
);
width = 512;
},
{
layerId = "38088322-78A3-4F4F-B46E-F8355B0BCD96";
paths = (
{
closed = 1;
nodes = (
"83 -61 OFFCURVE",
"3 13 OFFCURVE",
"3 115 OFFCURVE",
"83 189 OFFCURVE",
"153 189 QCURVE SMOOTH",
"423 189 LINE SMOOTH",
"493 189 OFFCURVE",
"573 115 OFFCURVE",
"573 13 OFFCURVE",
"493 -61 OFFCURVE",
"423 -61 QCURVE SMOOTH",
"153 -61 LINE SMOOTH"
);
},
{
closed = 1;
nodes = (
"11 67 OFFCURVE",
"-61 141 OFFCURVE",
"-61 243 OFFCURVE",
"11 317 OFFCURVE",
"64 317 QCURVE SMOOTH",
"192 317 LINE SMOOTH",
"245 317 OFFCURVE",
"317 243 OFFCURVE",
"317 141 OFFCURVE",
"245 67 OFFCURVE",
"192 67 QCURVE SMOOTH",
"64 67 LINE SMOOTH"
);
},
{
closed = 1;
nodes = (
"267 67 OFFCURVE",
"195 141 OFFCURVE",
"195 243 OFFCURVE",
"267 317 OFFCURVE",
"320 317 QCURVE SMOOTH",
"448 317 LINE SMOOTH",
"501 317 OFFCURVE",
"573 243 OFFCURVE",
"573 141 OFFCURVE",
"501 67 OFFCURVE",
"448 67 QCURVE SMOOTH",
"320 67 LINE SMOOTH"
);
},
{
closed = 1;
nodes = (
"-53 195 OFFCURVE",
"-125 269 OFFCURVE",
"-125 371 OFFCURVE",
"-53 445 OFFCURVE",
"0 445 QCURVE SMOOTH",
"128 445 LINE SMOOTH",
"181 445 OFFCURVE",
"253 371 OFFCURVE",
"253 269 OFFCURVE",
"181 195 OFFCURVE",
"128 195 QCURVE SMOOTH",
"0 195 LINE SMOOTH"
);
},
{
closed = 1;
nodes = (
"267 195 OFFCURVE",
"195 269 OFFCURVE",
"195 371 OFFCURVE",
"267 445 OFFCURVE",
"320 445 QCURVE SMOOTH",
"448 445 LINE SMOOTH",
"501 445 OFFCURVE",
"573 371 OFFCURVE",
"573 269 OFFCURVE",
"501 195 OFFCURVE",
"448 195 QCURVE SMOOTH",
"320 195 LINE SMOOTH"
);
},
{
closed = 1;
nodes = (
"-53 323 OFFCURVE",
"-125 397 OFFCURVE",
"-125 499 OFFCURVE",
"-53 573 OFFCURVE",
"0 573 QCURVE SMOOTH",
"128 573 LINE SMOOTH",
"181 573 OFFCURVE",
"253 499 OFFCURVE",
"253 397 OFFCURVE",
"181 323 OFFCURVE",
"128 323 QCURVE SMOOTH",
"0 323 LINE SMOOTH"
);
},
{
closed = 1;
nodes = (
"203 323 OFFCURVE",
"131 397 OFFCURVE",
"131 499 OFFCURVE",
"203 573 OFFCURVE",
"256 573 QCURVE SMOOTH",
"448 573 LINE SMOOTH",
"501 573 OFFCURVE",
"573 499 OFFCURVE",
"573 397 OFFCURVE",
"501 323 OFFCURVE",
"448 323 QCURVE SMOOTH",
"256 323 LINE SMOOTH"
);
},
{
closed = 1;
nodes = (
"-53 451 OFFCURVE",
"-125 525 OFFCURVE",
"-125 627 OFFCURVE",
"-53 701 OFFCURVE",
"0 701 QCURVE SMOOTH",
"128 701 LINE SMOOTH",
"181 701 OFFCURVE",
"253 627 OFFCURVE",
"253 525 OFFCURVE",
"181 451 OFFCURVE",
"128 451 QCURVE SMOOTH",
"0 451 LINE SMOOTH"
);
},
{
closed = 1;
nodes = (
"11 579 OFFCURVE",
"-61 653 OFFCURVE",
"-61 755 OFFCURVE",
"11 829 OFFCURVE",
"64 829 QCURVE SMOOTH",
"192 829 LINE SMOOTH",
"245 829 OFFCURVE",
"317 755 OFFCURVE",
"317 653 OFFCURVE",
"245 579 OFFCURVE",
"192 579 QCURVE SMOOTH",
"64 579 LINE SMOOTH"
);
},
{
closed = 1;
nodes = (
"267 579 OFFCURVE",
"195 653 OFFCURVE",
"195 755 OFFCURVE",
"267 829 OFFCURVE",
"320 829 QCURVE SMOOTH",
"448 829 LINE SMOOTH",
"501 829 OFFCURVE",
"573 755 OFFCURVE",
"573 653 OFFCURVE",
"501 579 OFFCURVE",
"448 579 QCURVE SMOOTH",
"320 579 LINE SMOOTH"
);
},
{
closed = 1;
nodes = (
"83 707 OFFCURVE",
"3 781 OFFCURVE",
"3 883 OFFCURVE",
"83 957 OFFCURVE",
"153 957 QCURVE SMOOTH",
"359 957 LINE SMOOTH",
"429 957 OFFCURVE",
"509 883 OFFCURVE",
"509 781 OFFCURVE",
"429 707 OFFCURVE",
"359 707 QCURVE SMOOTH",
"153 707 LINE SMOOTH"
);
}
);
width = 512;
}
);
unicode = 0047;
},
